<svg xmlns="http://www.w3.org/2000/svg" viewBox="0 0 36.93518 40.9541"><defs><style>.cls-1{fill:#0743ff;}</style></defs><title>chem</title><g id="Layer_2" data-name="Layer 2"><g id="Layer_1-2" data-name="Layer 1"><path class="cls-1" d="M32.24213,0,21.7937,17.02344l.11084,2.25488,8.24121,10.86426a4.52681,4.52681,0,0,1,.312,4.69336,3.50744,3.50744,0,0,1-3.06689,2.02344l-17.31543.09472h-.02A3.51159,3.51159,0,0,1,6.9856,34.96387a4.50369,4.50369,0,0,1,.22509-4.64453l8.15723-11.00489.08594-2.25586L4.72473,0H0L11.34009,18.03027,3.96118,27.98633A8.50224,8.50224,0,0,0,3.446,36.82715a7.42294,7.42294,0,0,0,6.60987,4.12695h.041l17.31543-.09472a7.42209,7.42209,0,0,0,6.60547-4.19922,8.52485,8.52485,0,0,0-.64844-8.88575l-1.50213-1.98059a11.83791,11.83791,0,0,0-.74347-16.32507L36.93518,0ZM30.77661,18.02344a7.86836,7.86836,0,0,1-1.40552,4.47925L25.91821,17.9502,28.958,12.99744A7.90543,7.90543,0,0,1,30.77661,18.02344Z"/><path class="cls-1" d="M16.94312,14.77734h3.37109L27.801,3.05273,26.1283,0H11.129L9.4563,3.05273Zm1.68554-4.792L14.79175,3.97656h7.67383Z"/></g></g></svg>