<svg viewBox="0 0 36.93518 40.9541" xmlns="http://www.w3.org/2000/svg"><g fill="#0743ff"><path d="m32.24213 0-10.44843 17.02344.11084 2.25488 8.24121 10.86426a4.52681 4.52681 0 0 1 .312 4.69336 3.50744 3.50744 0 0 1 -3.06689 2.02344l-17.31543.09472h-.02a3.51159 3.51159 0 0 1 -3.06983-1.99023 4.50369 4.50369 0 0 1 .22509-4.64453l8.15723-11.00489.08594-2.25586-10.72913-17.05859h-4.72473l11.34009 18.03027-7.37891 9.95606a8.50224 8.50224 0 0 0 -.51518 8.84082 7.42294 7.42294 0 0 0 6.60987 4.12695h.041l17.31543-.09472a7.42209 7.42209 0 0 0 6.60547-4.19922 8.52485 8.52485 0 0 0 -.64844-8.88575l-1.50213-1.98059a11.83791 11.83791 0 0 0 -.74347-16.32507l5.81145-9.46875zm-1.46552 18.02344a7.86836 7.86836 0 0 1 -1.40552 4.47925l-3.45288-4.55249 3.03979-4.95276a7.90543 7.90543 0 0 1 1.81861 5.026z"/><path d="m16.94312 14.77734h3.37109l7.48679-11.72461-1.6727-3.05273h-14.9993l-1.6727 3.05273zm1.68554-4.792-3.83691-6.00878h7.67383z"/></g></svg>