<svg viewBox="0 0 102.95767 103.43945" xmlns="http://www.w3.org/2000/svg"><path d="m6.59829 71.01465a2.76243 2.76243 0 0 0 .08155 2.48144 2.58372 2.58372 0 0 0 3.62109 1.05469 2.54315 2.54315 0 0 0 1.12988-3.58691 2.934 2.934 0 0 0 -1.9414-1.46487l2.707-1.418a7.17582 7.17582 0 0 1 1.44729 1.7813 5.46073 5.46073 0 0 1 .42969 3.93067 4.79786 4.79786 0 0 1 -2.55273 3.11426 5.13494 5.13494 0 0 1 -3.84961.38672 5.314 5.314 0 0 1 -3.1377-2.57032 5.9855 5.9855 0 0 1 -.64307-2.291z"/><path d="m7.59683 58.46484-.48828-3.01464 2.12939-.34473.894 5.5293-9.67232 1.56347-.40576-2.51367z"/><path d="m6.12515 37.05762a5.20857 5.20857 0 0 1 4.22851 6.3789 5.22664 5.22664 0 1 1 -10.24023-2.06347 5.23015 5.23015 0 0 1 6.01172-4.31543zm-1.60401 8.02638a2.7717 2.7717 0 1 0 1.09424-5.4258 2.77389 2.77389 0 0 0 -1.09424 5.4258z"/><path d="m11.04312 23.02051a2.67875 2.67875 0 0 0 -1.46289 1.0664c-.2544.39258-.36426 1.06446.09423 1.36133.481.31055 1.04053-.14844 1.39991-.44238l.51757-.43945c1.07911-.92774 2.229-1.4375 3.56153-.57618a3.3286 3.3286 0 0 1 1.665 2.28418 4.3 4.3 0 0 1 -.73535 2.83594 6.05361 6.05361 0 0 1 -2.80909 2.28613l-1.13134-2.03222a3.496 3.496 0 0 0 2.0791-1.34864 1.08548 1.08548 0 0 0 -.15967-1.57324c-.60059-.38867-1.35059.31836-1.77783.69239-1.24951 1.09472-2.1709 1.75293-3.76514.72363a3.1777 3.1777 0 0 1 -.92627-4.624 6.69866 6.69866 0 0 1 2.3418-2.1377z"/><path d="m20.18667 12.877 1.019 1.28223 2.24756-1.78809 1.34377 1.68843-2.249 1.78809 1.05225 1.32324 2.37011-1.88574 1.34375 1.68945-4.36572 3.4707-6.09961-7.67187 4.36522-3.47071 1.34179 1.68848z"/><path d="m30.80679 3.85547 3.42383-1.15332a4.8994 4.8994 0 1 1 3.127 9.28515l-3.42285 1.15332zm4.852 6.42773.543-.18261a2.57392 2.57392 0 0 0 1.7959-3.498 2.57791 2.57791 0 0 0 -3.52246-1.707l-.5669.1914z"/><path d="m56.654 0 3.84179.669c2.07471.36132 3.34082 1.57226 2.95508 3.7871-.39648 2.2793-1.80029 3.06348-3.99072 2.68262l-1.41943-.24805-.55909 3.20118-2.50976-.4375zm1.73828 4.86719.42236.07324c.90918.1582 1.80518.31445 2.01074-.86328.21241-1.2168-.61718-1.374-1.59033-1.543l-.42338-.07415z"/><path d="m74.99771 8.06641-.79053 1.43459 2.51562 1.38867-1.042 1.88965-2.5166-1.3877-.81689 1.47949 2.65333 1.46389-1.04346 1.89063-4.88379-2.69532 4.73535-8.584 4.88574 2.69433-1.04348 1.88963z"/><path d="m85.51089 26.958-2.12158-2.3584 1.19482-4.3096-.01806-.01953-2.80274 2.52253-1.7041-1.89356 7.28662-6.55664 2.54688 2.83106c1.29638 1.43945 1.59277 3.14941.03662 4.5498a2.63594 2.63594 0 0 1 -3.49317.25782zm.27246-7.78223.165.1836c.55664.61816 1.29883 1.21 2.09131.49707s.28271-1.51368-.27393-2.13184l-.165-.18359z"/><path d="m98.69155 30.43945.82032 2.3711-4.30127 3.59277 5.64062.27734.82862 2.39649-8.7793 4.60547-.834-2.40821 5.09913-2.5205-.00782-.02442-6.10205-.3789-.332-.959 4.5972-3.96971-.00879-.02442-5.60059 1.07031-.82812-2.3955z"/><path d="m94.91812 53.38672-1.64356-.80957.21485-2.69434 9.46826 4.53809-.22119 2.77344-10.06348 2.89843.21582-2.709 1.74951-.498zm4.91015 2.17969.002-.02637-3.02539-1.29785-.16944 2.1123z"/><path d="m99.42886 71.14941-1.17432 2.25879-7.46533 1.37793-.01269.02344 5.31542 2.76172-1.17431 2.25879-8.6919-4.5166 1.17427-2.25977 7.47559-1.37109.01269-.02344-5.32661-2.76758 1.17433-2.25879z"/><path d="m84.36148 88.5791-1.08887-1.22265-2.14649 1.91015-1.43505-1.61133 2.14648-1.91113-1.12355-1.26269-2.26319 2.01562-1.43506-1.6123 4.165-3.709 6.51856 7.32129-4.165 3.708-1.43457-1.61133z"/><path d="m74.17056 98.32031-2.38428.90137-6.48486-3.95606-.02393.00879 2.11914 5.60645-2.38379.90137-3.46584-9.16993 2.38379-.90039 6.48877 3.96778.0249-.00879-2.12446-5.61914 2.38379-.90039z"/><path d="m49.9645 93.63184 2.54932-.00391.01025 7.64551 2.10645-.00293.00342 2.1582-6.76172.01074-.00147-2.15918 2.105-.002z"/><path d="m37.81509 93.70117-2.91455-.917.648-2.05957 5.3457 1.68359-2.94482 9.35157-2.43018-.76563z"/><path d="m25.58316 96.90332-2.50782-1.748.02051-3.23632-3.02832 1.13867-2.5083-1.74805 5.88232-2.11523 2.69288-3.86239 2.0913 1.458-2.69287 3.8623z"/><path d="m59.07925 69.23633a1.99606 1.99606 0 0 1 -1.56006-.74707c-.11426-.13086-1.81494-1.99414-6.31738-1.99414-4.56787 0-6.252 1.917-6.32178 1.999a2.02368 2.02368 0 0 1 -2.79834.27637 1.979 1.979 0 0 1 -.33984-2.75586c.27832-.36035 2.90576-3.51953 9.46-3.51953 6.55371 0 9.18115 3.15918 9.45947 3.51953a2.00009 2.00009 0 0 1 -1.582 3.22168z"/><path d="m61.43126 45.91086 8.03863-8.03863"/><path d="m61.4313 47.91113a2 2 0 0 1 -1.41406-3.41406l8.03857-8.03907a1.99979 1.99979 0 1 1 2.82813 2.82812l-8.03858 8.03908a1.99268 1.99268 0 0 1 -1.41406.58593z"/><path d="m69.46989 45.91086-8.03863-8.03863"/><path d="m69.46987 47.91113a1.99272 1.99272 0 0 1 -1.41406-.58593l-8.03857-8.03907a1.99978 1.99978 0 0 1 2.82812-2.82813l8.03858 8.03906a2 2 0 0 1 -1.41407 3.41406z"/><path d="m32.86668 45.91086 8.03864-8.03863"/><path d="m32.86685 47.91113a2 2 0 0 1 -1.41407-3.41406l8.03858-8.03907a1.99978 1.99978 0 0 1 2.82812 2.82812l-8.03857 8.03908a1.9927 1.9927 0 0 1 -1.41406.58593z"/><path d="m40.90532 45.91086-8.03864-8.03863"/><path d="m40.90542 47.91113a1.9927 1.9927 0 0 1 -1.41406-.58593l-8.03858-8.03907a1.99979 1.99979 0 1 1 2.82813-2.82813l8.03857 8.03906a2 2 0 0 1 -1.41406 3.41406z"/></svg>