<svg viewBox="0 0 103.80396 104.10246" xmlns="http://www.w3.org/2000/svg"><path d="m8.65942 74.45112a2.76182 2.76182 0 0 0 .251 2.46875 2.58011 2.58011 0 0 0 3.68115.80468 2.54056 2.54056 0 0 0 .8833-3.65332 2.92849 2.92849 0 0 0 -2.03515-1.32812l2.603-1.59766a7.23817 7.23817 0 0 1 1.564 1.67871 5.45987 5.45987 0 0 1 .69531 3.88867 4.79553 4.79553 0 0 1 -2.33447 3.2793 5.13071 5.13071 0 0 1 -3.812.64746 5.31549 5.31549 0 0 1 -3.30229-2.34959 5.98188 5.98188 0 0 1 -.79687-2.24121z"/><path d="m8.89575 62.29291-.72021-2.96972 2.09863-.50879 1.32129 5.44726-9.52979 2.31153-.60009-2.47754z"/><path d="m5.65161 41.48627a5.42214 5.42214 0 0 1 -1.20261 10.77735 5.43615 5.43615 0 0 1 1.20261-10.77735zm-.895 8.14356a2.77363 2.77363 0 1 0 .61377-5.50489 2.7759 2.7759 0 0 0 -.61377 5.50489z"/><path d="m9.06421 27.54487a2.677 2.677 0 0 0 -1.3501 1.2041c-.21484.415-.25879 1.09472.22705 1.34472.50733.26172 1.02-.249 1.34961-.57617l.47119-.48828c.98243-1.02734 2.07666-1.64844 3.48536-.92187a3.32969 3.32969 0 0 1 1.88037 2.10937 4.3 4.3 0 0 1 -.45362 2.89453 6.05181 6.05181 0 0 1 -2.57129 2.54883l-1.32421-1.9111a3.48946 3.48946 0 0 0 1.936-1.5459 1.08279 1.08279 0 0 0 -.31152-1.54883c-.63526-.32812-1.313.44922-1.70166.8623-1.13623 1.21192-1.9878 1.957-3.67383 1.0879a3.17525 3.17525 0 0 1 -1.375-4.50879 6.69694 6.69694 0 0 1 2.12112-2.35648z"/><path d="m16.84107 16.88471 1.14941 1.16406 2.04394-2.01855 1.51658 1.53418-2.044 2.01855 1.18848 1.20215 2.15429-2.12891 1.51563 1.53516-3.96533 3.91894-6.88807-6.9707 3.96582-3.91894 1.51563 1.53515z"/><path d="m25.98853 6.99994 3.26757-1.54687a4.90476 4.90476 0 1 1 4.19434 8.86621l-3.26855 1.54687zm5.57519 5.82422.51758-.24512a2.57878 2.57878 0 0 0 1.37744-3.68847 2.58242 2.58242 0 0 0 -3.70264-1.28516l-.54.25586z"/><path d="m54.12866 3.48627a2.7641 2.7641 0 0 0 -2.26366-1.01758 2.58306 2.58306 0 0 0 -2.54 2.78516 2.54327 2.54327 0 0 0 2.72266 2.59277 2.935 2.935 0 0 0 2.16889-1.09862l.08057 3.05371a7.222 7.222 0 0 1 -2.23535.51465 5.45212 5.45212 0 0 1 -3.71577-1.34376 4.79345 4.79345 0 0 1 -1.67188-3.66016 5.12978 5.12978 0 0 1 1.34717-3.625 5.3088 5.3088 0 0 1 3.68599-1.68554 5.98124 5.98124 0 0 1 2.33886.43261z"/><path d="m64.54517 9.788 2.92773.87012-.61474 2.06836-5.36916-1.59568 2.78956-9.39355 2.44238.72558z"/><path d="m84.16138 17.41889a5.214 5.214 0 0 1 -7.57324 1.13476 5.22975 5.22975 0 1 1 6.20507-8.41113 5.23368 5.23368 0 0 1 1.36817 7.27637zm-6.59863-4.85059a2.77318 2.77318 0 1 0 4.457 3.28711 2.7754 2.7754 0 0 0 -4.457-3.28711z"/><path d="m94.54566 27.371a2.68286 2.68286 0 0 0 -.36329-1.77539c-.252-.39453-.81884-.77344-1.2788-.47852-.48243.30762-.29639 1.00781-.1792 1.458l.18505.65332c.39649 1.36719.38331 2.626-.95361 3.48047a3.33232 3.33232 0 0 1 -2.771.56738 4.30314 4.30314 0 0 1 -2.27735-1.84668 6.05181 6.05181 0 0 1 -.91406-3.50684l2.32031-.18652a3.48948 3.48948 0 0 0 .36429 2.45318 1.08559 1.08559 0 0 0 1.49756.50879c.603-.38575.272-1.36231.10937-1.90723-.47851-1.59277-.69482-2.70508.9043-3.72754a3.17921 3.17921 0 0 1 4.59424 1.07715 6.707 6.707 0 0 1 .97363 3.01953z"/><path d="m99.86011 39.49311-1.58789.40136.70312 2.78614-2.09326.52832-.70308-2.78614-1.63916.41407.7417 2.9375-2.0918.52832-1.36674-5.40821 9.50586-2.40039 1.36572 5.40821-2.09277.52734z"/><path d="m103.804 52.30072-.29786 3.59961a4.89908 4.89908 0 1 1 -9.76367-.80664l.29785-3.59961zm-7.82325 1.90821-.04834.57031a2.74238 2.74238 0 1 0 5.46241.47754l.0498-.5957z"/><path d="m92.73413 78.4101a2.76166 2.76166 0 0 0 2.01807-1.44727 2.58279 2.58279 0 0 0 -1.13477-3.5957 2.5422 2.5422 0 0 0 -3.61035 1.05371 2.92444 2.92444 0 0 0 -.13867 2.42676l-2.68359-1.46289a7.23043 7.23043 0 0 1 .67773-2.19336 5.45309 5.45309 0 0 1 3.0293-2.54 4.79886 4.79886 0 0 1 4.00683.39258 5.13684 5.13684 0 0 1 2.46094 2.98535 5.31817 5.31817 0 0 1 -.39453 4.03711 5.98436 5.98436 0 0 1 -1.54736 1.80661z"/><path d="m82.05933 84.27631-2.21924 2.10059-1.4834-1.56739 4.06885-3.85058 6.73828 7.11719-1.85107 1.75195z"/><path d="m65.62378 97.414a5.43465 5.43465 0 1 1 6.978 2.47461 5.21269 5.21269 0 0 1 -6.978-2.47461zm7.50977-3.26661a2.77289 2.77289 0 1 0 -5.08155 2.20021 2.77512 2.77512 0 0 0 5.08155-2.2002z"/><path d="m51.80542 101.4101a2.67735 2.67735 0 0 0 1.71826.57227c.46778-.02051 1.07813-.32129 1.0542-.86719-.02539-.57129-.72412-.76172-1.17236-.88477l-.65869-.165c-1.38233-.34086-2.46583-.98241-2.53662-2.56841a3.33 3.33 0 0 1 .895-2.68261 4.29884 4.29884 0 0 1 2.73779-1.04687 6.04394 6.04394 0 0 1 3.49365.96192l-.99851 2.10156a3.49124 3.49124 0 0 0 -2.30664-.91113c-.59717.02636-1.2212.35449-1.19043 1.043.03271.71485 1.04394.916 1.59716 1.04688 1.61866.38281 2.689.752 2.77491 2.64844a3.178 3.178 0 0 1 -3.2295 3.43945 6.70561 6.70561 0 0 1 -3.10254-.668z"/><path d="m38.7229 99.94526.43945-1.57715-2.76611-.77246.58057-2.07715 2.76562.77246.45457-1.62696-2.915-.81446.57959-2.07715 5.36866 1.5-2.63577 9.43561-5.36865-1.5.58106-2.07715z"/><path d="m25.60376 96.913-2.96924-2.0625a4.90362 4.90362 0 1 1 5.59424-8.05371l2.97022 2.0625zm2.26953-7.73535-.4707-.32617a2.74442 2.74442 0 1 0 -3.15137 4.49218l.49024.3418z"/><ellipse cx="37.51973" cy="39.81317" rx="2.78209" ry="6.20619"/><ellipse cx="66.97992" cy="39.81317" rx="2.78209" ry="6.20619"/><path d="m41.60425 69.373a1.99942 1.99942 0 0 1 -1.792-2.88477c2.02734-4.11035 6.74658-6.7666 12.02295-6.7666 5.27587 0 9.9956 2.65625 12.02343 6.7666a1.99982 1.99982 0 1 1 -3.58691 1.76954c-1.33887-2.71289-4.729-4.53614-8.43652-4.53614s-7.09766 1.82325-8.436 4.53614a1.99944 1.99944 0 0 1 -1.79495 1.11523z"/></svg>