<svg xmlns="http://www.w3.org/2000/svg" viewBox="0 0 31.50046 41.30566"><defs><style>.cls-1{fill:#0743ff;}</style></defs><title>drip</title><g id="Layer_2" data-name="Layer 2"><g id="Layer_1-2" data-name="Layer 1"><path class="cls-1" d="M26.68115,13.56152,17.37646,0,14.07812.001,4.75683,13.59277C.94726,19.51172-3.28565,28.2793,3.90039,36.0332a16.01821,16.01821,0,0,0,11.82812,5.27246H15.729A16.01821,16.01821,0,0,0,27.55712,36.0332C35.78808,27.15234,28.93359,16.92285,26.68115,13.56152ZM24.62353,33.31445a11.90647,11.90647,0,0,1-17.78906,0c-4.14209-4.46972-3.75733-9.71972,1.25342-17.50879L15.728,4.667l7.63574,11.12989C28.43945,23.375,28.82763,28.77734,24.62353,33.31445Z"/></g></g></svg>