<svg xmlns="http://www.w3.org/2000/svg" viewBox="0 0 44.62 44.62"><defs><style>.cls-1{fill:#0743ff;}</style></defs><title>explore</title><g id="Layer_2" data-name="Layer 2"><g id="Layer_1-2" data-name="Layer 1"><path class="cls-1" d="M22.31,0A22.31,22.31,0,1,0,44.62,22.31,22.34,22.34,0,0,0,22.31,0Zm0,40.62A18.31,18.31,0,1,1,40.62,22.31,18.33,18.33,0,0,1,22.31,40.62Z"/><path class="cls-1" d="M28.74,20.4c0-.12-.08-.23-.12-.35s-.07-.19-.11-.29h0l3.22-8.09L28.48,9.5l-6.21,6.1h-.53l-.41.05-.2,0h0a6.67,6.67,0,0,0-5.43,7.78h0l0,.07c0,.12.05.24.08.36s0,.2.08.3.06.19.09.28.08.24.13.36L12.88,33l3.26,2.17L22.36,29a6.68,6.68,0,0,0,1-.09h.09a6.67,6.67,0,0,0,5.43-7.78h0l0-.07c0-.13-.06-.26-.09-.39S28.77,20.49,28.74,20.4Zm-7.26-2.73Zm3.09,3.14c0,.07.08.14.12.22a2.65,2.65,0,0,1,.13.25c0,.07,0,.15.07.22a2.67,2.67,0,0,1,.09.3A2.68,2.68,0,0,1,22.51,25l-.23,0a2.7,2.7,0,0,1-.39,0l-.14,0a2.66,2.66,0,0,1-.36-.11l-.14,0a2.66,2.66,0,0,1-.28-.15l-.19-.1a2.72,2.72,0,0,1-.25-.21l-.15-.13a2.72,2.72,0,0,1-.23-.28l-.1-.13a2.72,2.72,0,0,1-.16-.29c0-.06-.07-.12-.09-.18a2.72,2.72,0,0,1-.08-.27c0-.08-.05-.16-.07-.25a2.68,2.68,0,0,1,2.42-3.2l.27,0,.29,0,.25,0,.22.07.29.1.17.09a2.74,2.74,0,0,1,.29.16l.16.13a2.73,2.73,0,0,1,.24.2c.06.06.1.13.16.19A2.7,2.7,0,0,1,24.57,20.81Zm-6.9,2.32h0Z"/></g></g></svg>