<svg viewBox="0 0 44.62 44.62" xmlns="http://www.w3.org/2000/svg"><g fill="#0743ff"><path d="m22.31 0a22.31 22.31 0 1 0 22.31 22.31 22.34 22.34 0 0 0 -22.31-22.31zm0 40.62a18.31 18.31 0 1 1 18.31-18.31 18.33 18.33 0 0 1 -18.31 18.31z"/><path d="m28.74 20.4c0-.12-.08-.23-.12-.35s-.07-.19-.11-.29l3.22-8.09-3.25-2.17-6.21 6.1h-.53l-.41.05h-.2a6.67 6.67 0 0 0 -5.43 7.78v.07c0 .12.05.24.08.36s0 .2.08.3.06.19.09.28.08.24.13.36l-3.2 8.2 3.26 2.17 6.22-6.17a6.68 6.68 0 0 0 1-.09h.09a6.67 6.67 0 0 0 5.43-7.78v-.07c0-.13-.06-.26-.09-.39s-.02-.18-.05-.27zm-4.17.41c0 .07.08.14.12.22a2.65 2.65 0 0 1 .13.25c0 .07 0 .15.07.22a2.67 2.67 0 0 1 .09.3 2.68 2.68 0 0 1 -2.47 3.2h-.23a2.7 2.7 0 0 1 -.39 0h-.14a2.66 2.66 0 0 1 -.36-.11h-.14a2.66 2.66 0 0 1 -.28-.15l-.19-.1a2.72 2.72 0 0 1 -.25-.21l-.15-.13a2.72 2.72 0 0 1 -.23-.28l-.1-.13a2.72 2.72 0 0 1 -.16-.29c0-.06-.07-.12-.09-.18a2.72 2.72 0 0 1 -.08-.27c0-.08-.05-.16-.07-.25a2.68 2.68 0 0 1 2.42-3.2h.27.29.25l.22.07.29.1.17.09a2.74 2.74 0 0 1 .29.16l.16.13a2.73 2.73 0 0 1 .24.2c.06.06.1.13.16.19a2.7 2.7 0 0 1 .16.17z"/></g></svg>