<svg viewBox="0 0 59.02 88.7" xmlns="http://www.w3.org/2000/svg"><g fill="#0743ff"><path d="m25.28 7.17a3.59 3.59 0 1 0 -3.59-3.58 3.59 3.59 0 0 0 3.59 3.58z"/><path d="m48.56 29.1h-21.28v-4.46h21.28l2-2a13.52 13.52 0 0 0 -13.51-13.5h-23.54a13.52 13.52 0 0 0 -13.51 13.5l2 2h21.28v4.46h-21.28l-2 2v50.1a7.52 7.52 0 0 0 7.5 7.5h35.56a7.51 7.51 0 0 0 7.5-7.5v-28.2l5.44-5.57a10.42 10.42 0 0 0 3-7.43v-.47a10.48 10.48 0 0 0 -10.44-10.43zm-44.35-8.46a9.52 9.52 0 0 1 9.3-7.5h23.54a9.52 9.52 0 0 1 9.3 7.5zm42.35 60.56a3.5 3.5 0 0 1 -3.5 3.5h-35.56a3.5 3.5 0 0 1 -3.5-3.5v-48.1h19.28v43.16h-15.12v4h34.24v-4h-15.12v-43.16h19.28zm8.44-41.2a6.5 6.5 0 0 1 -1.92 4.59l-2.54 2.64v-13.81a6.47 6.47 0 0 1 4.46 6.14z"/></g></svg>