<svg xmlns="http://www.w3.org/2000/svg" viewBox="0 0 59.02 88.7"><defs><style>.cls-1{fill:#0743ff;}</style></defs><title>12cup-fp</title><g id="Layer_2" data-name="Layer 2"><g id="Layer_1-2" data-name="Layer 1"><path class="cls-1" d="M25.28,7.17a3.59,3.59,0,1,0-3.59-3.58A3.59,3.59,0,0,0,25.28,7.17Z"/><path class="cls-1" d="M48.56,29.1H27.28V24.64H48.56l2-2A13.52,13.52,0,0,0,37.05,9.14H13.51A13.52,13.52,0,0,0,0,22.64l2,2H23.28V29.1H2l-2,2V81.2a7.52,7.52,0,0,0,7.5,7.5H43.06a7.51,7.51,0,0,0,7.5-7.5V53L56,47.43A10.42,10.42,0,0,0,59,40v-.47A10.48,10.48,0,0,0,48.56,29.1ZM4.21,20.64a9.52,9.52,0,0,1,9.3-7.5H37.05a9.52,9.52,0,0,1,9.3,7.5ZM46.56,81.2a3.5,3.5,0,0,1-3.5,3.5H7.5A3.5,3.5,0,0,1,4,81.2V33.1H23.28V76.26H8.16v4H42.4v-4H27.28V33.1H46.56ZM55,40a6.5,6.5,0,0,1-1.92,4.59l-2.54,2.64V33.42A6.47,6.47,0,0,1,55,39.56Z"/></g></g></svg>