<svg viewBox="0 0 47.02 63.7" xmlns="http://www.w3.org/2000/svg"><g fill="#0743ff"><path d="m19.28 7.17a3.59 3.59 0 1 0 -3.59-3.58 3.59 3.59 0 0 0 3.59 3.58z"/><path d="m36.56 29.1h-15.28v-4.46h15.28l2-2a13.52 13.52 0 0 0 -13.51-13.5h-11.54a13.52 13.52 0 0 0 -13.51 13.5l2 2h15.28v4.46h-15.28l-2 2v25.1a7.52 7.52 0 0 0 7.5 7.5h23.56a7.52 7.52 0 0 0 7.5-7.5v-3.2l5.44-5.57a10.58 10.58 0 0 0 3-7.43v-.47a10.48 10.48 0 0 0 -10.44-10.43zm-32.35-8.46a9.52 9.52 0 0 1 9.3-7.5h11.54a9.52 9.52 0 0 1 9.3 7.5zm30.35 35.56a3.5 3.5 0 0 1 -3.5 3.5h-23.56a3.5 3.5 0 0 1 -3.5-3.5v-23.1h13.28v18.16h-9.12v4h22.24v-4h-9.12v-18.16h13.28zm8.44-16.2a6.5 6.5 0 0 1 -1.92 4.59l-2.54 2.64v-13.81a6.47 6.47 0 0 1 4.46 6.14z"/></g></svg>