<svg viewBox="0 0 190.7475 70.10369" xmlns="http://www.w3.org/2000/svg"><g fill="#0032ff"><path d="m105.8648 63.82293a3.67811 3.67811 0 0 0 -.47564-.03125 3.53416 3.53416 0 0 0 -.65973.062 4.23666 4.23666 0 0 0 -2.36133 1.42139 3.6578 3.6578 0 0 0 -.902 2.33227 2.275 2.275 0 0 0 .95648 2.00391 2.88865 2.88865 0 0 0 1.646.49243 3.50029 3.50029 0 0 0 .64123-.06079 4.82944 4.82944 0 0 0 1.21369-.44141.3.3 0 0 0 .17138-.26928l.0044-.7356a.3.3 0 0 0 -.46362-.25317 2.38969 2.38969 0 0 1 -.84693.34936 2.23468 2.23468 0 0 1 -.41.0398 1.40224 1.40224 0 0 1 -1.02136-.38623 1.4631 1.4631 0 0 1 -.39374-1.06714 2.15954 2.15954 0 0 1 1.78064-2.09449 2.11626 2.11626 0 0 1 .39313-.03735 1.77057 1.77057 0 0 1 .5849.09448.29994.29994 0 0 0 .39886-.28149l.005-.83814a.30009.30009 0 0 0 -.26136-.2993z"/><path d="m112.77233 66.35442-.18609-.19385a.09906.09906 0 0 1 -.0249-.09326.10118.10118 0 0 1 .06591-.071 1.92418 1.92418 0 0 0 1.3628-1.83618 1.42211 1.42211 0 0 0 -.36756-1.04737 1.68374 1.68374 0 0 0 -1.19159-.40356 3.56917 3.56917 0 0 0 -.58191.05127c-.8927.14844-1.39013.23266-2.18835.37036a.3.3 0 0 0 -.249.29394l-.01447 2.60059-.01477 2.65234a.30006.30006 0 0 0 .3512.29737l.88867-.15259a.2998.2998 0 0 0 .24976-.29443l.00524-1.20191.00354-.80176a.10029.10029 0 0 1 .08283-.09814h.00757a.135.135 0 0 1 .106.03442l.11707.15088c.52032.67114.82831 1.06836 1.33051 1.72949a.29838.29838 0 0 0 .28778.11451l1.13867-.18628a.3.3 0 0 0 .17016-.502c-.46613-.49389-.82618-.86865-1.34907-1.41284zm-.34631-1.80981c-.00067.20581-.00275.83227-1.26044 1.04443l-.08123.01367-.08222.01416-.01672.00122a.09984.09984 0 0 1 -.1-.10034l.00134-.29272.00538-1.21118a.1.1 0 0 1 .08367-.09815l.0755-.01269.08857-.01514a2.92479 2.92479 0 0 1 .47607-.0459.86567.86567 0 0 1 .63312.20459.66557.66557 0 0 1 .17694.49805z"/><path d="m122.0462 63.85515c-.307-.69335-.62067-1.40185-1.01007-2.30468a.30035.30035 0 0 0 -.31928-.178l-1.30853.19531a.3.3 0 0 0 -.2356.1897c-.46972 1.231-.82934 2.1477-1.19433 3.07812-.30518.77832-.60523 1.543-.97077 2.49317a.29989.29989 0 0 0 .28.40771.29442.29442 0 0 0 .04608-.00366l.8985-.13867a.30021.30021 0 0 0 .23377-.187l.36328-.9187a.10044.10044 0 0 1 .07812-.06226c.93647-.14258 1.40424-.21289 2.33655-.35156h.00372a.10355.10355 0 0 1 .10279.05957l.30853.718a.30033.30033 0 0 0 .27588.18238.29389.29389 0 0 0 .0437-.00318l.97785-.14306a.30011.30011 0 0 0 .23278-.4148c-.44137-1.03342-.78659-1.81345-1.14297-2.61839zm-1.85944-.65405.36835.94849.33234.85547a.09884.09884 0 0 1 -.00672.08593.10067.10067 0 0 1 -.07226.04908l-1.40815.21142-.01538.001a.09958.09958 0 0 1 -.07672-.03565.10081.10081 0 0 1 -.01782-.09668l.28534-.83056.40576-1.18213a.09934.09934 0 0 1 .08069-.06665h.004a.12582.12582 0 0 1 .12057.06028z"/><path d="m129.27575 60.15789a.26384.26384 0 0 0 -.03656.00268c-1.06219.14576-1.75805.24219-2.86072.39722a.3.3 0 0 0 -.25817.29859l.01324 2.52661.014 2.70434a.29986.29986 0 0 0 .34167.29566l.85315-.11963a.3.3 0 0 0 .25836-.2981l-.00586-1.82837-.00073-.20874a.10048.10048 0 0 1 .08649-.09936l.47009-.06568.984-.13647a.30008.30008 0 0 0 .25958-.29736l.00012-.50928a.29987.29987 0 0 0 -.3-.3.28483.28483 0 0 0 -.04059.00293l-.9198.12744-.43048.06006h-.00464a.10589.10589 0 0 1 -.07477-.02368.1.1 0 0 1 -.03436-.0752l-.00147-.45654-.00177-.54468a.10038.10038 0 0 1 .08631-.09936l.19848-.02759 1.44928-.2a.30005.30005 0 0 0 .259-.29688l.0004-.5185a.30893.30893 0 0 0 -.3042-.31006z"/><path d="m136.00244 59.25286a.3462.3462 0 0 0 -.03876.00244c-1.31268.17114-2.139.2815-3.49555.46484a.3.3 0 0 0 -.25976.29566l-.00287.53393a.30011.30011 0 0 0 .3.30176.30541.30541 0 0 0 .03937-.00268l.8869-.11743h.0047a.10426.10426 0 0 1 .07416.02417.09938.09938 0 0 1 .034.07543l-.01752 3.18873-.00543 1.073a.29981.29981 0 0 0 .3.30152.27825.27825 0 0 0 .03748-.00244l.81524-.10206a.29992.29992 0 0 0 .26306-.29614l.00629-1.2124c.00519-1.021.00946-1.85815.01856-3.16211a.10031.10031 0 0 1 .08728-.09863l.98663-.12622a.3001.3001 0 0 0 .262-.29517l.00427-.5437a.30011.30011 0 0 0 -.3-.30249z"/><path d="m147.90148 62.50408a.2999.2999 0 0 0 -.2998.0022 2.0473 2.0473 0 0 1 -.83154.27612c-.07123.00684-.14063.01-.2085.01a1.52061 1.52061 0 0 1 -1.58667-1.616 1.96094 1.96094 0 0 1 1.73236-1.99243 1.993 1.993 0 0 1 .20093-.01025 1.76773 1.76773 0 0 1 .70178.14038.3.3 0 0 0 .41828-.27637l-.00049-.86767a.3.3 0 0 0 -.22974-.29224 3.31168 3.31168 0 0 0 -.78271-.09595 3.2268 3.2268 0 0 0 -.34339.01856 3.6514 3.6514 0 0 0 -2.28619 1.24292 3.51245 3.51245 0 0 0 -.88184 2.30078 2.58425 2.58425 0 0 0 .96265 2.13476 3.09545 3.09545 0 0 0 1.94171.66626c.10577 0 .21265-.00537.31989-.01562a4.09422 4.09422 0 0 0 1.1405-.31006.29992.29992 0 0 0 .1911-.282l-.00635-.7749a.30005.30005 0 0 0 -.15198-.25849z"/><path d="m154.55334 57.02019q-.14292 0-.287.012a3.61376 3.61376 0 0 0 -3.36731 3.46191 2.89065 2.89065 0 0 0 3.045 3.02881q.163 0 .33178-.01343a3.513 3.513 0 0 0 3.3769-3.5686 2.94785 2.94785 0 0 0 -3.09937-2.92069zm1.58417 3.05689a2.04138 2.04138 0 0 1 -1.85751 2.09277c-.05059.00391-.10015.00586-.14923.00586a1.75223 1.75223 0 0 1 -1.74371-1.81787 2.01827 2.01827 0 0 1 1.8573-1.91309c.051-.00439.101-.0061.15045-.0061a1.69845 1.69845 0 0 1 1.7427 1.63843z"/><path d="m163.873 56.58538-.01684.00049c-1.09339.06152-1.79609.10376-2.89893.17456a.2999.2999 0 0 0 -.28082.29468c-.02228 1.44873-.02216 2.469-.022 3.63647.00012.56592.00018 1.15625-.00245 1.83374a.30017.30017 0 0 0 .3.30127l.01965-.00073.86841-.05542a.29991.29991 0 0 0 .28131-.29761c.0033-.57959.00379-1.001.0044-1.57812l.00055-.469a.10031.10031 0 0 1 .09369-.09961l1.4649-.0896a.30019.30019 0 0 0 .28211-.29907l.00091-.5437a.29422.29422 0 0 0 .00257-.03906.29784.29784 0 0 0 -.29749-.3h-.005l-.00848.00024h-.00049l-.01172.00049-1.41143.08618h-.00055a.10374.10374 0 0 1 -.07465-.02734.10009.10009 0 0 1 -.03113-.07276l.00641-1.06054a.10021.10021 0 0 1 .09375-.09815c.67554-.0415 1.06976-.06543 1.65357-.09912a.3.3 0 0 0 .28271-.29687l.007-.59693a.30009.30009 0 0 0 -.3-.30444z"/><path d="m170.588 56.25677h-.005l-.00793.00024h-.00574c-1.10077.04517-1.8078.07715-2.91876.13086a.3.3 0 0 0 -.28552.29565c-.01673 1.27027-.01337 2.22217-.00983 3.22461.0025.68775.005 1.3938.001 2.23413a.30031.30031 0 0 0 .3.30152l.01508-.00049.89191-.0437a.29987.29987 0 0 0 .28564-.29834c.00287-.6416.001-1.08936-.00171-1.76563l-.00116-.28076a.10029.10029 0 0 1 .09552-.10058c.60175-.02881.9596-.04541 1.46991-.06788a.30014.30014 0 0 0 .28681-.30151l-.0033-.58008a.30019.30019 0 0 0 -.3-.29834l-.01324.00025c-.49274.02173-.84729.03833-1.43573.0664a.10441.10441 0 0 1 -.07385-.02783.10021.10021 0 0 1 -.03089-.072c-.00091-.4209-.0011-.63184.00006-1.05444a.10026.10026 0 0 1 .09546-.09961c.67737-.03125 1.07361-.04908 1.65619-.07422a.30005.30005 0 0 0 .287-.29907l.00287-.54908a.30008.30008 0 0 0 -.2948-.34008z"/><path d="m177.50891 60.98528a.30011.30011 0 0 0 -.20826-.084l-.009.00024c-.55218.0166-.93884.02905-1.59167.05078h-.00031a.10192.10192 0 0 1 -.07239-.02783.10055.10055 0 0 1 -.03064-.07129l-.01062-1.072a.09949.09949 0 0 1 .09662-.10156c.617-.021.98322-.03272 1.50434-.04859a.3.3 0 0 0 .29089-.30371l-.0022-.17285-.00512-.40381a.30018.30018 0 0 0 -.3-.29614l-.00885.00024c-.51313.01514-.87793.02686-1.48828.04712a.10244.10244 0 0 1 -.07227-.02783.099.099 0 0 1 -.031-.07129c-.00433-.41894-.00634-.6289-.00848-1.04834a.09951.09951 0 0 1 .0968-.10058c.65821-.02149 1.04535-.03345 1.60657-.04956a.29982.29982 0 0 0 .29138-.301l-.0003-.53809a.29974.29974 0 0 0 -.295-.33837h-.01141l-.0025.00024c-1.0846.02954-1.78321.05078-2.87818.08789a.29989.29989 0 0 0 -.28979.29785c-.0072 1.157.00348 2.04175.01477 2.97315.00928.76684.01862 1.53393.01776 2.469a.30007.30007 0 0 0 .3.30029l.01074-.00024c1.09393-.03931 1.79559-.062 2.88861-.09375a.29989.29989 0 0 0 .29126-.29956l-.00171-.56226a.30011.30011 0 0 0 -.09176-.21415z"/><path d="m184.00463 60.74773h-.01135c-.53564.0083-.91431.0149-1.55188.02686a.10036.10036 0 0 1 -.0719-.02857.09884.09884 0 0 1 -.03-.071c-.00219-.42847-.00451-.64307-.00915-1.07324a.10034.10034 0 0 1 .098-.10108c.60242-.01172.96143-.01806 1.46631-.02612a.30015.30015 0 0 0 .29529-.30249l-.00232-.26074-.00244-.31446a.30027.30027 0 0 0 -.3-.2976h-.00476l-1.46363.02588a.1.1 0 0 1 -.102-.09913c-.00427-.41748-.00635-.6267-.0083-1.04345a.10015.10015 0 0 1 .0979-.10034c.64734-.012 1.0293-.01856 1.57788-.02686a.3001.3001 0 0 0 .29554-.2998c.00012-.19776.00085-.36988.0028-.56543a.29988.29988 0 0 0 -.3-.303h-.00415c-1.06994.01465-1.76147.02636-2.8435.04809a.30036.30036 0 0 0 -.29407.29859c-.005 1.08349.0083 1.95092.02136 2.79223.01221.79932.0249 1.62232.0221 2.63721a.30025.30025 0 0 0 .3.30078h.00647c1.06945-.02295 1.75476-.03491 2.81213-.04956a.30024.30024 0 0 0 .29578-.29712l.0028-.52954a.28664.28664 0 0 0 .00269-.04.29788.29788 0 0 0 -.2976-.30011z"/><path d="m26.71867 5.30926a8.15142 8.15142 0 0 0 -1.09033.07617c-5.07568.68359-12.61572 5.86621-17.166 11.7998-3.43359 4.47657-4.70947 7.752-4.13574 10.6211.5791 2.89257 2.95557 5.30371 8.20313 8.31933 7.269 4.17774 9.16211 7.998 6.53271 13.1836-1.43654 2.83007-5.00393 4.82421-9.78664 5.46974a9.12315 9.12315 0 0 1 -1.20361.081 6.90438 6.90438 0 0 1 -5.87452-2.81055 4.06912 4.06912 0 0 1 -.13767-4.46676 12.28992 12.28992 0 0 1 6.78418-5.09961.09977.09977 0 0 0 .06494-.124l-.36475-1.19629a.10107.10107 0 0 0 -.04937-.05959.09657.09657 0 0 0 -.07715-.00586 13.49808 13.49808 0 0 0 -7.605 5.74512 5.47616 5.47616 0 0 0 .17535 6.00781 8.34453 8.34453 0 0 0 7.08789 3.46 10.19477 10.19477 0 0 0 1.39307-.09472c5.26367-.709 9.23144-2.98829 10.88623-6.252 3.03076-5.97656.90625-10.49121-7.103-15.0957-4.84228-2.78223-7.01611-4.91113-7.50342-7.34668-.47851-2.38867.74952-5.39355 3.86475-9.45508 4.78708-6.24121 12.1406-10.69629 16.20798-11.24509a6.78047 6.78047 0 0 1 .894-.06347 3.8189 3.8189 0 0 1 3.19922 1.46c1.54248 1.99609 1.54 5.7207-.00586 9.48828-2.11377 5.14844-6.30469 8.61621-11.21045 9.2793a10.81424 10.81424 0 0 1 -1.43017.10742 3.481 3.481 0 0 1 -3.41163-1.74707.101.101 0 0 0 -.13378-.03613l-1.09375.60546a.10055.10055 0 0 0 -.0376.13965 4.949 4.949 0 0 0 4.72461 2.48145 11.62413 11.62413 0 0 0 1.57617-.11524c5.42578-.73046 10.04541-4.53125 12.35693-10.16406 1.74024-4.23828 1.66651-8.52637-.187-10.92578a5.24265 5.24265 0 0 0 -4.34372-2.02155z"/><path d="m27.40764 52.17547a1.30455 1.30455 0 0 0 1.07666-.56641 1.35481 1.35481 0 0 0 .17041-1.09473 1.51515 1.51515 0 0 0 -1.40771-1.12011 1.18074 1.18074 0 0 0 -.1958.01465 1.26982 1.26982 0 0 0 -.90088.55371 1.34416 1.34416 0 0 0 -.17187 1.09375 1.52755 1.52755 0 0 0 1.42919 1.11914z"/><path d="m98.14494 55.59539a389.84161 389.84161 0 0 1 86.14355-9.89453.09951.09951 0 0 0 .1001-.09961v-1.25a.09984.09984 0 0 0 -.02929-.07031.09777.09777 0 0 0 -.07081-.0293 389.42514 389.42514 0 0 0 -84.81494 9.49219.642.642 0 0 1 -.61963-.18946.65312.65312 0 0 1 -.14892-.62988 115.744 115.744 0 0 0 2.61377-11.32617.65466.65466 0 0 1 .415-.49317.66874.66874 0 0 1 .63476.10547 3.46365 3.46365 0 0 0 2.248.75782 4.59728 4.59728 0 0 0 .65186-.0459 9.36443 9.36443 0 0 0 6.209-3.85742.65688.65688 0 0 1 .67969-.22071.6485.6485 0 0 1 .47168.53516 3.59 3.59 0 0 0 .66357 1.75 2.15113 2.15113 0 0 0 1.72119.82324 2.499 2.499 0 0 0 .36182-.02539c1.17676-.1582 2.53906-1.0791 3.93945-2.66211a.64692.64692 0 0 1 .55713-.21582 4.07286 4.07286 0 0 0 .98047-.01562c6.00391-.80957 10.1001-9.70118 13.31494-18.292a.6562.6562 0 0 1 .42383-.3955.66586.66586 0 0 1 .5708.10058 3.77321 3.77321 0 0 1 1.34912 1.59863 3.27126 3.27126 0 0 1 -.30322 2.69141c-3.30176 6.73047-4.25733 11.14063-2.83936 13.10742a2.34053 2.34053 0 0 0 1.977.99414 2.869 2.869 0 0 0 .395-.02734c3.19092-.43066 5.626-4.03125 8.52-9.70215.332-.65039.6543-1.28906.96729-1.90918l.022-.04394c1.54736-3.06739 3.27881-6.42188 4.24707-7.40528a.66519.66519 0 0 1 .73486-.13379.65247.65247 0 0 1 .376.64551c-.14892 1.748-1.97021 6.63867-5.2666 14.14551-.27441.626-.53125 1.206-.75977 1.72266l-.07422.16894a.10018.10018 0 0 0 .05079.13184l1.14209.50586a.121.121 0 0 0 .07666.002.10244.10244 0 0 0 .05517-.05371c.27588-.623.5376-1.21778.791-1.7959.55713-1.083 1.07568-2.09668 1.56592-3.05566l.0625-.12207c4.46875-8.73536 6.50781-12.72266 9.55517-13.36426a.66573.66573 0 0 1 .55713.14355.65438.65438 0 0 1 .22607.52832c-.07031 1.26465-1.293 4.31543-3.63476 9.07031-1.67529 3.4043-2.124 5.93946-1.26221 7.1377a1.77249 1.77249 0 0 0 1.51465.7334 2.44669 2.44669 0 0 0 .36182-.02539c1.65869-.22363 3.52588-1.6377 5.55029-4.20313a.65013.65013 0 0 1 1.16016.38672 3.08329 3.08329 0 0 0 .5 1.78711 2.09518 2.09518 0 0 0 2.13281.76856c1.77685-.23926 3.68408-1.667 5.66748-4.24219a.64974.64974 0 0 1 1.15527.28613 4.011 4.011 0 0 0 .64844 1.66895 2.256 2.256 0 0 0 1.88672 1.002 2.301 2.301 0 0 0 .3291-.02246c1.44482-.19434 2.90527-1.252 4.46436-3.23145a.66814.66814 0 0 1 .6538-.23242.6536.6536 0 0 1 .49073.49121 2.76136 2.76136 0 0 0 .44189 1.02832 2.08574 2.08574 0 0 0 1.75537.86719 2.49271 2.49271 0 0 0 .35791-.02441c2.3169-.31153 4.77588-3.26465 7.97315-9.57618a.1005.1005 0 0 0 .00586-.07617.09776.09776 0 0 0 -.0503-.05761l-1.1167-.56153a.09555.09555 0 0 0 -.13427.044c-2.83936 5.60058-5.15137 8.55859-6.87061 8.791a.98218.98218 0 0 1 -.436-.02539.6556.6556 0 0 1 -.38037-.33008c-.29737-.57617-.7085-2.52343 1.8833-8.13867.144-.30469.28515-.61523.41845-.92187l3.23828-7.20215a.09965.09965 0 0 0 -.05029-.13184l-1.13965-.51269a.1091.1091 0 0 0 -.07666-.00293.1.1 0 0 0 -.05566.05273l-.09619.21485a.65118.65118 0 0 1 -.47657.373.66253.66253 0 0 1 -.57568-.17968 2.26641 2.26641 0 0 0 -2.00049-.542c-4.05859.5459-7.83838 6.15332-9.27148 9.0459-1.5625 3.50293-5.41895 10.25-8.834 10.71094a1.83717 1.83717 0 0 1 -.24707.01758l-.05761-.001a.64761.64761 0 0 1 -.564-.38086c-.42871-.94629-.16308-3.77051 3.5376-11.85254.20215-.42969.39209-.84179.56787-1.23047l.1167-.248.0083-.02442a.30759.30759 0 0 1 .01465-.03808c.30664-.6836.606-1.37207.89062-2.0459a.10282.10282 0 0 0 .00049-.07715.09905.09905 0 0 0 -.0542-.05371l-1.15381-.48242a.1001.1001 0 0 0 -.13085.05371c-.313.74414-.64063 1.49219-1.02979 2.35449-.2627.55859-.51025 1.09375-.74609 1.61328-3.83838 8.07813-7.72559 13.17774-10.39991 13.64063a.63778.63778 0 0 1 -.50146-.1211.65165.65165 0 0 1 -.2544-.44922c-.043-.39453-.05664-1.9375 1.55323-5.207 3.01172-6.11621 4.439-9.71582 3.35693-11.22168a1.60187 1.60187 0 0 0 -1.37695-.64746 2.59137 2.59137 0 0 0 -.34424.02344c-1.77.23926-3.18652 1.20215-4.73682 3.2207a.65039.65039 0 0 1 -1.16552-.39062 2.27872 2.27872 0 0 0 -.35987-1.33789 1.6226 1.6226 0 0 0 -1.37988-.64942c-.08008 0-.16357.00391-.25147.01172-1.73291.165-3.17968 2.8877-6.02929 8.53613-.34082.67579-.67139 1.33106-1.01123 1.99707-2.60791 5.1084-4.86817 8.58106-7.42285 8.92579a1.50218 1.50218 0 0 1 -.20118.01464.942.942 0 0 1 -.7998-.38964c-.48926-.68067-1.17969-3.17676 2.96387-11.624a4.69406 4.69406 0 0 0 .35351-3.85547 5.59575 5.59575 0 0 0 -2.45263-2.66113.65342.65342 0 0 1 -.27051-.77246q.26074-.72363.51709-1.45313a.10042.10042 0 0 0 -.061-.12792l-1.1792-.415a.10039.10039 0 0 0 -.12744.06152l-.4082 1.1543a.64884.64884 0 0 1 -.85694.38476l-.11474-.0459a.09525.09525 0 0 0 -.07666.001.10012.10012 0 0 0 -.05371.05566l-.45606 1.16407a.09978.09978 0 0 0 .05567.1289l.20459.083a.65027.65027 0 0 1 .35986.82617c-2.31006 6.25782-5.91357 14.84278-10.5166 17.13574a.661.661 0 0 1 -.7666-.1416.6508.6508 0 0 1 -.08008-.77441 30.21326 30.21326 0 0 0 2.292-4.749c1.66211-4.3545 1.94238-8.00782.73193-9.53614a2.08639 2.08639 0 0 0 -1.99511-.77539c-1.53711.20606-3.16309 1.48633-4.57764 3.60352a15.78484 15.78484 0 0 0 -2.4834 6.39453.64927.64927 0 0 1 -.89062.51367l-.34766-.1416a.09632.09632 0 0 0 -.07715.001.10019.10019 0 0 0 -.05371.05566l-.11963.30176c-3.17187 6.69043-5.52295 9.22754-8.98388 9.69531a2.21725 2.21725 0 0 1 -1.96387-.55859c-.76221-.78516-1.0293-2.40918-.75244-4.57227l.04883-.32715a.65187.65187 0 0 1 .09472-.25683c1.68408-2.62891 3.47852-5.70606 5.37842-8.96387l.18018-.31055c1.07714-1.84472 2.19043-3.752 3.33837-5.66894 5.31934-8.8877 8.29786-17.15821 6.92774-19.23633a1.26048 1.26048 0 0 0 -1.26758-.57715c-1.87158.25293-3.86523 4.72559-7.96777 14.87207-.46631 1.15234-.92481 2.28613-1.36768 3.36328-3.13086 7.60645-5.01269 12.165-6.60888 15.97559a.61763.61763 0 0 1 -.05323.10058c-3.27484 5.0769-5.5126 7.44505-7.25284 7.67942-.0166.002-.07226.00781-.08984.00879a.63725.63725 0 0 1 -.63135-.376c-.36133-.7832-.771-3.47753 3.2124-11.54589.53662-1.11036 1.06836-2.22559 1.61426-3.3711l.14551-.30469a.09932.09932 0 0 0 -.04736-.13281l-1.12842-.53906a.11321.11321 0 0 0 -.07617-.00488.10108.10108 0 0 0 -.05713.05175l-.18994.39844q-.79908 1.67579-1.56055 3.25879l-.02588.05274c-3.50146 7.22851-6.73389 13.25585-10.83643 13.80859a1.52292 1.52292 0 0 1 -1.47363-.66016c-.93017-1.21484-1.33691-4.25.583-8.82129a.27261.27261 0 0 1 .03076-.08593c2.44677-5.21381 5.23877-12.05369 8.12355-19.19139l.06543-.16211c1.56543-3.87207 3.18359-7.875 4.84472-11.83887a.09942.09942 0 0 0 -.05371-.13086l-1.15234-.48437a.09037.09037 0 0 0 -.07617-.001.10155.10155 0 0 0 -.05469.05371c-1.6792 4.00684-3.30371 8.02735-4.87451 11.915l-.04248.10449c-7.35938 18.211-12.47071 30.18759-16.31103 30.70612a.80121.80121 0 0 1 -.57617-.09277.649.649 0 0 1 -.23633-.25977c-.30029-.57324-.71826-2.5166 1.88379-8.15039q.197-.416.41113-.90527l3.2417-7.21094a.09965.09965 0 0 0 -.05029-.13184l-1.13965-.51269a.11449.11449 0 0 0 -.07666-.00293.10155.10155 0 0 0 -.05566.05273l-.09619.21387a.65074.65074 0 0 1 -.47461.373.65755.65755 0 0 1 -.57764-.17969 2.07608 2.07608 0 0 0 -1.52832-.5752 3.248 3.248 0 0 0 -.47168.03418c-4.05908.54688-7.83887 6.1543-9.27051 9.043-.21435.43262-.39258.84278-.53857 1.1875a.828.828 0 0 1 -.06983.12793c-.05176.11328-5.54931 11.44043-18.55176 13.19434a9.12429 9.12429 0 0 1 -1.20556.08105 9.35219 9.35219 0 0 1 -8.07471-4.86621c-4.1914-7.23633-.75732-19.28613 9.18555-32.23144 4.79491-6.24217 12.14745-10.69823 16.20946-11.24705a8.42587 8.42587 0 0 1 1.103-.07911c2.0249 0 3.18066.959 3.43457 2.84864.40283 2.98242-1.35693 7.47656-4.4834 11.44922-3.48535 4.42773-7.90088 7.29394-12.11328 7.86328a10.97266 10.97266 0 0 1 -1.42188.10547 3.49016 3.49016 0 0 1 -3.41992-1.7461.10154.10154 0 0 0 -.13379-.03613l-1.09375.60547a.10053.10053 0 0 0 -.03759.13965 4.955 4.955 0 0 0 4.73245 2.48047 11.91515 11.91515 0 0 0 1.56836-.11329c4.61572-.62207 9.39257-3.71875 13.10547-8.49414 3.31982-4.2705 5.17871-9.15625 4.73486-12.44824-.35645-2.64355-2.103-4.09863-4.917-4.09863a9.42435 9.42435 0 0 0 -1.25244.08789c-5.06884.68361-12.60839 5.86621-17.16455 11.7998-14.86669 19.3545-11.4497 30.11328-9.29052 33.84081a10.76966 10.76966 0 0 0 9.30761 5.59082 10.63418 10.63418 0 0 0 1.42041-.0957 25.7613 25.7613 0 0 0 15.95655-8.64452.65862.65862 0 0 1 .6914-.18652.64868.64868 0 0 1 .44336.56152 4.351 4.351 0 0 0 .70606 2.18457 2.25752 2.25752 0 0 0 1.88769 1.00293 2.29436 2.29436 0 0 0 .32862-.02246c1.44384-.19336 2.9038-1.251 4.46386-3.2334a.66459.66459 0 0 1 .65381-.23144.65356.65356 0 0 1 .49072.49121 2.75846 2.75846 0 0 0 .44141 1.02832 2.08926 2.08926 0 0 0 1.75684.86816 2.46241 2.46241 0 0 0 .35644-.02441c1.65869-.22364 3.44678-1.89063 5.4668-5.09668a.64968.64968 0 0 1 1.18994.23242 5.13121 5.13121 0 0 0 .9165 2.24609 2.98057 2.98057 0 0 0 2.8159 1.21582c2.082-.27929 3.97412-1.59082 5.95459-4.126a.654.654 0 0 1 .69531-.22364.64685.64685 0 0 1 .46387.56348 3.36523 3.36523 0 0 0 .54639 1.666 1.97012 1.97012 0 0 0 1.66357.83886 2.57289 2.57289 0 0 0 .34912-.02343 5.04688 5.04688 0 0 0 2.29055-1.039.666.666 0 0 1 .79248.01758.65055.65055 0 0 1 .188.76953c-1.24072 2.81055-2.43262 5.41992-3.53564 7.82129a31.31564 31.31564 0 0 0 -1.58643 4.15234.65385.65385 0 0 1 -.46484.44727 316.41758 316.41758 0 0 0 -32.17969 9.87109.1.1 0 0 0 -.05908.12891l.43408 1.17188a.1.1 0 0 0 .09375.06445.10542.10542 0 0 0 .03467-.00586 308.59713 308.59713 0 0 1 30.7412-9.44826.65.65 0 0 1 .80761.68359 4.09 4.09 0 0 0 .49659 2.751 1.72509 1.72509 0 0 0 1.68945.69726c.89648-.12109 2.30713-1.17773 3.938-5.52539a.64678.64678 0 0 1 .46239-.40529zm-2.50684 1.6543a7.65529 7.65529 0 0 1 -1.55468 2.56347.66522.66522 0 0 1 -.63672.125.65426.65426 0 0 1 -.42725-.48926 6.115 6.115 0 0 1 .10352-2.25683.655.655 0 0 1 .48144-.51074l1.28076-.32133a.635.635 0 0 1 .15674-.01953.64967.64967 0 0 1 .59619.90918zm-1.44384-2.62207a.64911.64911 0 0 1 -.12305-.66114c.28174-.75.61328-1.54.98437-2.34863 1.09034-2.375 1.86768-4.085 2.59913-5.71875a.65128.65128 0 0 1 .59326-.38477.67722.67722 0 0 1 .20508.03321.64777.64777 0 0 1 .42919.75879c-.65424 2.93652-1.34424 5.53222-2.05024 7.71386a.65129.65129 0 0 1 -.46728.43164c-.49805.11914-.99414.24219-1.49024.36524l-.03857.00976a.67763.67763 0 0 1 -.64165-.19921zm20.36718-20.7793a.65756.65756 0 0 1 .627-.47754.64588.64588 0 0 1 .62109.459 7.19076 7.19076 0 0 0 1.81543 3.15332.65057.65057 0 0 1 .20557.46289.65759.65759 0 0 1 -.18848.47071 4.84936 4.84936 0 0 1 -2.46094 1.57519 1.37456 1.37456 0 0 1 -.17627.0127 1.02013 1.02013 0 0 1 -.23242-.03125.64161.64161 0 0 1 -.32471-.2207c-.62797-.79299-.58402-2.86331.11373-5.40432zm4.67481-9.376c1.14551-1.71484 2.47851-2.82617 3.56592-2.97363a1.12952 1.12952 0 0 1 .14843-.01074.64766.64766 0 0 1 .50831.24511c.85986 1.07813.47265 4.41895-.94092 8.124a27.17751 27.17751 0 0 1 -3.05957 5.84863.64872.64872 0 0 1 -.48291.27637.673.673 0 0 1 -.522-.20117 6.60705 6.60705 0 0 1 -1.36523-2.752c-.60545-2.28799.25783-5.72647 2.14797-8.55655zm63.39258-4.21875-.03028.06641c-.17138.38574-.35058.76758-.53271 1.13281-4.13867 8.30664-6.354 9.502-7.65918 9.67774a1.08894 1.08894 0 0 1 -.14356.01074.8478.8478 0 0 1 -.70166-.39942c-.813-1.13183-.75732-4.23144 1.28565-8.36035 1.83008-3.69531 5.168-7.85742 8.1709-8.26367a1.72913 1.72913 0 0 1 .38867-.01563.64679.64679 0 0 1 .55322.40821c.33985.85451-.19531 3.1631-1.33105 5.74318zm-73.01172-2.80078v-.001l.81933-2.02148a133.349 133.349 0 0 1 5.42969-12.28516.64973.64973 0 0 1 1.20166.44922c-.33154 1.66114-1.60791 6.39258-6.28711 14.42969a.66587.66587 0 0 1 -.84863.25684.65146.65146 0 0 1 -.31494-.82809zm-35.814 17.49024-.02343.05273c-.17676.39844-.35743.78223-.53663 1.1416-4.1416 8.30567-6.35546 9.502-7.66015 9.67871a1.30042 1.30042 0 0 1 -.14258.00977.848.848 0 0 1 -.70215-.40039c-.814-1.13477-.75732-4.23828 1.29151-8.373 1.82812-3.68848 5.16259-7.84473 8.16406-8.249a2.23537 2.23537 0 0 1 .27978-.02149c.0459 0 .0835.002.11377.00489a.64725.64725 0 0 1 .54932.4082c.33987.85542-.19626 3.16595-1.33347 5.748z"/><path d="m100.0717 20.36883a1.30346 1.30346 0 0 0 1.07617-.56641 1.35034 1.35034 0 0 0 .1709-1.0957 1.51568 1.51568 0 0 0 -1.42236-1.11719 1.26821 1.26821 0 0 0 -.18409.01269 1.28293 1.28293 0 0 0 -.898.55274 1.351 1.351 0 0 0 -.17138 1.0957 1.52769 1.52769 0 0 0 1.42876 1.11817z"/><path d="m170.94963 10.80437a1.30907 1.30907 0 0 0 1.07715-.56543 1.34588 1.34588 0 0 0 .17138-1.09375 1.50384 1.50384 0 0 0 -1.60937-1.10742 1.28085 1.28085 0 0 0 -.895.55469 1.35236 1.35236 0 0 0 -.17139 1.0957 1.52808 1.52808 0 0 0 1.42723 1.11621z"/></g></svg>