<svg enable-background="new 0 0 288 144" viewBox="0 0 288 144" xmlns="http://www.w3.org/2000/svg"><g fill="#0743ff"><path d="m159.1 113.4c-.2 0-.5 0-.7 0-.3 0-.6 0-1 .1-1.2.2-2.5 1-3.4 2-.8 1-1.3 2.2-1.3 3.4 0 1.3.5 2.3 1.4 2.9.7.5 1.5.7 2.4.7.3 0 .6 0 .9-.1.6-.1 1.1-.3 1.7-.6.1-.1.2-.2.2-.4v-1.1c0-.2-.1-.3-.2-.4-.1 0-.1-.1-.2-.1s-.2 0-.2.1c-.4.3-.8.4-1.2.5-.2 0-.4.1-.6.1-.6 0-1.1-.2-1.5-.6s-.6-.9-.6-1.5c0-1.5 1.1-2.7 2.6-3 .2 0 .4-.1.6-.1.3 0 .6 0 .8.1h.1c.1 0 .2 0 .2-.1.1-.1.2-.2.2-.4v-1.2c.2 0 0-.2-.2-.3z"/><path d="m169.1 117.1-.3-.3v-.1s0-.1.1-.1c1.2-.4 2-1.4 2-2.6 0-.6-.2-1.2-.5-1.5-.5-.5-1.2-.6-1.7-.6-.3 0-.5 0-.8.1-1.3.2-2 .3-3.2.5-.2 0-.4.2-.4.4v3.7 3.8c0 .1.1.2.2.3s.2.1.3.1h.1l1.3-.2c.2 0 .4-.2.4-.4v-1.7-1.2c0-.1.1-.1.1-.1h.2l.2.2c.7 1 1.2 1.5 1.9 2.5.1.1.2.2.3.2h.1l1.6-.3c.2 0 .3-.1.3-.3.1-.2 0-.3-.1-.4-.9-.7-1.4-1.2-2.1-2zm-.5-2.6c0 .3 0 1.2-1.8 1.5h-.1-.1-.1s-.1-.1-.1-.1v-.4-1.7c0-.1.1-.1.1-.1h.1.1c.3 0 .5-.1.7-.1.4 0 .7.1.9.3.2 0 .3.3.3.6z"/><path d="m182.4 113.5c-.4-1-.9-2-1.5-3.3-.1-.2-.2-.3-.4-.3 0 0 0 0-.1 0l-1.9.3c-.2 0-.3.1-.3.3-.7 1.8-1.2 3.1-1.7 4.4-.4 1.1-.9 2.2-1.4 3.6-.1.1 0 .3.1.4s.2.2.3.2h.1l1.3-.2c.2 0 .3-.1.3-.3l.5-1.3s.1-.1.1-.1c1.3-.2 2-.3 3.4-.5.1 0 .1 0 .1.1l.4 1c.1.2.2.3.4.3h.1l1.4-.2c.1 0 .2-.1.3-.2s.1-.3 0-.4c-.5-1.5-1-2.6-1.5-3.8zm-2.7-1 .5 1.4.5 1.2v.1s-.1.1-.1.1l-2 .3s-.1 0-.1-.1v-.1l.4-1.2.6-1.7c0-.1.1-.1.1-.1.1.1.1.1.1.1z"/><path d="m192.8 108.2c-1.6.2-2.6.4-4.2.6-.2 0-.4.2-.4.4v3.6 3.9c0 .1.1.2.1.3.1.1.2.1.3.1h.1l1.2-.2c.2 0 .4-.2.4-.4v-2.6-.3c0-.1.1-.1.1-.1l.7-.1 1.4-.2c.2 0 .4-.2.4-.4v-.7c0-.1-.1-.2-.1-.3-.1-.1-.2-.1-.3-.1 0 0 0 0-.1 0l-1.3.2-.6.1c-.1 0-.1 0-.1 0v-.1-.7-.8c0-.1.1-.1.1-.1h.3l2.1-.3c.2 0 .4-.2.4-.4v-.7c0-.1-.1-.3-.1-.3-.2-.4-.3-.4-.4-.4z"/><path d="m202.5 106.9c-1.9.3-3.1.4-5.1.7-.2 0-.4.2-.4.4v.8c0 .1.1.2.1.3.1.1.2.1.3.1h.1l1.3-.2h.1v.1 4.6 1.5c0 .1.1.2.1.3.1.1.2.1.3.1h.1l1.2-.1c.2 0 .4-.2.4-.4v-1.7c0-1.5 0-2.7 0-4.6 0-.1.1-.1.1-.1l1.4-.2c.2 0 .4-.2.4-.4v-.8c0-.1-.1-.2-.1-.3-.1-.1-.2-.1-.3-.1z"/><path d="m219.7 111.5c-.1 0-.1-.1-.2-.1s-.2 0-.2.1c-.4.2-.8.4-1.2.4-.1 0-.2 0-.3 0-1.4 0-2.3-.9-2.3-2.3 0-1.5 1.1-2.7 2.5-2.9h.3c.4 0 .7.1 1 .2h.2c.1 0 .2 0 .2-.1.1-.1.2-.2.2-.4v-1.2c0-.2-.1-.4-.3-.4-.4-.1-.8-.1-1.1-.1-.2 0-.3 0-.5 0-1.2.1-2.4.8-3.3 1.8-.8.9-1.3 2.1-1.3 3.3 0 1.3.5 2.3 1.4 3.1.8.6 1.8 1 2.8 1h.5c.6-.1 1.1-.2 1.6-.4.2-.1.3-.2.3-.4v-1.1c-.1-.2-.2-.4-.3-.5z"/><path d="m229.2 103.6c-.1 0-.3 0-.4 0-2.7.2-4.9 2.5-4.9 5 0 2.6 1.8 4.4 4.4 4.4h.5c2.9-.2 4.9-2.3 4.9-5.1 0-2.4-1.9-4.3-4.5-4.3zm2.3 4.4c0 1.6-1.1 2.9-2.7 3-.1 0-.1 0-.2 0-1.4 0-2.5-1.1-2.5-2.6 0-1.4 1.2-2.6 2.7-2.8h.2c1.4.1 2.5 1.1 2.5 2.4z"/><path d="m242.7 103c-1.6.1-2.6.2-4.2.3-.2 0-.4.2-.4.4v5.2 2.6c0 .1 0 .2.1.3s.2.1.3.1l1.3-.1c.2 0 .4-.2.4-.4 0-.8 0-1.4 0-2.3v-.7c0-.1.1-.1.1-.1l2.1-.1c.2 0 .4-.2.4-.4v-.8s0 0 0-.1c0-.2-.2-.4-.4-.4l-2 .1h-.1v-.1-1.5c0-.1.1-.1.1-.1 1-.1 1.5-.1 2.4-.1.2 0 .4-.2.4-.4v-.9c0-.1 0-.2-.1-.3-.2-.1-.3-.2-.4-.2z"/><path d="m252.3 102.5c-1.6.1-2.6.1-4.2.2-.2 0-.4.2-.4.4v4.6 3.2c0 .1 0 .2.1.3s.2.1.3.1l1.3-.1c.2 0 .4-.2.4-.4 0-.9 0-1.6 0-2.5v-.4c0-.1.1-.1.1-.1.9 0 1.4-.1 2.1-.1.2 0 .4-.2.4-.4v-.8c0-.1 0-.2-.1-.3s-.2-.1-.3-.1c-.7 0-1.2.1-2.1.1h-.1v-.1c0-.6 0-.9 0-1.5 0-.1.1-.1.1-.1 1 0 1.5-.1 2.4-.1.2 0 .4-.2.4-.4v-.8s0 0 0-.1c.1-.4-.1-.6-.4-.6z"/><path d="m262.3 109.4c-.1-.1-.2-.1-.3-.1-.8 0-1.4 0-2.3.1h-.1v-.1-1.5c0-.1.1-.1.1-.1.9 0 1.4 0 2.2-.1.2 0 .4-.2.4-.4v-.2-.6c0-.1 0-.2-.1-.3s-.2-.1-.3-.1c-.7 0-1.3 0-2.1.1h-.1v-.1c0-.6 0-.9 0-1.5 0-.1.1-.1.1-.1.9 0 1.5 0 2.3-.1.2 0 .4-.2.4-.4v-.8s0 0 0-.1c0-.2-.2-.4-.4-.4-1.6 0-2.6.1-4.1.1-.2 0-.4.2-.4.4v4.3 3.6c0 .1 0 .2.1.3s.2.1.3.1c1.6-.1 2.6-.1 4.2-.1.2 0 .4-.2.4-.4v-.8c-.2-.6-.2-.7-.3-.7z"/><path d="m271.7 109c-.8 0-1.3 0-2.3 0h-.1v-.1c0-.6 0-.9 0-1.5 0-.1.1-.1.1-.1h2.1c.2 0 .4-.2.4-.4v-.4-.5c0-.1 0-.2-.1-.3s-.2-.1-.3-.1h-2.1-.1v-.1c0-.6 0-.9 0-1.5 0-.1.1-.1.1-.1h2.3c.2 0 .4-.2.4-.4 0-.3 0-.5 0-.8 0-.1 0-.2-.1-.3s-.2-.1-.3-.1c-1.5 0-2.5 0-4.1.1-.2 0-.4.2-.4.4v4 3.8c0 .1 0 .2.1.3s.2.1.3.1c1.5 0 2.5-.1 4.1-.1.2 0 .4-.2.4-.4v-.8s0 0 0-.1c0-.4-.2-.6-.4-.6z"/><path d="m45.1 29.2c-.5 0-1 0-1.6.1-7.3 1-18.2 8.5-24.7 17-4.9 6.4-6.8 11.2-6 15.3.8 4.2 4.3 7.6 11.8 12 10.5 6 13.2 11.5 9.4 19-2.1 4.1-7.2 6.9-14.1 7.9-.6.1-1.2.1-1.7.1-3.6 0-6.8-1.5-8.5-4-1.3-2-1.4-4.4-.2-6.4 2.7-4.5 7.3-6.5 9.8-7.3.1 0 .1-.1.1-.2l-.5-1.7s0-.1-.1-.1h-.1c-4.8 1.5-8.7 4.5-11 8.3-1.6 2.8-1.6 5.9.3 8.7 2.1 3.1 5.9 5 10.2 5 .7 0 1.3 0 2-.1 7.6-1 13.3-4.3 15.7-9 4.4-8.6 1.3-15.1-10.2-21.7-7-4-10.1-7.1-10.8-10.6-.7-3.4 1.1-7.8 5.6-13.6 6.9-9 17.5-15.4 23.3-16.2.5-.1.9-.1 1.3-.1 2 0 3.5.7 4.6 2.1 2.2 2.9 2.2 8.2 0 13.7-3 7.4-9.1 12.4-16.1 13.4-.8.1-1.5.2-2.1.2-3 0-4.2-1.3-4.9-2.5 0-.1-.1-.1-.2-.1l-1.6.9s-.1.1-.1.1v.1c1.5 2.5 3.6 3.6 6.8 3.6.7 0 1.5-.1 2.3-.2 7.8-1.1 14.5-6.5 17.8-14.6 2.5-6.1 2.4-12.3-.3-15.7-1-1.9-2.9-3.4-6.2-3.4z"/><path d="m46.1 96.7h.3c.5-.1 1-.4 1.3-.8.3-.5.4-1 .2-1.6-.2-.9-1.1-1.6-2-1.6-.1 0-.2 0-.3 0-.5.1-1 .4-1.3.8-.3.5-.4 1-.2 1.6.2.9 1.1 1.6 2 1.6z"/><path d="m148 101.6c40.2-9.3 83.1-14.2 124.1-14.3.1 0 .1-.1.1-.1v-1.8-.1h-.1c-40.8 0-83 4.8-122.2 13.7-.4.1-.7 0-.9-.3-.2-.2-.3-.6-.2-.9 1.6-5.5 3-11.9 3.8-16.3.1-.3.3-.6.6-.7s.7-.1.9.2c.9.7 2 1.1 3.2 1.1.3 0 .6 0 .9-.1 3.4-.5 6.3-2.2 8.9-5.6.2-.3.6-.4 1-.3s.6.4.7.8c.1 1.1.5 1.9 1 2.5.6.8 1.5 1.2 2.5 1.2h.5c1.7-.2 3.7-1.6 5.7-3.8.2-.2.5-.3.8-.3h1.4c8.6-1.2 14.5-14 19.2-26.4.1-.3.3-.5.6-.6s.6 0 .8.1c1 .7 1.6 1.5 1.9 2.3.4 1.1.3 2.4-.4 3.9-4.8 9.7-6.1 16-4.1 18.9.7.9 1.7 1.4 2.8 1.4h.6c4.6-.6 8.1-5.8 12.3-14 .5-.9.9-1.9 1.4-2.8v-.1c2.2-4.4 4.7-9.3 6.1-10.7.3-.3.7-.4 1.1-.2s.6.5.5.9c-.2 2.5-2.8 9.6-7.6 20.4-.4.9-.8 1.7-1.1 2.5l-.1.2c0 .1 0 .2.1.2l1.6.7h.1s.1 0 .1-.1c.4-.9.8-1.8 1.1-2.6.8-1.6 1.5-3 2.3-4.4l.1-.2c6.4-12.6 9.4-18.3 13.8-19.3.3-.1.6 0 .8.2s.3.5.3.8c-.1 1.8-1.9 6.2-5.2 13.1-2.4 4.9-3.1 8.6-1.8 10.3.3.5 1 1.1 2.2 1.1h.5c2.4-.3 5.1-2.4 8-6.1.2-.3.7-.4 1-.3.4.1.6.5.6.9 0 1.1.3 1.9.7 2.6.7.9 1.7 1.3 3.1 1.1 2.6-.3 5.3-2.4 8.2-6.1.2-.3.6-.4 1-.3s.6.4.7.7c.2 1 .5 1.8.9 2.4.7.9 1.6 1.4 2.7 1.4h.5c2.1-.3 4.2-1.8 6.4-4.7.2-.3.6-.4.9-.3.4.1.6.4.7.7.1.6.3 1.1.6 1.5.6.8 1.5 1.2 2.5 1.2h.5c3.3-.4 6.9-4.7 11.5-13.8v-.1s0-.1-.1-.1l-1.6-.8c-.1 0-.2 0-.2.1-4.1 8.1-7.4 12.3-9.9 12.7-.3 0-.5 0-.6 0-.2-.1-.4-.3-.5-.5-.4-.8-1-3.6 2.7-11.7.2-.4.4-.9.6-1.3l4.7-10.4c0-.1 0-.2-.1-.2l-1.6-.7h-.1s-.1 0-.1.1l-.1.3c-.1.3-.4.5-.7.5-.3.1-.6 0-.8-.3-.7-.7-1.7-.9-2.9-.8-5.8.8-11.3 8.9-13.4 13-2.3 5-7.8 14.8-12.7 15.4-.1 0-.2 0-.4 0h-.1c-.4 0-.7-.2-.8-.5-.6-1.4-.2-5.4 5.1-17.1.3-.6.6-1.2.8-1.8l.2-.4s0 0 0-.1c.4-1 .9-2 1.3-2.9v-.1s0-.1-.1-.1l-1.7-.7c-.1 0-.2 0-.2.1-.5 1.1-.9 2.1-1.5 3.4-.4.8-.7 1.6-1.1 2.3-5.5 11.6-11.1 19-15 19.6-.3 0-.5 0-.7-.2s-.3-.4-.4-.6c-.1-.6-.1-2.8 2.2-7.5 4.3-8.8 6.4-14 4.8-16.2-.3-.4-.9-.9-2-.9-.2 0-.3 0-.5 0-2.5.3-4.6 1.7-6.8 4.6-.2.3-.7.4-1 .3-.4-.1-.6-.5-.6-.9 0-.8-.2-1.5-.5-1.9-.4-.6-1.1-.9-2-.9-.1 0-.2 0-.4 0-2.5.2-4.6 4.2-8.7 12.3-.5 1-1 1.9-1.5 2.9-3.8 7.4-7 12.4-10.7 12.9-.1 0-.2 0-.3 0-.5 0-.9-.2-1.2-.6-.7-1-1.7-4.6 4.3-16.7 1-2 1.2-3.9.5-5.6-.6-1.5-1.7-2.7-3.5-3.8-.4-.2-.5-.7-.4-1.1.3-.7.5-1.4.7-2.1v-.1s0-.1-.1-.1l-1.7-.6c-.1 0-.2 0-.2.1l-.6 1.7c-.1.2-.3.4-.5.5s-.5.1-.7 0l-.2-.1h-.1s-.1 0-.1.1l-.7 1.7c0 .1 0 .2.1.2l.3.1c.5.2.7.7.5 1.2-3.3 9-8.5 21.4-15.1 24.7-.4.2-.8.1-1.1-.2s-.3-.8-.1-1.1c1.3-2.1 2.4-4.4 3.3-6.8 2.4-6.3 2.8-11.5 1.1-13.7-.7-.9-1.7-1.3-2.9-1.1-2.2.3-4.6 2.1-6.6 5.2-1.9 2.8-3.2 6.1-3.6 9.2 0 .3-.2.5-.5.7-.3.1-.6.2-.8.1l-.5-.2h-.1s-.1 0-.1.1l-.2.4c-4.6 9.6-8 13.3-12.9 14-1.2.2-2.2-.1-2.8-.8-1.1-1.1-1.5-3.5-1.1-6.6l.1-.5c0-.1.1-.3.1-.4 2.4-3.8 5-8.2 7.7-12.9l.3-.4c1.6-2.7 3.2-5.4 4.8-8.2 7.7-12.8 12-24.7 10-27.7-.4-.6-1.1-.9-1.8-.8-2.7.4-5.6 6.8-11.5 21.4-.7 1.7-1.3 3.3-2 4.8-4.5 11-7.2 17.5-9.5 23 0 .1 0 .1-.1.1-4.7 7.3-7.9 10.7-10.4 11.1h-.1c-.4 0-.7-.2-.9-.5-.5-1.1-1.1-5 4.6-16.6.8-1.6 1.5-3.2 2.3-4.9l.2-.4c0-.1 0-.2-.1-.2l-1.6-.8h-.1s-.1 0-.1.1l-.3.6c-.8 1.6-1.5 3.2-2.2 4.7v.1c-5 10.4-9.7 19.1-15.6 19.9-.8.1-1.6-.2-2.1-1-1.3-1.8-1.9-6.1.8-12.7 0-.1 0-.1 0-.1 3.5-7.5 7.5-17.4 11.7-27.6l.1-.2c2.3-5.6 4.6-11.3 7-17.1 0-.1 0-.2-.1-.2l-1.7-.7h-.1s-.1 0-.1.1c-2.4 5.8-4.8 11.6-7 17.2l-.1.2c-10.6 26.2-18 43.5-23.5 44.2-.4.1-.6 0-.8-.1-.1-.1-.3-.2-.3-.4-.4-.8-1-3.6 2.7-11.7.2-.4.4-.8.6-1.3l4.7-10.4c0-.1 0-.2-.1-.2l-1.6-.7h-.1s-.1 0-.1.1l-.1.3c-.1.3-.4.5-.7.5-.3.1-.6 0-.8-.3-.5-.5-1.3-.8-2.2-.8-.2 0-.5 0-.7 0-5.8.8-11.3 8.9-13.4 13-.3.6-.6 1.2-.8 1.7 0 .1-.1.1-.1.2-.1.2-8 16.5-26.7 19-.6.1-1.2.1-1.7.1-4.7 0-9.1-2.6-11.6-7-6-10.4-1.1-27.8 13.2-46.4 6.9-9 17.5-15.4 23.4-16.2.6-.1 1.1-.1 1.6-.1 2.9 0 4.6 1.4 4.9 4.1.6 4.3-2 10.8-6.5 16.5-5 6.4-11.4 10.5-17.4 11.3-.8.1-1.4.2-2 .2-3 0-4.2-1.3-4.9-2.5 0-.1-.1-.1-.2-.1l-1.6.9s-.1.1-.1.1v.1c1.5 2.5 3.6 3.6 6.8 3.6.7 0 1.5-.1 2.3-.2 7-1.1 13.9-5.5 19.3-12.4 4.8-6.2 7.5-13.2 6.8-17.9-.5-3.8-3-5.9-7.1-5.9-.6 0-1.2 0-1.8.1-7.3 1-18.2 8.5-24.7 17-21.5 27.8-16.5 43.3-13.4 48.7 2.9 5 7.9 8.1 13.4 8.1.7 0 1.4 0 2-.1 11.2-1.5 18.7-7.6 23-12.5.2-.3.6-.4 1-.3s.6.4.6.8c.1 1.3.5 2.4 1 3.1.7.9 1.6 1.4 2.7 1.4h.5c2.1-.3 4.2-1.8 6.4-4.7.2-.3.6-.4.9-.3.4.1.6.4.7.7.1.6.3 1.1.6 1.5.6.8 1.5 1.3 2.5 1.3h.5c2.4-.3 5-2.7 7.9-7.3.2-.3.6-.5 1-.4s.7.4.7.8c.2 1.3.7 2.4 1.3 3.2 1 1.3 2.5 2 4.1 1.8 3-.4 5.7-2.3 8.6-5.9.2-.3.6-.4 1-.3s.6.4.7.8c.1 1 .4 1.8.8 2.4.6.8 1.4 1.2 2.4 1.2h.5c1-.1 2.1-.6 3.3-1.5.3-.2.8-.2 1.1 0 .3.3.4.7.3 1.1-1.8 4-3.5 7.8-5.1 11.3-1 2.1-1.7 4.1-2.3 6-.1.3-.4.6-.7.6-16.3 4.1-31.9 8.9-46.4 14.2 0 0-.1 0-.1.1v.1l.6 1.7c0 .1.1.1.1.1 13.6-5 28.5-9.6 44.3-13.6.3-.1.6 0 .8.2s.4.5.3.8c-.1 1.8.1 3.1.7 4 .6.8 1.4 1.1 2.4 1 1.3-.2 3.3-1.7 5.7-8 .5-.5.8-.7 1.1-.8zm-3.6 2.4c-.8 1.9-1.6 3.1-2.2 3.7-.3.2-.6.3-.9.2s-.6-.4-.6-.7c-.1-.5-.2-1.6.1-3.3.1-.4.3-.6.7-.7l1.8-.5h.2c.3 0 .5.1.7.3.3.3.3.6.2 1zm-2.1-3.8c-.2-.3-.3-.6-.2-1 .4-1.1.9-2.2 1.4-3.4 1.6-3.4 2.7-5.9 3.7-8.2.2-.3.5-.6.9-.6h.3c.5.2.7.6.6 1.1-.9 4.2-1.9 8-3 11.1-.1.3-.4.5-.7.6-.7.2-1.4.3-2.1.5h-.1c-.2.3-.6.2-.8-.1zm29.3-29.9c.1-.4.5-.7.9-.7s.8.3.9.7c.6 1.9 1.5 3.5 2.6 4.5.2.2.3.4.3.7s-.1.5-.3.7c-1.4 1.4-2.6 2.1-3.5 2.3-.1 0-.2 0-.3 0s-.3 0-.3 0c-.2-.1-.3-.2-.5-.3-.8-1.3-.8-4.3.2-7.9zm6.8-13.5c1.7-2.5 3.6-4.1 5.1-4.3h.2c.3 0 .6.1.7.4 1.2 1.6.7 6.4-1.4 11.7-1.5 3.9-3.2 6.7-4.4 8.4-.2.2-.4.4-.7.4s-.6-.1-.8-.3c-1.1-1.1-1.7-2.8-2-4-.7-3.3.6-8.3 3.3-12.3zm91.3-6.1c-.3.7-.5 1.2-.8 1.7-6 12-9.2 13.7-11 13.9-.1 0-.1 0-.2 0-.4 0-.7-.2-1-.6-1.2-1.6-1.1-6.1 1.9-12 2.6-5.3 7.4-11.3 11.8-11.9h.6c.4 0 .7.3.8.6.3 1.2-.5 4.6-2.1 8.3zm-105.2-4.1 1.2-2.9c2.1-5.1 5.5-13.7 7.8-17.7.2-.3.5-.5.8-.5.1 0 .2 0 .3.1.4.2.7.6.6 1.1-.5 2.4-2.3 9.2-9.1 20.8-.2.4-.8.6-1.2.4-.4-.3-.6-.8-.4-1.3zm-51.6 25.2c-.3.6-.5 1.2-.8 1.7-6 12-9.2 13.7-11 13.9-.1 0-.1 0-.2 0-.4 0-.7-.2-1-.6-1.2-1.6-1.1-6.1 1.9-12.1 2.6-5.3 7.4-11.3 11.8-11.9h.4.2c.4 0 .7.3.8.6.3 1.4-.4 4.7-2.1 8.4z"/><path d="m150.8 50.8h.3c.5-.1 1-.4 1.3-.8.3-.5.4-1 .2-1.6-.3-.9-1.1-1.6-2-1.6-.1 0-.2 0-.3 0-.5.1-1 .4-1.3.8-.3.5-.4 1-.2 1.6.2 1 1 1.6 2 1.6z"/><path d="m252.9 37.1h.3c.5-.1 1-.4 1.3-.8.3-.5.4-1 .2-1.6-.3-1-1.3-1.7-2.3-1.6-.5.1-1 .4-1.3.8-.3.5-.4 1-.2 1.6.2.9 1 1.6 2 1.6z"/></g></svg>