<?xml version="1.0" encoding="utf-8"?>
<!-- Generator: Adobe Illustrator 22.0.0, SVG Export Plug-In . SVG Version: 6.00 Build 0)  -->
<svg version="1.1" id="Layer_1" xmlns="http://www.w3.org/2000/svg" xmlns:xlink="http://www.w3.org/1999/xlink" x="0px" y="0px"
	 viewBox="0 0 288 144" style="enable-background:new 0 0 288 144;" xml:space="preserve">
<style type="text/css">
	.st0{fill:#0743FF;}
</style>
<g>
	<g>
		<path class="st0" d="M159.1,113.4c-0.2,0-0.5,0-0.7,0c-0.3,0-0.6,0-1,0.1c-1.2,0.2-2.5,1-3.4,2c-0.8,1-1.3,2.2-1.3,3.4
			c0,1.3,0.5,2.3,1.4,2.9c0.7,0.5,1.5,0.7,2.4,0.7c0.3,0,0.6,0,0.9-0.1c0.6-0.1,1.1-0.3,1.7-0.6c0.1-0.1,0.2-0.2,0.2-0.4l0-1.1
			c0-0.2-0.1-0.3-0.2-0.4c-0.1,0-0.1-0.1-0.2-0.1c-0.1,0-0.2,0-0.2,0.1c-0.4,0.3-0.8,0.4-1.2,0.5c-0.2,0-0.4,0.1-0.6,0.1
			c-0.6,0-1.1-0.2-1.5-0.6c-0.4-0.4-0.6-0.9-0.6-1.5c0-1.5,1.1-2.7,2.6-3c0.2,0,0.4-0.1,0.6-0.1c0.3,0,0.6,0,0.8,0.1
			c0,0,0.1,0,0.1,0c0.1,0,0.2,0,0.2-0.1c0.1-0.1,0.2-0.2,0.2-0.4l0-1.2C159.5,113.7,159.3,113.5,159.1,113.4z"/>
		<path class="st0" d="M169.1,117.1l-0.3-0.3c0,0,0-0.1,0-0.1c0,0,0-0.1,0.1-0.1c1.2-0.4,2-1.4,2-2.6c0-0.6-0.2-1.2-0.5-1.5
			c-0.5-0.5-1.2-0.6-1.7-0.6c-0.3,0-0.5,0-0.8,0.1c-1.3,0.2-2,0.3-3.2,0.5c-0.2,0-0.4,0.2-0.4,0.4l0,3.7l0,3.8
			c0,0.1,0.1,0.2,0.2,0.3c0.1,0.1,0.2,0.1,0.3,0.1c0,0,0,0,0.1,0l1.3-0.2c0.2,0,0.4-0.2,0.4-0.4l0-1.7l0-1.2c0-0.1,0.1-0.1,0.1-0.1
			c0,0,0,0,0,0c0.1,0,0.1,0,0.2,0l0.2,0.2c0.7,1,1.2,1.5,1.9,2.5c0.1,0.1,0.2,0.2,0.3,0.2c0,0,0,0,0.1,0l1.6-0.3
			c0.2,0,0.3-0.1,0.3-0.3c0.1-0.2,0-0.3-0.1-0.4C170.3,118.4,169.8,117.9,169.1,117.1z M168.6,114.5c0,0.3,0,1.2-1.8,1.5l-0.1,0
			l-0.1,0l0,0c0,0-0.1,0-0.1,0c0,0-0.1-0.1-0.1-0.1l0-0.4l0-1.7c0-0.1,0.1-0.1,0.1-0.1l0.1,0l0.1,0c0.3,0,0.5-0.1,0.7-0.1
			c0.4,0,0.7,0.1,0.9,0.3C168.5,113.9,168.6,114.2,168.6,114.5z"/>
		<path class="st0" d="M182.4,113.5c-0.4-1-0.9-2-1.5-3.3c-0.1-0.2-0.2-0.3-0.4-0.3c0,0,0,0-0.1,0l-1.9,0.3c-0.2,0-0.3,0.1-0.3,0.3
			c-0.7,1.8-1.2,3.1-1.7,4.4c-0.4,1.1-0.9,2.2-1.4,3.6c-0.1,0.1,0,0.3,0.1,0.4c0.1,0.1,0.2,0.2,0.3,0.2c0,0,0,0,0.1,0l1.3-0.2
			c0.2,0,0.3-0.1,0.3-0.3l0.5-1.3c0,0,0.1-0.1,0.1-0.1c1.3-0.2,2-0.3,3.4-0.5c0,0,0,0,0,0c0.1,0,0.1,0,0.1,0.1l0.4,1
			c0.1,0.2,0.2,0.3,0.4,0.3c0,0,0,0,0.1,0l1.4-0.2c0.1,0,0.2-0.1,0.3-0.2c0.1-0.1,0.1-0.3,0-0.4
			C183.4,115.8,182.9,114.7,182.4,113.5z M179.7,112.5l0.5,1.4l0.5,1.2c0,0,0,0.1,0,0.1c0,0-0.1,0.1-0.1,0.1l-2,0.3l0,0
			c0,0-0.1,0-0.1-0.1c0,0,0-0.1,0-0.1l0.4-1.2l0.6-1.7c0-0.1,0.1-0.1,0.1-0.1c0,0,0,0,0,0C179.7,112.5,179.7,112.5,179.7,112.5z
			 M179.6,112L179.6,112L179.6,112L179.6,112z"/>
		<path class="st0" d="M192.8,108.2C192.8,108.2,192.8,108.2,192.8,108.2c-1.6,0.2-2.6,0.4-4.2,0.6c-0.2,0-0.4,0.2-0.4,0.4l0,3.6
			l0,3.9c0,0.1,0.1,0.2,0.1,0.3c0.1,0.1,0.2,0.1,0.3,0.1c0,0,0,0,0.1,0l1.2-0.2c0.2,0,0.4-0.2,0.4-0.4l0-2.6l0-0.3
			c0-0.1,0.1-0.1,0.1-0.1l0.7-0.1l1.4-0.2c0.2,0,0.4-0.2,0.4-0.4l0-0.7c0-0.1-0.1-0.2-0.1-0.3c-0.1-0.1-0.2-0.1-0.3-0.1
			c0,0,0,0-0.1,0l-1.3,0.2l-0.6,0.1c0,0,0,0,0,0c-0.1,0-0.1,0-0.1,0c0,0,0-0.1,0-0.1l0-0.7l0-0.8c0-0.1,0.1-0.1,0.1-0.1l0.3,0
			l2.1-0.3c0.2,0,0.4-0.2,0.4-0.4l0-0.7c0-0.1-0.1-0.3-0.1-0.3C193,108.2,192.9,108.2,192.8,108.2z"/>
		<path class="st0" d="M202.5,106.9C202.5,106.9,202.5,106.9,202.5,106.9c-1.9,0.3-3.1,0.4-5.1,0.7c-0.2,0-0.4,0.2-0.4,0.4l0,0.8
			c0,0.1,0.1,0.2,0.1,0.3c0.1,0.1,0.2,0.1,0.3,0.1c0,0,0,0,0.1,0l1.3-0.2c0,0,0,0,0,0c0,0,0.1,0,0.1,0c0,0,0,0.1,0,0.1l0,4.6l0,1.5
			c0,0.1,0.1,0.2,0.1,0.3c0.1,0.1,0.2,0.1,0.3,0.1c0,0,0,0,0.1,0l1.2-0.1c0.2,0,0.4-0.2,0.4-0.4l0-1.7c0-1.5,0-2.7,0-4.6
			c0-0.1,0.1-0.1,0.1-0.1l1.4-0.2c0.2,0,0.4-0.2,0.4-0.4l0-0.8c0-0.1-0.1-0.2-0.1-0.3C202.7,106.9,202.6,106.9,202.5,106.9z"/>
		<path class="st0" d="M219.7,111.5c-0.1,0-0.1-0.1-0.2-0.1c-0.1,0-0.2,0-0.2,0.1c-0.4,0.2-0.8,0.4-1.2,0.4c-0.1,0-0.2,0-0.3,0
			c-1.4,0-2.3-0.9-2.3-2.3c0-1.5,1.1-2.7,2.5-2.9c0.1,0,0.2,0,0.3,0c0.4,0,0.7,0.1,1,0.2c0.1,0,0.1,0,0.2,0c0.1,0,0.2,0,0.2-0.1
			c0.1-0.1,0.2-0.2,0.2-0.4l0-1.2c0-0.2-0.1-0.4-0.3-0.4c-0.4-0.1-0.8-0.1-1.1-0.1c-0.2,0-0.3,0-0.5,0c-1.2,0.1-2.4,0.8-3.3,1.8
			c-0.8,0.9-1.3,2.1-1.3,3.3c0,1.3,0.5,2.3,1.4,3.1c0.8,0.6,1.8,1,2.8,1c0.2,0,0.3,0,0.5,0c0.6-0.1,1.1-0.2,1.6-0.4
			c0.2-0.1,0.3-0.2,0.3-0.4l0-1.1C219.9,111.8,219.8,111.6,219.7,111.5z"/>
		<path class="st0" d="M229.2,103.6c-0.1,0-0.3,0-0.4,0c-2.7,0.2-4.9,2.5-4.9,5c0,2.6,1.8,4.4,4.4,4.4c0.2,0,0.3,0,0.5,0
			c2.9-0.2,4.9-2.3,4.9-5.1C233.7,105.5,231.8,103.6,229.2,103.6z M231.5,108c0,1.6-1.1,2.9-2.7,3c-0.1,0-0.1,0-0.2,0
			c-1.4,0-2.5-1.1-2.5-2.6c0-1.4,1.2-2.6,2.7-2.8c0.1,0,0.1,0,0.2,0C230.4,105.7,231.5,106.7,231.5,108z"/>
		<path class="st0" d="M242.7,103C242.7,103,242.7,103,242.7,103c-1.6,0.1-2.6,0.2-4.2,0.3c-0.2,0-0.4,0.2-0.4,0.4
			c0,2.1,0,3.6,0,5.2c0,0.8,0,1.7,0,2.6c0,0.1,0,0.2,0.1,0.3c0.1,0.1,0.2,0.1,0.3,0.1c0,0,0,0,0,0l1.3-0.1c0.2,0,0.4-0.2,0.4-0.4
			c0-0.8,0-1.4,0-2.3l0-0.7c0-0.1,0.1-0.1,0.1-0.1l2.1-0.1c0.2,0,0.4-0.2,0.4-0.4l0-0.8c0,0,0,0,0-0.1c0-0.2-0.2-0.4-0.4-0.4h0
			c0,0,0,0,0,0c0,0,0,0,0,0h0c0,0,0,0,0,0c0,0,0,0,0,0l-2,0.1h0c0,0-0.1,0-0.1,0c0,0,0-0.1,0-0.1l0-1.5c0-0.1,0.1-0.1,0.1-0.1
			c1-0.1,1.5-0.1,2.4-0.1c0.2,0,0.4-0.2,0.4-0.4l0-0.9c0-0.1,0-0.2-0.1-0.3C242.9,103.1,242.8,103,242.7,103z"/>
		<path class="st0" d="M252.3,102.5L252.3,102.5C252.3,102.5,252.3,102.5,252.3,102.5C252.3,102.5,252.3,102.5,252.3,102.5
			C252.3,102.5,252.3,102.5,252.3,102.5C252.3,102.5,252.3,102.5,252.3,102.5c-1.6,0.1-2.6,0.1-4.2,0.2c-0.2,0-0.4,0.2-0.4,0.4
			c0,1.8,0,3.2,0,4.6c0,1,0,2,0,3.2c0,0.1,0,0.2,0.1,0.3c0.1,0.1,0.2,0.1,0.3,0.1c0,0,0,0,0,0l1.3-0.1c0.2,0,0.4-0.2,0.4-0.4
			c0-0.9,0-1.6,0-2.5l0-0.4c0-0.1,0.1-0.1,0.1-0.1c0.9,0,1.4-0.1,2.1-0.1c0.2,0,0.4-0.2,0.4-0.4l0-0.8c0-0.1,0-0.2-0.1-0.3
			c-0.1-0.1-0.2-0.1-0.3-0.1c0,0,0,0,0,0c-0.7,0-1.2,0.1-2.1,0.1c0,0-0.1,0-0.1,0c0,0,0-0.1,0-0.1c0-0.6,0-0.9,0-1.5
			c0-0.1,0.1-0.1,0.1-0.1c1,0,1.5-0.1,2.4-0.1c0.2,0,0.4-0.2,0.4-0.4l0-0.8c0,0,0,0,0-0.1C252.8,102.7,252.6,102.5,252.3,102.5z"/>
		<path class="st0" d="M262.3,109.4c-0.1-0.1-0.2-0.1-0.3-0.1c0,0,0,0,0,0c-0.8,0-1.4,0-2.3,0.1c0,0,0,0,0,0c0,0-0.1,0-0.1,0
			c0,0,0-0.1,0-0.1l0-1.5c0-0.1,0.1-0.1,0.1-0.1c0.9,0,1.4,0,2.2-0.1c0.2,0,0.4-0.2,0.4-0.4l0-0.2l0-0.6c0-0.1,0-0.2-0.1-0.3
			c-0.1-0.1-0.2-0.1-0.3-0.1c0,0,0,0,0,0c-0.7,0-1.3,0-2.1,0.1c0,0-0.1,0-0.1,0c0,0,0-0.1,0-0.1c0-0.6,0-0.9,0-1.5
			c0-0.1,0.1-0.1,0.1-0.1c0.9,0,1.5,0,2.3-0.1c0.2,0,0.4-0.2,0.4-0.4l0-0.8c0,0,0,0,0-0.1c0-0.2-0.2-0.4-0.4-0.4h0c0,0,0,0,0,0
			c0,0,0,0,0,0h0c0,0,0,0,0,0c0,0,0,0,0,0c-1.6,0-2.6,0.1-4.1,0.1c-0.2,0-0.4,0.2-0.4,0.4c0,1.7,0,2.9,0,4.3c0,1.1,0,2.2,0,3.6
			c0,0.1,0,0.2,0.1,0.3c0.1,0.1,0.2,0.1,0.3,0.1c0,0,0,0,0,0c1.6-0.1,2.6-0.1,4.2-0.1c0.2,0,0.4-0.2,0.4-0.4l0-0.8
			C262.4,109.5,262.4,109.4,262.3,109.4z"/>
		<path class="st0" d="M271.7,109L271.7,109C271.7,109,271.7,109,271.7,109c-0.8,0-1.3,0-2.3,0c0,0-0.1,0-0.1,0c0,0,0-0.1,0-0.1
			c0-0.6,0-0.9,0-1.5c0-0.1,0.1-0.1,0.1-0.1c0.9,0,1.4,0,2.1,0c0.2,0,0.4-0.2,0.4-0.4l0-0.4l0-0.5c0-0.1,0-0.2-0.1-0.3
			c-0.1-0.1-0.2-0.1-0.3-0.1c0,0,0,0,0,0l-2.1,0c0,0-0.1,0-0.1,0c0,0,0-0.1,0-0.1c0-0.6,0-0.9,0-1.5c0-0.1,0.1-0.1,0.1-0.1
			c0.9,0,1.5,0,2.3,0c0.2,0,0.4-0.2,0.4-0.4c0-0.3,0-0.5,0-0.8c0-0.1,0-0.2-0.1-0.3c-0.1-0.1-0.2-0.1-0.3-0.1c0,0,0,0,0,0
			c-1.5,0-2.5,0-4.1,0.1c-0.2,0-0.4,0.2-0.4,0.4c0,1.6,0,2.8,0,4c0,1.2,0,2.3,0,3.8c0,0.1,0,0.2,0.1,0.3c0.1,0.1,0.2,0.1,0.3,0.1
			c0,0,0,0,0,0c1.5,0,2.5-0.1,4.1-0.1c0.2,0,0.4-0.2,0.4-0.4l0-0.8c0,0,0,0,0-0.1C272.1,109.2,271.9,109,271.7,109z"/>
	</g>
	<g>
		<path class="st0" d="M45.1,29.2c-0.5,0-1,0-1.6,0.1c-7.3,1-18.2,8.5-24.7,17c-4.9,6.4-6.8,11.2-6,15.3c0.8,4.2,4.3,7.6,11.8,12
			c10.5,6,13.2,11.5,9.4,19c-2.1,4.1-7.2,6.9-14.1,7.9c-0.6,0.1-1.2,0.1-1.7,0.1c-3.6,0-6.8-1.5-8.5-4c-1.3-2-1.4-4.4-0.2-6.4
			c2.7-4.5,7.3-6.5,9.8-7.3c0.1,0,0.1-0.1,0.1-0.2l-0.5-1.7c0,0,0-0.1-0.1-0.1c0,0-0.1,0-0.1,0c-4.8,1.5-8.7,4.5-11,8.3
			c-1.6,2.8-1.6,5.9,0.3,8.7c2.1,3.1,5.9,5,10.2,5c0.7,0,1.3,0,2-0.1c7.6-1,13.3-4.3,15.7-9c4.4-8.6,1.3-15.1-10.2-21.7
			c-7-4-10.1-7.1-10.8-10.6c-0.7-3.4,1.1-7.8,5.6-13.6c6.9-9,17.5-15.4,23.3-16.2c0.5-0.1,0.9-0.1,1.3-0.1c2,0,3.5,0.7,4.6,2.1
			c2.2,2.9,2.2,8.2,0,13.7c-3,7.4-9.1,12.4-16.1,13.4c-0.8,0.1-1.5,0.2-2.1,0.2c-3,0-4.2-1.3-4.9-2.5c0-0.1-0.1-0.1-0.2-0.1
			l-1.6,0.9c0,0-0.1,0.1-0.1,0.1c0,0,0,0.1,0,0.1c1.5,2.5,3.6,3.6,6.8,3.6c0.7,0,1.5-0.1,2.3-0.2c7.8-1.1,14.5-6.5,17.8-14.6
			c2.5-6.1,2.4-12.3-0.3-15.7C50.3,30.7,48.4,29.2,45.1,29.2z"/>
		<path class="st0" d="M46.1,96.7c0.1,0,0.2,0,0.3,0c0.5-0.1,1-0.4,1.3-0.8c0.3-0.5,0.4-1,0.2-1.6c-0.2-0.9-1.1-1.6-2-1.6
			c-0.1,0-0.2,0-0.3,0c-0.5,0.1-1,0.4-1.3,0.8c-0.3,0.5-0.4,1-0.2,1.6C44.3,96,45.2,96.7,46.1,96.7z"/>
		<path class="st0" d="M148,101.6c40.2-9.3,83.1-14.2,124.1-14.3c0.1,0,0.1-0.1,0.1-0.1v-1.8c0,0,0-0.1,0-0.1c0,0-0.1,0-0.1,0
			c-40.8,0-83,4.8-122.2,13.7c-0.4,0.1-0.7,0-0.9-0.3c-0.2-0.2-0.3-0.6-0.2-0.9c1.6-5.5,3-11.9,3.8-16.3c0.1-0.3,0.3-0.6,0.6-0.7
			c0.3-0.1,0.7-0.1,0.9,0.2c0.9,0.7,2,1.1,3.2,1.1c0.3,0,0.6,0,0.9-0.1c3.4-0.5,6.3-2.2,8.9-5.6c0.2-0.3,0.6-0.4,1-0.3
			c0.4,0.1,0.6,0.4,0.7,0.8c0.1,1.1,0.5,1.9,1,2.5c0.6,0.8,1.5,1.2,2.5,1.2c0.2,0,0.3,0,0.5,0c1.7-0.2,3.7-1.6,5.7-3.8
			c0.2-0.2,0.5-0.3,0.8-0.3c0.5,0,0.9,0,1.4,0c8.6-1.2,14.5-14,19.2-26.4c0.1-0.3,0.3-0.5,0.6-0.6c0.3-0.1,0.6,0,0.8,0.1
			c1,0.7,1.6,1.5,1.9,2.3c0.4,1.1,0.3,2.4-0.4,3.9c-4.8,9.7-6.1,16-4.1,18.9c0.7,0.9,1.7,1.4,2.8,1.4c0.2,0,0.4,0,0.6,0
			c4.6-0.6,8.1-5.8,12.3-14c0.5-0.9,0.9-1.9,1.4-2.8l0-0.1c2.2-4.4,4.7-9.3,6.1-10.7c0.3-0.3,0.7-0.4,1.1-0.2
			c0.4,0.2,0.6,0.5,0.5,0.9c-0.2,2.5-2.8,9.6-7.6,20.4c-0.4,0.9-0.8,1.7-1.1,2.5l-0.1,0.2c0,0.1,0,0.2,0.1,0.2l1.6,0.7
			c0,0,0.1,0,0.1,0c0,0,0.1,0,0.1-0.1c0.4-0.9,0.8-1.8,1.1-2.6c0.8-1.6,1.5-3,2.3-4.4l0.1-0.2c6.4-12.6,9.4-18.3,13.8-19.3
			c0.3-0.1,0.6,0,0.8,0.2c0.2,0.2,0.3,0.5,0.3,0.8c-0.1,1.8-1.9,6.2-5.2,13.1c-2.4,4.9-3.1,8.6-1.8,10.3c0.3,0.5,1,1.1,2.2,1.1
			c0.2,0,0.4,0,0.5,0c2.4-0.3,5.1-2.4,8-6.1c0.2-0.3,0.7-0.4,1-0.3c0.4,0.1,0.6,0.5,0.6,0.9c0,1.1,0.3,1.9,0.7,2.6
			c0.7,0.9,1.7,1.3,3.1,1.1c2.6-0.3,5.3-2.4,8.2-6.1c0.2-0.3,0.6-0.4,1-0.3c0.4,0.1,0.6,0.4,0.7,0.7c0.2,1,0.5,1.8,0.9,2.4
			c0.7,0.9,1.6,1.4,2.7,1.4c0.2,0,0.3,0,0.5,0c2.1-0.3,4.2-1.8,6.4-4.7c0.2-0.3,0.6-0.4,0.9-0.3c0.4,0.1,0.6,0.4,0.7,0.7
			c0.1,0.6,0.3,1.1,0.6,1.5c0.6,0.8,1.5,1.2,2.5,1.2c0.2,0,0.4,0,0.5,0c3.3-0.4,6.9-4.7,11.5-13.8c0,0,0-0.1,0-0.1
			c0,0,0-0.1-0.1-0.1l-1.6-0.8c-0.1,0-0.2,0-0.2,0.1c-4.1,8.1-7.4,12.3-9.9,12.7c-0.3,0-0.5,0-0.6,0c-0.2-0.1-0.4-0.3-0.5-0.5
			c-0.4-0.8-1-3.6,2.7-11.7c0.2-0.4,0.4-0.9,0.6-1.3l4.7-10.4c0-0.1,0-0.2-0.1-0.2l-1.6-0.7c0,0-0.1,0-0.1,0c0,0-0.1,0-0.1,0.1
			l-0.1,0.3c-0.1,0.3-0.4,0.5-0.7,0.5c-0.3,0.1-0.6,0-0.8-0.3c-0.7-0.7-1.7-0.9-2.9-0.8c-5.8,0.8-11.3,8.9-13.4,13
			c-2.3,5-7.8,14.8-12.7,15.4c-0.1,0-0.2,0-0.4,0l-0.1,0c-0.4,0-0.7-0.2-0.8-0.5c-0.6-1.4-0.2-5.4,5.1-17.1c0.3-0.6,0.6-1.2,0.8-1.8
			l0.2-0.4c0,0,0,0,0,0c0,0,0,0,0-0.1c0.4-1,0.9-2,1.3-2.9c0,0,0-0.1,0-0.1c0,0,0-0.1-0.1-0.1l-1.7-0.7c-0.1,0-0.2,0-0.2,0.1
			c-0.5,1.1-0.9,2.1-1.5,3.4c-0.4,0.8-0.7,1.6-1.1,2.3c-5.5,11.6-11.1,19-15,19.6c-0.3,0-0.5,0-0.7-0.2c-0.2-0.2-0.3-0.4-0.4-0.6
			c-0.1-0.6-0.1-2.8,2.2-7.5c4.3-8.8,6.4-14,4.8-16.2c-0.3-0.4-0.9-0.9-2-0.9c-0.2,0-0.3,0-0.5,0c-2.5,0.3-4.6,1.7-6.8,4.6
			c-0.2,0.3-0.7,0.4-1,0.3c-0.4-0.1-0.6-0.5-0.6-0.9c0-0.8-0.2-1.5-0.5-1.9c-0.4-0.6-1.1-0.9-2-0.9c-0.1,0-0.2,0-0.4,0
			c-2.5,0.2-4.6,4.2-8.7,12.3c-0.5,1-1,1.9-1.5,2.9c-3.8,7.4-7,12.4-10.7,12.9c-0.1,0-0.2,0-0.3,0c-0.5,0-0.9-0.2-1.2-0.6
			c-0.7-1-1.7-4.6,4.3-16.7c1-2,1.2-3.9,0.5-5.6c-0.6-1.5-1.7-2.7-3.5-3.8c-0.4-0.2-0.5-0.7-0.4-1.1c0.3-0.7,0.5-1.4,0.7-2.1
			c0,0,0-0.1,0-0.1c0,0,0-0.1-0.1-0.1l-1.7-0.6c-0.1,0-0.2,0-0.2,0.1l-0.6,1.7c-0.1,0.2-0.3,0.4-0.5,0.5c-0.2,0.1-0.5,0.1-0.7,0
			l-0.2-0.1c0,0-0.1,0-0.1,0c0,0-0.1,0-0.1,0.1l-0.7,1.7c0,0.1,0,0.2,0.1,0.2l0.3,0.1c0.5,0.2,0.7,0.7,0.5,1.2
			c-3.3,9-8.5,21.4-15.1,24.7c-0.4,0.2-0.8,0.1-1.1-0.2c-0.3-0.3-0.3-0.8-0.1-1.1c1.3-2.1,2.4-4.4,3.3-6.8
			c2.4-6.3,2.8-11.5,1.1-13.7c-0.7-0.9-1.7-1.3-2.9-1.1c-2.2,0.3-4.6,2.1-6.6,5.2c-1.9,2.8-3.2,6.1-3.6,9.2c0,0.3-0.2,0.5-0.5,0.7
			c-0.3,0.1-0.6,0.2-0.8,0.1l-0.5-0.2c0,0-0.1,0-0.1,0c0,0-0.1,0-0.1,0.1l-0.2,0.4c-4.6,9.6-8,13.3-12.9,14
			c-1.2,0.2-2.2-0.1-2.8-0.8c-1.1-1.1-1.5-3.5-1.1-6.6l0.1-0.5c0-0.1,0.1-0.3,0.1-0.4c2.4-3.8,5-8.2,7.7-12.9l0.3-0.4
			c1.6-2.7,3.2-5.4,4.8-8.2c7.7-12.8,12-24.7,10-27.7c-0.4-0.6-1.1-0.9-1.8-0.8c-2.7,0.4-5.6,6.8-11.5,21.4c-0.7,1.7-1.3,3.3-2,4.8
			c-4.5,11-7.2,17.5-9.5,23c0,0.1,0,0.1-0.1,0.1c-4.7,7.3-7.9,10.7-10.4,11.1c0,0-0.1,0-0.1,0c-0.4,0-0.7-0.2-0.9-0.5
			c-0.5-1.1-1.1-5,4.6-16.6c0.8-1.6,1.5-3.2,2.3-4.9l0.2-0.4c0-0.1,0-0.2-0.1-0.2l-1.6-0.8c0,0-0.1,0-0.1,0c0,0-0.1,0-0.1,0.1
			l-0.3,0.6c-0.8,1.6-1.5,3.2-2.2,4.7l0,0.1c-5,10.4-9.7,19.1-15.6,19.9c-0.8,0.1-1.6-0.2-2.1-1c-1.3-1.8-1.9-6.1,0.8-12.7
			c0-0.1,0-0.1,0-0.1c3.5-7.5,7.5-17.4,11.7-27.6l0.1-0.2c2.3-5.6,4.6-11.3,7-17.1c0-0.1,0-0.2-0.1-0.2l-1.7-0.7c0,0-0.1,0-0.1,0
			c0,0-0.1,0-0.1,0.1c-2.4,5.8-4.8,11.6-7,17.2l-0.1,0.2c-10.6,26.2-18,43.5-23.5,44.2c-0.4,0.1-0.6,0-0.8-0.1
			c-0.1-0.1-0.3-0.2-0.3-0.4c-0.4-0.8-1-3.6,2.7-11.7c0.2-0.4,0.4-0.8,0.6-1.3l4.7-10.4c0-0.1,0-0.2-0.1-0.2l-1.6-0.7
			c0,0-0.1,0-0.1,0c0,0-0.1,0-0.1,0.1l-0.1,0.3c-0.1,0.3-0.4,0.5-0.7,0.5c-0.3,0.1-0.6,0-0.8-0.3c-0.5-0.5-1.3-0.8-2.2-0.8
			c-0.2,0-0.5,0-0.7,0c-5.8,0.8-11.3,8.9-13.4,13c-0.3,0.6-0.6,1.2-0.8,1.7c0,0.1-0.1,0.1-0.1,0.2c-0.1,0.2-8,16.5-26.7,19
			c-0.6,0.1-1.2,0.1-1.7,0.1c-4.7,0-9.1-2.6-11.6-7c-6-10.4-1.1-27.8,13.2-46.4c6.9-9,17.5-15.4,23.4-16.2c0.6-0.1,1.1-0.1,1.6-0.1
			c2.9,0,4.6,1.4,4.9,4.1c0.6,4.3-2,10.8-6.5,16.5c-5,6.4-11.4,10.5-17.4,11.3c-0.8,0.1-1.4,0.2-2,0.2c-3,0-4.2-1.3-4.9-2.5
			c0-0.1-0.1-0.1-0.2-0.1l-1.6,0.9c0,0-0.1,0.1-0.1,0.1c0,0,0,0.1,0,0.1c1.5,2.5,3.6,3.6,6.8,3.6c0.7,0,1.5-0.1,2.3-0.2
			C85,58.3,91.9,53.9,97.3,47c4.8-6.2,7.5-13.2,6.8-17.9c-0.5-3.8-3-5.9-7.1-5.9c-0.6,0-1.2,0-1.8,0.1c-7.3,1-18.2,8.5-24.7,17
			C49,68.1,54,83.6,57.1,89c2.9,5,7.9,8.1,13.4,8.1c0.7,0,1.4,0,2-0.1c11.2-1.5,18.7-7.6,23-12.5c0.2-0.3,0.6-0.4,1-0.3
			c0.4,0.1,0.6,0.4,0.6,0.8c0.1,1.3,0.5,2.4,1,3.1c0.7,0.9,1.6,1.4,2.7,1.4c0.2,0,0.3,0,0.5,0c2.1-0.3,4.2-1.8,6.4-4.7
			c0.2-0.3,0.6-0.4,0.9-0.3c0.4,0.1,0.6,0.4,0.7,0.7c0.1,0.6,0.3,1.1,0.6,1.5c0.6,0.8,1.5,1.3,2.5,1.3c0.2,0,0.4,0,0.5,0
			c2.4-0.3,5-2.7,7.9-7.3c0.2-0.3,0.6-0.5,1-0.4c0.4,0.1,0.7,0.4,0.7,0.8c0.2,1.3,0.7,2.4,1.3,3.2c1,1.3,2.5,2,4.1,1.8
			c3-0.4,5.7-2.3,8.6-5.9c0.2-0.3,0.6-0.4,1-0.3c0.4,0.1,0.6,0.4,0.7,0.8c0.1,1,0.4,1.8,0.8,2.4c0.6,0.8,1.4,1.2,2.4,1.2
			c0.2,0,0.3,0,0.5,0c1-0.1,2.1-0.6,3.3-1.5c0.3-0.2,0.8-0.2,1.1,0c0.3,0.3,0.4,0.7,0.3,1.1c-1.8,4-3.5,7.8-5.1,11.3
			c-1,2.1-1.7,4.1-2.3,6c-0.1,0.3-0.4,0.6-0.7,0.6c-16.3,4.1-31.9,8.9-46.4,14.2c0,0-0.1,0-0.1,0.1c0,0,0,0.1,0,0.1l0.6,1.7
			c0,0.1,0.1,0.1,0.1,0.1c0,0,0,0,0,0c13.6-5,28.5-9.6,44.3-13.6c0.3-0.1,0.6,0,0.8,0.2c0.2,0.2,0.4,0.5,0.3,0.8
			c-0.1,1.8,0.1,3.1,0.7,4c0.6,0.8,1.4,1.1,2.4,1c1.3-0.2,3.3-1.7,5.7-8C147.4,101.9,147.7,101.7,148,101.6z M144.4,104
			c-0.8,1.9-1.6,3.1-2.2,3.7c-0.3,0.2-0.6,0.3-0.9,0.2c-0.3-0.1-0.6-0.4-0.6-0.7c-0.1-0.5-0.2-1.6,0.1-3.3c0.1-0.4,0.3-0.6,0.7-0.7
			l1.8-0.5c0.1,0,0.1,0,0.2,0c0.3,0,0.5,0.1,0.7,0.3C144.5,103.3,144.5,103.6,144.4,104z M142.3,100.2c-0.2-0.3-0.3-0.6-0.2-1
			c0.4-1.1,0.9-2.2,1.4-3.4c1.6-3.4,2.7-5.9,3.7-8.2c0.2-0.3,0.5-0.6,0.9-0.6c0.1,0,0.2,0,0.3,0c0.5,0.2,0.7,0.6,0.6,1.1
			c-0.9,4.2-1.9,8-3,11.1c-0.1,0.3-0.4,0.5-0.7,0.6c-0.7,0.2-1.4,0.3-2.1,0.5l-0.1,0C142.9,100.6,142.5,100.5,142.3,100.2z
			 M171.6,70.3c0.1-0.4,0.5-0.7,0.9-0.7c0.4,0,0.8,0.3,0.9,0.7c0.6,1.9,1.5,3.5,2.6,4.5c0.2,0.2,0.3,0.4,0.3,0.7
			c0,0.3-0.1,0.5-0.3,0.7c-1.4,1.4-2.6,2.1-3.5,2.3c-0.1,0-0.2,0-0.3,0c-0.1,0-0.3,0-0.3,0c-0.2-0.1-0.3-0.2-0.5-0.3
			C170.6,76.9,170.6,73.9,171.6,70.3z M178.4,56.8c1.7-2.5,3.6-4.1,5.1-4.3c0.1,0,0.2,0,0.2,0c0.3,0,0.6,0.1,0.7,0.4
			c1.2,1.6,0.7,6.4-1.4,11.7c-1.5,3.9-3.2,6.7-4.4,8.4c-0.2,0.2-0.4,0.4-0.7,0.4c-0.3,0-0.6-0.1-0.8-0.3c-1.1-1.1-1.7-2.8-2-4
			C174.4,65.8,175.7,60.8,178.4,56.8z M269.7,50.7L269.7,50.7c-0.3,0.7-0.5,1.2-0.8,1.7c-6,12-9.2,13.7-11,13.9c-0.1,0-0.1,0-0.2,0
			c-0.4,0-0.7-0.2-1-0.6c-1.2-1.6-1.1-6.1,1.9-12c2.6-5.3,7.4-11.3,11.8-11.9c0.2,0,0.4,0,0.6,0c0.4,0,0.7,0.3,0.8,0.6
			C272.1,43.6,271.3,47,269.7,50.7z M164.5,46.6C164.5,46.6,164.5,46.6,164.5,46.6l1.2-2.9c2.1-5.1,5.5-13.7,7.8-17.7
			c0.2-0.3,0.5-0.5,0.8-0.5c0.1,0,0.2,0,0.3,0.1c0.4,0.2,0.7,0.6,0.6,1.1c-0.5,2.4-2.3,9.2-9.1,20.8c-0.2,0.4-0.8,0.6-1.2,0.4
			C164.5,47.6,164.3,47.1,164.5,46.6z M112.9,71.8L112.9,71.8c-0.3,0.6-0.5,1.2-0.8,1.7c-6,12-9.2,13.7-11,13.9c-0.1,0-0.1,0-0.2,0
			c-0.4,0-0.7-0.2-1-0.6c-1.2-1.6-1.1-6.1,1.9-12.1c2.6-5.3,7.4-11.3,11.8-11.9c0.2,0,0.3,0,0.4,0c0.1,0,0.1,0,0.2,0
			c0.4,0,0.7,0.3,0.8,0.6C115.3,64.8,114.6,68.1,112.9,71.8z"/>
		<path class="st0" d="M150.8,50.8c0.1,0,0.2,0,0.3,0c0.5-0.1,1-0.4,1.3-0.8c0.3-0.5,0.4-1,0.2-1.6c-0.3-0.9-1.1-1.6-2-1.6
			c-0.1,0-0.2,0-0.3,0c-0.5,0.1-1,0.4-1.3,0.8c-0.3,0.5-0.4,1-0.2,1.6C149,50.2,149.8,50.8,150.8,50.8z"/>
		<path class="st0" d="M252.9,37.1c0.1,0,0.2,0,0.3,0c0.5-0.1,1-0.4,1.3-0.8c0.3-0.5,0.4-1,0.2-1.6c-0.3-1-1.3-1.7-2.3-1.6
			c-0.5,0.1-1,0.4-1.3,0.8c-0.3,0.5-0.4,1-0.2,1.6C251.1,36.4,251.9,37.1,252.9,37.1z"/>
	</g>
</g>
</svg>
