<?xml version="1.0" encoding="utf-8"?>
<!-- Generator: Adobe Illustrator 19.2.1, SVG Export Plug-In . SVG Version: 6.00 Build 0)  -->
<svg version="1.1" id="Layer_1" xmlns="http://www.w3.org/2000/svg" xmlns:xlink="http://www.w3.org/1999/xlink" x="0px" y="0px"
	 viewBox="0 0 274.7 122.4" style="enable-background:new 0 0 274.7 122.4;" xml:space="preserve">
<style type="text/css">
	.st0{fill:#0743FF;}
</style>
<g>
	<path class="st0" d="M152.6,113.3c-0.2,0-0.5,0-0.7,0c-0.3,0-0.6,0-1,0.1c-1.2,0.2-2.5,1-3.4,2c-0.8,1-1.3,2.2-1.3,3.4
		c0,1.3,0.5,2.3,1.4,2.9c0.7,0.5,1.5,0.7,2.4,0.7c0.3,0,0.6,0,0.9-0.1c0.6-0.1,1.1-0.3,1.7-0.6c0.1-0.1,0.2-0.2,0.2-0.4v-1.1
		c0-0.2-0.1-0.3-0.2-0.4c-0.1,0-0.1-0.1-0.2-0.1c-0.1,0-0.2,0-0.2,0.1c-0.4,0.3-0.8,0.4-1.2,0.5c-0.2,0-0.4,0.1-0.6,0.1
		c-0.6,0-1.1-0.2-1.5-0.6s-0.6-0.9-0.6-1.5c0-1.5,1.1-2.7,2.6-3c0.2,0,0.4-0.1,0.6-0.1c0.3,0,0.6,0,0.8,0.1h0.1c0.1,0,0.2,0,0.2-0.1
		c0.1-0.1,0.2-0.2,0.2-0.4v-1.2C153,113.5,152.8,113.3,152.6,113.3z"/>
	<path class="st0" d="M162.6,116.9l-0.3-0.3v-0.1c0,0,0-0.1,0.1-0.1c1.2-0.4,2-1.4,2-2.6c0-0.6-0.2-1.2-0.5-1.5
		c-0.5-0.5-1.2-0.6-1.7-0.6c-0.3,0-0.5,0-0.8,0.1c-1.3,0.2-2,0.3-3.2,0.5c-0.2,0-0.4,0.2-0.4,0.4v3.7v3.8c0,0.1,0.1,0.2,0.2,0.3
		c0.1,0.1,0.2,0.1,0.3,0.1c0,0,0,0,0.1,0l1.3-0.2c0.2,0,0.4-0.2,0.4-0.4v-1.7v-1.2c0-0.1,0.1-0.1,0.1-0.1c0.1,0,0.1,0,0.2,0l0.2,0.2
		c0.7,1,1.2,1.5,1.9,2.5c0.1,0.1,0.2,0.2,0.3,0.2c0,0,0,0,0.1,0l1.6-0.3c0.2,0,0.3-0.1,0.3-0.3c0.1-0.2,0-0.3-0.1-0.4
		C163.8,118.2,163.3,117.7,162.6,116.9z M160.3,115.8L160.3,115.8h-0.2H160l-0.1-0.1v-0.4v-1.7c0-0.1,0.1-0.1,0.1-0.1h0.1h0.1
		c0.3,0,0.5-0.1,0.7-0.1c0.4,0,0.7,0.1,0.9,0.3c0.2,0.1,0.3,0.3,0.3,0.6S162.1,115.5,160.3,115.8z"/>
	<path class="st0" d="M175.9,113.3c-0.4-1-0.9-2-1.5-3.3c-0.1-0.2-0.2-0.3-0.4-0.3c0,0,0,0-0.1,0L172,110c-0.2,0-0.3,0.1-0.3,0.3
		c-0.7,1.8-1.2,3.1-1.7,4.4c-0.4,1.1-0.9,2.2-1.4,3.6c-0.1,0.1,0,0.3,0.1,0.4s0.2,0.2,0.3,0.2c0,0,0,0,0.1,0l1.3-0.2
		c0.2,0,0.3-0.1,0.3-0.3l0.5-1.3l0.1-0.1c1.3-0.2,2-0.3,3.4-0.5c0.1,0,0.1,0,0.1,0.1l0.4,1c0.1,0.2,0.2,0.3,0.4,0.3c0,0,0,0,0.1,0
		l1.4-0.2c0.1,0,0.2-0.1,0.3-0.2s0.1-0.3,0-0.4C176.9,115.6,176.4,114.5,175.9,113.3z M174.3,115.1l-0.1,0.1l-2,0.3
		c0,0-0.1,0-0.1-0.1v-0.1l0.4-1.2l0.6-1.7c0-0.1,0.1-0.1,0.1-0.1s0,0,0.1,0.1l0.5,1.4L174.3,115.1L174.3,115.1z"/>
	<path class="st0" d="M186.3,108c-1.6,0.2-2.6,0.4-4.2,0.6c-0.2,0-0.4,0.2-0.4,0.4v3.6v3.9c0,0.1,0.1,0.2,0.1,0.3
		c0.1,0.1,0.2,0.1,0.3,0.1c0,0,0,0,0.1,0l1.2-0.2c0.2,0,0.4-0.2,0.4-0.4v-2.6v-0.3c0-0.1,0.1-0.1,0.1-0.1l0.7-0.1l1.4-0.2
		c0.2,0,0.4-0.2,0.4-0.4v-0.7c0-0.1-0.1-0.2-0.1-0.3c-0.1-0.1-0.2-0.1-0.3-0.1c0,0,0,0-0.1,0l-1.3,0.2l-0.6,0.1c-0.1,0-0.1,0-0.1,0
		v-0.1V111v-0.8c0-0.1,0.1-0.1,0.1-0.1h0.3l2.1-0.3c0.2,0,0.4-0.2,0.4-0.4v-0.7c0-0.1-0.1-0.3-0.1-0.3
		C186.6,108,186.5,108,186.3,108z"/>
	<path class="st0" d="M196,106.7c-1.9,0.3-3.1,0.4-5.1,0.7c-0.2,0-0.4,0.2-0.4,0.4v0.8c0,0.1,0.1,0.2,0.1,0.3
		c0.1,0.1,0.2,0.1,0.3,0.1c0,0,0,0,0.1,0l1.3-0.2h0.1v0.1v4.6v1.5c0,0.1,0.1,0.2,0.1,0.3c0.1,0.1,0.2,0.1,0.3,0.1c0,0,0,0,0.1,0
		l1.2-0.1c0.2,0,0.4-0.2,0.4-0.4v-1.7c0-1.5,0-2.7,0-4.6c0-0.1,0.1-0.1,0.1-0.1l1.4-0.2c0.2,0,0.4-0.2,0.4-0.4v-0.8
		c0-0.1-0.1-0.2-0.1-0.3C196.2,106.7,196.1,106.7,196,106.7z"/>
	<path class="st0" d="M213.2,111.4c-0.1,0-0.1-0.1-0.2-0.1c-0.1,0-0.2,0-0.2,0.1c-0.4,0.2-0.8,0.4-1.2,0.4c-0.1,0-0.2,0-0.3,0
		c-1.4,0-2.3-0.9-2.3-2.3c0-1.5,1.1-2.7,2.5-2.9c0.1,0,0.2,0,0.3,0c0.4,0,0.7,0.1,1,0.2c0.1,0,0.1,0,0.2,0s0.2,0,0.2-0.1
		c0.1-0.1,0.2-0.2,0.2-0.4v-1.2c0-0.2-0.1-0.4-0.3-0.4c-0.4-0.1-0.8-0.1-1.1-0.1c-0.2,0-0.3,0-0.5,0c-1.2,0.1-2.4,0.8-3.3,1.8
		c-0.8,0.9-1.3,2.1-1.3,3.3c0,1.3,0.5,2.3,1.4,3.1c0.8,0.6,1.8,1,2.8,1c0.2,0,0.3,0,0.5,0c0.6-0.1,1.1-0.2,1.6-0.4
		c0.2-0.1,0.3-0.2,0.3-0.4v-1.1C213.4,111.6,213.3,111.4,213.2,111.4z"/>
	<path class="st0" d="M222.8,103.5c-0.1,0-0.3,0-0.4,0c-2.7,0.2-4.9,2.5-4.9,5c0,2.6,1.8,4.4,4.4,4.4c0.2,0,0.3,0,0.5,0
		c2.9-0.2,4.9-2.3,4.9-5.1C227.2,105.3,225.3,103.5,222.8,103.5z M222.3,110.9c-0.1,0-0.1,0-0.2,0c-1.4,0-2.5-1.1-2.5-2.6
		c0-1.4,1.2-2.6,2.7-2.8c0.1,0,0.1,0,0.2,0c1.4,0,2.5,1.1,2.5,2.4C225,109.5,223.9,110.8,222.3,110.9z"/>
	<path class="st0" d="M236.2,102.8c-1.6,0.1-2.6,0.2-4.2,0.3c-0.2,0-0.4,0.2-0.4,0.4c0,2.1,0,3.6,0,5.2c0,0.8,0,1.7,0,2.6
		c0,0.1,0,0.2,0.1,0.3c0.1,0.1,0.2,0.1,0.3,0.1l1.3-0.1c0.2,0,0.4-0.2,0.4-0.4c0-0.8,0-1.4,0-2.3v-0.7c0-0.1,0.1-0.1,0.1-0.1
		l2.1-0.1c0.2,0,0.4-0.2,0.4-0.4v-0.8c0,0,0,0,0-0.1c0-0.2-0.2-0.4-0.4-0.4l-2,0.1h-0.1v-0.1v-1.5c0-0.1,0.1-0.1,0.1-0.1
		c1-0.1,1.5-0.1,2.4-0.1c0.2,0,0.4-0.2,0.4-0.4v-0.9c0-0.1,0-0.2-0.1-0.3C236.4,102.9,236.3,102.8,236.2,102.8z"/>
	<path class="st0" d="M245.9,102.4c-1.6,0.1-2.6,0.1-4.2,0.2c-0.2,0-0.4,0.2-0.4,0.4c0,1.8,0,3.2,0,4.6c0,1,0,2,0,3.2
		c0,0.1,0,0.2,0.1,0.3c0.1,0.1,0.2,0.1,0.3,0.1l1.3-0.1c0.2,0,0.4-0.2,0.4-0.4c0-0.9,0-1.6,0-2.5v-0.4c0-0.1,0.1-0.1,0.1-0.1
		c0.9,0,1.4-0.1,2.1-0.1c0.2,0,0.4-0.2,0.4-0.4v-0.8c0-0.1,0-0.2-0.1-0.3c-0.1-0.1-0.2-0.1-0.3-0.1c-0.7,0-1.2,0.1-2.1,0.1h-0.1V106
		c0-0.6,0-0.9,0-1.5c0-0.1,0.1-0.1,0.1-0.1c1,0,1.5-0.1,2.4-0.1c0.2,0,0.4-0.2,0.4-0.4v-0.8c0,0,0,0,0-0.1
		C246.3,102.6,246.1,102.4,245.9,102.4z"/>
	<path class="st0" d="M255.5,109.1c-0.8,0-1.4,0-2.3,0.1h-0.1v-0.1v-1.5c0-0.1,0.1-0.1,0.1-0.1c0.9,0,1.4,0,2.2-0.1
		c0.2,0,0.4-0.2,0.4-0.4v-0.2v-0.6c0-0.1,0-0.2-0.1-0.3c-0.1-0.1-0.2-0.1-0.3-0.1c-0.7,0-1.3,0-2.1,0.1h-0.1v-0.1c0-0.6,0-0.9,0-1.5
		c0-0.1,0.1-0.1,0.1-0.1c0.9,0,1.5,0,2.3-0.1c0.2,0,0.4-0.2,0.4-0.4v-0.8c0,0,0,0,0-0.1c0-0.2-0.2-0.4-0.4-0.4
		c-1.6,0-2.6,0.1-4.1,0.1c-0.2,0-0.4,0.2-0.4,0.4c0,1.7,0,2.9,0,4.3c0,1.1,0,2.2,0,3.6c0,0.1,0,0.2,0.1,0.3c0.1,0.1,0.2,0.1,0.3,0.1
		c1.6-0.1,2.6-0.1,4.2-0.1c0.2,0,0.4-0.2,0.4-0.4v-0.8c-0.1-0.5-0.2-0.6-0.3-0.7C255.7,109.1,255.6,109.1,255.5,109.1z"/>
	<path class="st0" d="M265.2,102.1c-1.5,0-2.5,0-4.1,0.1c-0.2,0-0.4,0.2-0.4,0.4c0,1.6,0,2.8,0,4s0,2.3,0,3.8c0,0.1,0,0.2,0.1,0.3
		c0.1,0.1,0.2,0.1,0.3,0.1c1.5,0,2.5-0.1,4.1-0.1c0.2,0,0.4-0.2,0.4-0.4v-0.8c0,0,0,0,0-0.1c0-0.4-0.2-0.6-0.4-0.6
		c-0.8,0-1.3,0-2.3,0h-0.1v-0.1c0-0.6,0-0.9,0-1.5c0-0.1,0.1-0.1,0.1-0.1c0.9,0,1.4,0,2.1,0c0.2,0,0.4-0.2,0.4-0.4v-0.4v-0.5
		c0-0.1,0-0.2-0.1-0.3c-0.1-0.1-0.2-0.1-0.3-0.1h-2.1h-0.1v-0.1c0-0.6,0-0.9,0-1.5c0-0.1,0.1-0.1,0.1-0.1c0.9,0,1.5,0,2.3,0
		c0.2,0,0.4-0.2,0.4-0.4c0-0.3,0-0.5,0-0.8c0-0.1,0-0.2-0.1-0.3C265.4,102.1,265.3,102.1,265.2,102.1z"/>
	<path class="st0" d="M38.6,29c-0.5,0-1,0-1.6,0.1c-7.3,1-18.2,8.5-24.7,17c-4.9,6.4-6.8,11.2-6,15.3c0.8,4.2,4.3,7.6,11.8,12
		c10.5,6,13.2,11.5,9.4,19c-2.1,4.1-7.2,6.9-14.1,7.9c-0.6,0.1-1.2,0.1-1.7,0.1c-3.6,0-6.8-1.5-8.5-4C1.9,94.4,1.8,92,3,90
		c2.7-4.5,7.3-6.5,9.8-7.3c0.1,0,0.1-0.1,0.1-0.2l-0.5-1.7c0,0,0-0.1-0.1-0.1h-0.1c-4.8,1.5-8.7,4.5-11,8.3
		c-1.6,2.8-1.6,5.9,0.3,8.7c2.1,3.1,5.9,5,10.2,5c0.7,0,1.3,0,2-0.1c7.6-1,13.3-4.3,15.7-9c4.4-8.6,1.5-15.1-10-21.7
		c-7-4-10.4-7.1-11.1-10.6c-0.7-3.4,1.1-7.8,5.6-13.6c6.9-9,17.5-15.4,23.3-16.2c0.5-0.1,0.9-0.1,1.3-0.1c2,0,3.5,0.7,4.6,2.1
		c2.2,2.9,2.2,8.2,0,13.7c-3,7.4-9.1,12.4-16.1,13.4c-0.8,0.1-1.5,0.2-2.1,0.2c-3,0-4.2-1.3-4.9-2.5c0-0.1-0.1-0.1-0.2-0.1l-1.6,0.5
		l-0.1,0.1v0.1c1.5,2.5,3.6,3.6,6.8,3.6c0.7,0,1.5-0.1,2.3-0.2c7.8-1.1,14.5-6.5,17.8-14.6c2.5-6.1,2.4-12.3-0.3-15.7
		C43.8,30.6,41.9,29,38.6,29z"/>
	<path class="st0" d="M39.4,92.5c-0.1,0-0.2,0-0.3,0c-0.5,0.1-1,0.4-1.3,0.8c-0.3,0.5-0.4,1-0.2,1.6c0.2,0.9,1.1,1.6,2,1.6
		c0.1,0,0.2,0,0.3,0c0.5-0.1,1-0.4,1.3-0.8c0.3-0.5,0.4-1,0.2-1.6C41.2,93.2,40.3,92.5,39.4,92.5z"/>
	<path class="st0" d="M274.6,52.6l-1.6-0.8c-0.1,0-0.2,0-0.2,0.1c-4.1,8.1-7.4,12.3-9.9,12.7c-0.3,0-0.5,0-0.6,0
		c-0.2-0.1-0.4-0.3-0.5-0.5c-0.4-0.8-1-3.6,2.7-11.7c0.2-0.4,0.4-0.9,0.6-1.3l4.7-10.4c0-0.1,0-0.2-0.1-0.2l-1.6-0.7H268
		c0,0-0.1,0-0.1,0.1l-0.1,0.3c-0.1,0.3-0.4,0.5-0.7,0.5c-0.3,0.1-0.6,0-0.8-0.3c-0.7-0.7-1.7-0.9-2.9-0.8c-5.8,0.8-11.3,8.9-13.4,13
		c-2.3,5-7.8,14.8-12.7,15.4c-0.1,0-0.2,0-0.4,0h-0.1c-0.4,0-0.7-0.2-0.8-0.5c-0.6-1.4-0.2-5.4,5.1-17.1c0.3-0.6,0.6-1.2,0.8-1.8
		l0.2-0.4c0,0,0,0,0-0.1c0.4-1,0.9-2,1.3-2.9v-0.1c0,0,0-0.1-0.1-0.1l-1.7-0.7c-0.1,0-0.2,0-0.2,0.1c-0.5,1.1-0.9,2.1-1.5,3.4
		c-0.4,0.8-0.7,1.6-1.1,2.3c-5.5,11.6-11.1,19-15,19.6c-0.3,0-0.5,0-0.7-0.2s-0.3-0.4-0.4-0.6c-0.1-0.6-0.1-2.8,2.2-7.5
		c4.3-8.8,6.4-14,4.8-16.2c-0.3-0.4-0.9-0.9-2-0.9c-0.2,0-0.3,0-0.5,0c-2.5,0.3-4.6,1.7-6.8,4.6c-0.2,0.3-0.7,0.4-1,0.3
		c-0.4-0.1-0.6-0.5-0.6-0.9c0-0.8-0.2-1.5-0.5-1.9c-0.4-0.6-1.1-0.9-2-0.9c-0.1,0-0.2,0-0.4,0c-2.5,0.2-4.6,4.2-8.7,12.3
		c-0.5,1-1,1.9-1.5,2.9c-3.8,7.4-6.8,12.4-10.4,12.9c-0.1,0-0.2,0-0.3,0c-0.5,0-0.9-0.2-1.2-0.6c-0.7-1-1.2-4.6,4.8-16.7
		c1-2,1.2-3.9,0.5-5.6c-0.6-1.5-2.4-2.7-4.2-3.8c-0.4-0.2-0.5-0.7-0.4-1.1c0.3-0.7,0.5-1.4,0.7-2.1v-0.1c0,0,0-0.1-0.1-0.1l-1.7-0.6
		c-0.1,0-0.2,0-0.2,0.1l-0.6,1.7c-0.1,0.2-0.3,0.4-0.5,0.5s-0.5,0.1-0.7,0l-0.2-0.1H191c0,0-0.1,0-0.1,0.1l-0.7,1.7
		c0,0.1,0,0.2,0.1,0.2l0.3,0.1c0.5,0.2,0.7,0.7,0.5,1.2c-3.3,9-8.3,21.7-15.1,24.7c-0.4,0.2-0.8,0.1-1.1-0.2s-0.3-0.8-0.1-1.1
		c1.3-2.1,2.4-4.4,3.3-6.8c2.4-6.3,2.8-11.5,1.1-13.7c-0.7-0.9-1.7-1.3-2.9-1.1c-2.2,0.3-4.6,2.1-6.6,5.2c-1.9,2.8-3.2,6.1-3.6,9.2
		c0,0.3-0.2,0.5-0.5,0.7c-0.3,0.1-0.6,0.2-0.8,0.1l-0.5-0.2h-0.1c0,0-0.1,0-0.1,0.1l-0.2,0.4c-4.6,9.6-8,13.3-12.9,14
		c-1.2,0.2-2.2-0.1-2.8-0.8c-1.1-1.1-1.5-3.5-1.1-6.6l0.1-0.5c0-0.1,0.1-0.3,0.1-0.4c2.4-3.8,5-8.2,7.7-12.9l0.3-0.4
		c1.6-2.7,3.2-5.4,4.8-8.2c7.7-12.8,12-24.7,10-27.7c-0.4-0.6-1.1-0.9-1.8-0.8c-2.7,0.4-5.6,6.8-11.5,21.4c-0.7,1.7-1.3,3.3-2,4.8
		c-4.5,11-7.2,17.5-9.5,23c0,0.1,0,0.1-0.1,0.1c-4.7,7.3-7.9,10.7-10.4,11.1h-0.1c-0.4,0-0.7-0.2-0.9-0.5c-0.5-1.1-1.1-5,4.6-16.6
		c0.8-1.6,1.5-3.2,2.3-4.9l0.2-0.4c0-0.1,0-0.2-0.1-0.2l-1.6-0.8h-0.1c0,0-0.1,0-0.1,0.1l-0.3,0.6c-0.8,1.6-1.5,3.2-2.2,4.7v0.1
		c-5,10.4-9.7,19.1-15.6,19.9c-0.8,0.1-1.6-0.2-2.1-1c-1.3-1.8-1.9-6.1,0.8-12.7c0-0.1,0-0.1,0-0.1c3.5-7.5,7.5-17.4,11.7-27.6
		l0.1-0.2c2.3-5.6,4.6-11.3,7-17.1c0-0.1,0-0.2-0.1-0.2l-1.7-0.7h-0.1c0,0-0.1,0-0.1,0.1c-2.4,5.8-4.8,11.6-7,17.2l-0.1,0.2
		c-10.6,26.2-18,43.5-23.5,44.2c-0.4,0.1-0.6,0-0.8-0.1c-0.1-0.1-0.3-0.2-0.3-0.4c-0.4-0.8-1-3.6,2.7-11.7c0.2-0.4,0.4-0.8,0.6-1.3
		l4.7-10.4c0-0.1,0-0.2-0.1-0.2l-1.6-0.7h-0.1c0,0-0.1,0-0.1,0.1l-0.1,0.3c-0.1,0.3-0.4,0.5-0.7,0.5c-0.3,0.1-0.6,0-0.8-0.3
		c-0.5-0.5-1.3-0.8-2.2-0.8c-0.2,0-0.5,0-0.7,0c-5.8,0.8-11.3,8.9-13.4,13c-0.3,0.6-0.6,1.2-0.8,1.7c0,0.1-0.1,0.1-0.1,0.2
		c-0.1,0.2-8,16.5-26.7,19c-0.6,0.1-1.2,0.1-1.7,0.1c-4.7,0-8.8-2.6-11.3-7C46.6,77.4,51.3,60,65.6,41.3c6.9-9,17.5-15.4,23.4-16.2
		c0.6-0.1,1.1-0.1,1.6-0.1c2.9,0,4.6,1.4,4.9,4.1c0.6,4.3-2,10.8-6.5,16.5C84,52,77.7,56.1,71.6,57c-0.8,0.1-1.4,0.2-2,0.2
		c-3,0-4.2-1.3-4.9-2.5c0-0.1-0.1-0.1-0.2-0.1l-1.6,0.9l-0.1,0.1v0.1c1.5,2.5,3.6,3.6,6.8,3.6c0.7,0,1.5-0.1,2.3-0.2
		c6.6-0.9,13.5-5.4,18.9-12.2c4.8-6.2,7.5-13.2,6.8-17.9c-0.5-3.8-3-5.9-7.1-5.9c-0.6,0-1.2,0-1.8,0.1c-7.3,1-18.2,8.5-24.7,17
		C42.6,68,47.2,83.5,50.3,88.8c2.9,5,8.1,8.1,13.6,8.1c0.7,0,1.4,0,2-0.1c11.2-1.5,18.7-7.6,23-12.5c0.2-0.3,0.6-0.4,1-0.3
		s0.6,0.4,0.6,0.8c0.1,1.3,0.5,2.4,1,3.1c0.7,0.9,1.6,1.4,2.7,1.4c0.2,0,0.3,0,0.5,0c2.1-0.3,4.2-1.8,6.4-4.7
		c0.2-0.3,0.6-0.4,0.9-0.3c0.4,0.1,0.6,0.4,0.7,0.7c0.1,0.6,0.3,1.1,0.6,1.5c0.6,0.8,1.5,1.3,2.5,1.3c0.2,0,0.4,0,0.5,0
		c2.4-0.3,5-2.7,7.9-7.3c0.2-0.3,0.6-0.5,1-0.4s0.7,0.4,0.7,0.8c0.2,1.3,0.7,2.4,1.3,3.2c1,1.3,2.5,2,4.1,1.8c3-0.4,5.7-2.3,8.6-5.9
		c0.2-0.3,0.6-0.4,1-0.3s0.6,0.4,0.7,0.8c0.1,1,0.4,1.8,0.8,2.4c0.6,0.8,1.4,1.2,2.4,1.2c0.2,0,0.3,0,0.5,0c1-0.1,2.1-0.6,3.3-1.5
		c0.3-0.2,0.8-0.2,1.1,0c0.3,0.3,0.4,0.7,0.3,1.1c-1.8,4-3.5,7.8-5.1,11.3c-1,2.1-1.7,4.1-2.3,6c-0.1,0.3-0.4,0.6-0.7,0.6
		c-16.3,4.1-31.9,8.9-46.4,14.2c0,0-0.1,0-0.1,0.1v0.1l0.6,1.7c0,0.1,0.1,0.1,0.1,0.1c13.6-5,28.5-9.6,44.3-13.6
		c0.3-0.1,0.6,0,0.8,0.2s0.4,0.5,0.3,0.8c-0.1,1.8,0.1,3.1,0.7,4c0.6,0.8,1.4,1.1,2.4,1c1.3-0.2,3.3-1.7,5.7-8
		c0.5-0.5,0.8-0.7,1.1-0.8c40.2-9.3,83.1-14.2,124.1-14.3c0.1,0,0.1-0.1,0.1-0.1v-1.8v-0.1h-0.1c-40.8,0-83,4.8-122.2,13.7
		c-0.4,0.1-0.7,0-0.9-0.3c-0.2-0.2-0.3-0.6-0.2-0.9c1.6-5.5,3-11.9,3.8-16.3c0.1-0.3,0.3-0.6,0.6-0.7s0.7-0.1,0.9,0.2
		c0.9,0.7,2,1.1,3.2,1.1c0.3,0,0.6,0,0.9-0.1c3.4-0.5,6.3-2.2,8.9-5.6c0.2-0.3,0.6-0.4,1-0.3s0.6,0.4,0.7,0.8c0.1,1.1,0.5,1.9,1,2.5
		c0.6,0.8,1.5,1.2,2.5,1.2c0.2,0,0.3,0,0.5,0c1.7-0.2,3.7-1.6,5.7-3.8c0.2-0.2,0.5-0.3,0.8-0.3c0.5,0,0.9,0,1.4,0
		c8.6-1.2,14.6-15.1,19.2-26.4c0.1-0.3,0.3-0.5,0.6-0.6s0.6,0,0.8,0.1c1,0.7,1.6,1.5,1.9,2.3c0.4,1.1,0.3,2.4-0.4,3.9
		c-4.8,9.7-6.1,16-4.1,18.9c0.7,0.9,1.7,1.4,2.8,1.4c0.2,0,0.4,0,0.6,0c4.6-0.6,8.1-5.8,12.3-14c0.5-0.9,0.9-1.9,1.4-2.8V59
		c2.2-4.4,4.7-9.3,6.1-10.7c0.3-0.3,0.7-0.4,1.1-0.2c0.4,0.2,0.6,0.5,0.5,0.9c-0.2,2.5-2.8,9.6-7.6,20.4c-0.4,0.9-0.8,1.7-1.1,2.5
		l-0.1,0.2c0,0.1,0,0.2,0.1,0.2l1.6,0.7h0.1c0,0,0.1,0,0.1-0.1c0.4-0.9,0.8-1.8,1.1-2.6c0.8-1.6,1.5-3,2.3-4.4l0.1-0.2
		c6.4-12.6,9.4-18.3,13.8-19.3c0.3-0.1,0.6,0,0.8,0.2s0.3,0.5,0.3,0.8c-0.1,1.8-1.9,6.2-5.2,13.1c-2.4,4.9-3.1,8.6-1.8,10.3
		c0.3,0.5,1,1.1,2.2,1.1c0.2,0,0.4,0,0.5,0c2.4-0.3,5.1-2.4,8-6.1c0.2-0.3,0.7-0.4,1-0.3c0.4,0.1,0.6,0.5,0.6,0.9
		c0,1.1,0.3,1.9,0.7,2.6c0.7,0.9,1.7,1.3,3.1,1.1c2.6-0.3,5.3-2.4,8.2-6.1c0.2-0.3,0.6-0.4,1-0.3c0.4,0.1,0.6,0.4,0.7,0.7
		c0.2,1,0.5,1.8,0.9,2.4c0.7,0.9,1.6,1.4,2.7,1.4c0.2,0,0.3,0,0.5,0c2.1-0.3,4.2-1.8,6.4-4.7c0.2-0.3,0.6-0.4,0.9-0.3
		c0.4,0.1,0.6,0.4,0.7,0.7c0.1,0.6,0.3,1.1,0.6,1.5c0.6,0.8,1.5,1.2,2.5,1.2c0.2,0,0.4,0,0.5,0c3.3-0.4,6.9-4.7,11.5-13.8
		L274.6,52.6C274.7,52.7,274.7,52.6,274.6,52.6z M158,46.5l1.2-2.9c2.1-5.1,5.5-13.7,7.8-17.7c0.2-0.3,0.5-0.5,0.8-0.5
		c0.1,0,0.2,0,0.3,0.1c0.4,0.2,0.7,0.6,0.6,1.1c-0.5,2.4-2.3,9.2-9.1,20.8c-0.2,0.4-0.8,0.6-1.2,0.4C158,47.4,157.8,46.9,158,46.5z
		 M94.6,87.3c-0.1,0-0.1,0-0.2,0c-0.4,0-0.7-0.2-1-0.6c-1.2-1.6-1.1-6.1,1.9-12.1c2.6-5.3,7.4-11.3,11.8-11.9c0.2,0,0.3,0,0.4,0
		s0.1,0,0.2,0c0.4,0,0.7,0.3,0.8,0.6c0.3,1.3-0.4,4.6-2.1,8.4c-0.3,0.6-0.5,1.2-0.8,1.7C99.6,85.4,96.4,87.1,94.6,87.3z
		 M137.9,103.8c-0.8,1.9-1.6,3.1-2.2,3.7c-0.3,0.2-0.6,0.3-0.9,0.2c-0.3-0.1-0.6-0.4-0.6-0.7c-0.1-0.5-0.2-1.6,0.1-3.3
		c0.1-0.4,0.3-0.6,0.7-0.7l1.8-0.5c0.1,0,0.1,0,0.2,0c0.3,0,0.5,0.1,0.7,0.3C138,103.1,138,103.5,137.9,103.8z M142.5,87.9
		c-0.9,4.2-1.9,8-3,11.1c-0.1,0.3-0.4,0.5-0.7,0.6c-0.7,0.2-1.4,0.3-2.1,0.5h-0.1c-0.2,0.3-0.6,0.2-0.8-0.1s-0.3-0.6-0.2-1
		c0.4-1.1,0.9-2.2,1.4-3.4c1.6-3.4,2.7-5.9,3.7-8.2c0.2-0.3,0.5-0.6,0.9-0.6c0.1,0,0.2,0,0.3,0C142.4,87,142.6,87.4,142.5,87.9z
		 M169.5,76c-1.4,1.4-2.6,2.1-3.5,2.3c-0.1,0-0.2,0-0.3,0s-0.3,0-0.3,0c-0.2-0.1-0.3-0.2-0.5-0.3c-0.8-1.3-0.8-4.3,0.2-7.9
		c0.1-0.4,0.5-0.7,0.9-0.7s0.8,0.3,0.9,0.7c0.6,1.9,1.5,3.5,2.6,4.5c0.2,0.2,0.3,0.4,0.3,0.7S169.7,75.8,169.5,76z M172.1,72.8
		c-0.2,0.2-0.4,0.4-0.7,0.4s-0.6-0.1-0.8-0.3c-1.1-1.1-1.7-2.8-2-4c-0.7-3.3,0.6-8.2,3.3-12.3c1.7-2.5,3.6-4.1,5.1-4.3
		c0.1,0,0.2,0,0.2,0c0.3,0,0.6,0.1,0.7,0.4c1.2,1.6,0.7,6.4-1.4,11.7C175,68.3,173.3,71.1,172.1,72.8z M251.4,66.1
		c-0.1,0-0.1,0-0.2,0c-0.4,0-0.7-0.2-1-0.6c-1.2-1.6-1.1-6.1,1.9-12c2.6-5.3,7.4-11.3,11.8-11.9c0.2,0,0.4,0,0.6,0
		c0.4,0,0.7,0.3,0.8,0.6c0.3,1.3-0.5,4.6-2.1,8.3c-0.3,0.7-0.5,1.2-0.8,1.7C256.4,64.2,253.2,65.9,251.4,66.1z"/>
	<path class="st0" d="M144.3,50.7c0.1,0,0.2,0,0.3,0c0.5-0.1,1-0.4,1.3-0.8c0.3-0.5,0.4-1,0.2-1.6c-0.3-0.9-1.1-1.6-2-1.6
		c-0.1,0-0.2,0-0.3,0c-0.5,0.1-1,0.4-1.3,0.8c-0.3,0.5-0.4,1-0.2,1.6C142.5,50,143.3,50.7,144.3,50.7z"/>
	<path class="st0" d="M246.4,36.9c0.1,0,0.2,0,0.3,0c0.5-0.1,1-0.4,1.3-0.8c0.3-0.5,0.4-1,0.2-1.6c-0.3-1-1.3-1.7-2.3-1.6
		c-0.5,0.1-1,0.4-1.3,0.8c-0.3,0.5-0.4,1-0.2,1.6C244.6,36.2,245.4,36.9,246.4,36.9z"/>
</g>
</svg>
