<svg viewBox="0 0 103.51766 103.9152" xmlns="http://www.w3.org/2000/svg"><g fill="#0743ff"><path d="m6.86409 66.99527a5.20967 5.20967 0 0 1 7.19238 2.61914 5.22834 5.22834 0 1 1 -9.46582 4.42578 5.23224 5.23224 0 0 1 2.27344-7.04492zm3.47949 7.4121a2.77246 2.77246 0 1 0 -2.34472-5.01562 2.77468 2.77468 0 0 0 2.34472 5.01562z"/><path d="m.16634 57.48648-.16065-3.89648c-.0874-2.10449.82666-3.59961 3.07422-3.69238 2.312-.0957 3.376 1.10937 3.46875 3.33008l.05957 1.4414 3.24756-.13281.105 2.54492zm4.38916-2.73148-.01758-.42871c-.03809-.92285-.07617-1.83105-1.27-1.78223-1.23535.05078-1.21338.89649-1.17236 1.88282l.01758.42968z"/><path d="m4.42513 37.02456 1.55957.499.87549-2.73731 2.05517.65625-.87451 2.73828 1.61035.51367.92188-2.88574 2.05615.65723-1.69776 5.3125-9.33789-2.98239 1.69629-5.31348 2.05664.65625z"/><path d="m8.70394 22.74429 1.61865-1.96777 7.59277.20312.01563-.01953-4.62744-3.80762 1.61865-1.9668 7.56836 6.22559-1.61768 1.96777-7.60254-.21093-.01611.0205 4.63677 3.81446-1.61768 1.96777z"/><path d="m30.181 4.5773 2.40771-.833 6.3706 4.1377.0249-.00879-1.95947-5.66408 2.4082-.833 3.20506 9.26367-2.40772.833-6.375-4.14941-.0249.00879 1.96389 5.67582-2.40821.833z"/><path d="m61.68831 5.56558a5.41789 5.41789 0 0 1 -10.78564-1.041 5.4319 5.4319 0 0 1 10.78564 1.041zm-8.14941-.77344a2.77184 2.77184 0 1 0 5.50976.53223 2.7741 2.7741 0 0 0 -5.50976-.53223z"/><path d="m73.38362 11.79019.02149.01367 5.10937-4.26563 1.7168 1.08008-1.74219 6.38379.022.01367 4.93409-4.376 2.24414 1.41211-7.87012 6.6289-2.2012-1.38378 1.57226-5.72363-.02246-.01367-4.6538 3.78517-2.189-1.377 2.74268-9.85644 2.24462 1.41308z"/><path d="m96.34651 35.82046a5.215 5.215 0 0 1 -7.25488-2.459 5.232 5.232 0 1 1 9.37061-4.64063 5.236 5.236 0 0 1 -2.11573 7.09963zm-3.64746-7.33691a2.77436 2.77436 0 1 0 2.459 4.96484 2.77662 2.77662 0 0 0 -2.459-4.96484z"/><path d="m103.2596 45.214.24512 3.89355c.13281 2.10156-.749 3.61621-2.99414 3.75879-2.3086.14453-3.40039-1.03711-3.54053-3.25586l-.09033-1.44043-3.24463.2041-.15967-2.543zm-4.3296 2.82716.02734.42774c.05713.92187.11475 1.83008 1.30909 1.75488 1.23242-.07812 1.19287-.92187 1.13086-1.9082l-.02784-.42871z"/><path d="m99.45687 65.72671-1.57032-.46387-.81347 2.75586-2.07032-.61133.814-2.75585-1.62161-.47852-.85791 2.90625-2.06983-.61133 1.58008-5.34961 9.40137 2.77539-1.5791 5.34961-2.07032-.61131z"/><path d="m95.49642 80.10464-1.57569 2.00195-7.59473-.03711-.01563.01954 4.709 3.70507-1.57422 2.00291-7.70315-6.05955 1.57569-2.00195 7.60351.04492.0166-.02051-4.72019-3.71191 1.57568-2.00293z"/><path d="m74.44173 98.73941-2.38721.88671-6.459-3.99218-.02393.00879 2.085 5.61621-2.38769.88672-3.41016-9.18555 2.3877-.88574 6.46289 4.0039.02392-.00879-2.08935-5.62793 2.3872-.88671z"/><path d="m42.89632 98.47085a5.436 5.436 0 1 1 5.03613 5.42871 5.21372 5.21372 0 0 1 -5.03613-5.42871zm8.16943.58887a2.77269 2.77269 0 1 0 -5.522-.40723 2.77481 2.77481 0 0 0 5.522.40723z"/><path d="m31.08284 92.507-.02246-.01269-5.01367 4.37988-1.74072-1.041 1.59912-6.42286-.02246-.01269-4.83594 4.48633-2.27588-1.36133 7.72217-6.8057 2.23193 1.335-1.44385 5.75781.02247.01269 4.56787-3.88867 2.22168 1.32813-2.522 9.916-2.27636-1.36133z"/><ellipse cx="37.45187" cy="39.64834" rx="2.78209" ry="6.20619"/><ellipse cx="66.91206" cy="39.64834" rx="2.78209" ry="6.20619"/><path d="m51.76741 72.25308c-10.148 0-19.19385-5.04688-23.04638-12.85742a2.00026 2.00026 0 1 1 3.58789-1.76954c3.18359 6.45606 10.82177 10.627 19.45849 10.627 8.63721 0 16.27539-4.1709 19.4585-10.627a2.00026 2.00026 0 1 1 3.58789 1.76954c-3.85156 7.81054-12.89795 12.85742-23.04639 12.85742z"/></g></svg>