<?xml version="1.0" encoding="UTF-8" standalone="no"?>
<svg width="131px" height="137px" viewBox="0 0 131 137" version="1.1" xmlns="http://www.w3.org/2000/svg" xmlns:xlink="http://www.w3.org/1999/xlink">
    <!-- Generator: Sketch 39.1 (31720) - http://www.bohemiancoding.com/sketch -->
    <title>S.C.C.C-mono</title>
    <desc>Created with Sketch.</desc>
    <defs></defs>
    <g id="Page-1" stroke="none" stroke-width="1" fill="none" fill-rule="evenodd">
        <g id="Home-Page" transform="translate(-1159.000000, -2487.000000)" fill="#0743FF">
            <g id="S.C.C.C-mono" transform="translate(1159.000000, 2487.360390)">
                <g id="Layer_1">
                    <g id="Group">
                        <path d="M111.262234,76.3928807 C111.150056,76.2807032 111.037879,76.1685257 110.813524,76.1685257 L108.009086,76.1685257 C107.784731,76.1685257 107.448198,76.3928807 107.448198,76.6172357 C103.185453,98.2674941 84.1152774,114.084522 62.016309,114.084522 C47.0967009,114.084522 33.0745128,106.792984 24.3246674,94.677814 C24.2124899,94.5656365 24.2124899,94.453459 24.2124899,94.3412814 C24.2124899,94.2291039 24.3246674,94.1169264 24.4368449,94.0047489 C26.680395,92.4342639 28.5874126,90.3028913 29.7091877,87.7228087 C29.8213652,87.6106312 29.9335427,87.4984537 30.1578977,87.4984537 C30.2700752,87.4984537 30.4944302,87.6106312 30.4944302,87.7228087 C37.4494355,98.6040266 49.115896,104.998144 62.016309,104.998144 C82.5447924,104.998144 99.3714181,88.2836962 99.3714181,67.6430353 C99.3714181,47.0023745 82.4326149,30.5122813 61.9041315,30.5122813 C49.115896,30.5122813 37.337258,37.0185765 30.3822527,47.787617 C30.2700752,47.8997945 30.1578977,47.8997945 29.9335427,48.011972 C29.8213652,48.011972 29.5970102,47.8997945 29.5970102,47.787617 C28.3630576,45.3197119 26.5682175,43.0761618 24.3246674,41.5056767 C24.2124899,41.3934992 24.2124899,41.2813217 24.1003124,41.1691442 C24.1003124,41.0569667 24.1003124,40.9447892 24.2124899,40.8326117 C32.9623353,28.7174412 46.9845234,21.4259034 61.9041315,21.4259034 C84.0030999,21.4259034 103.185453,37.1307541 107.336021,58.89319 C107.336021,59.117545 107.672553,59.3419 107.896908,59.3419 L110.701346,59.3419 C110.925701,59.3419 111.037879,59.2297225 111.150056,59.117545 C111.262234,59.0053675 111.262234,58.7810125 111.262234,58.668835 C106.887311,34.7750265 86.1344725,17.4996907 61.791954,17.4996907 C45.4140383,17.4996907 29.9335427,25.6886486 20.5106323,39.2621266 C20.3984548,39.3743041 20.2862773,39.4864817 20.0619223,39.4864817 C18.6036147,39.0377716 17.1453071,38.8134166 15.6869996,38.8134166 C7.16150921,38.8134166 0.20650392,45.7684219 0.20650392,54.2939123 C0.20650392,60.8002075 4.02053908,65.6238402 11.4242544,68.5404554 C11.5364319,68.6526329 11.6486094,68.7648104 11.7607869,68.9891654 C11.9851419,77.0659457 14.1165145,85.1427261 18.0427272,92.0977314 C18.1549047,92.2099089 18.1549047,92.3220864 18.0427272,92.5464414 C17.9305497,92.6586189 17.8183722,92.7707964 17.7061947,92.7707964 C17.0331296,92.8829739 16.3600646,92.8829739 15.7991771,92.8829739 C9.74159182,92.8829739 4.69360411,88.1715187 4.24489409,82.1139334 C4.24489409,81.7774009 4.02053908,81.5530459 3.68400657,81.5530459 L0.879568948,81.5530459 C0.767391444,81.5530459 0.543036434,81.6652234 0.43085893,81.7774009 C0.318681425,81.8895784 0.318681425,82.0017559 0.318681425,82.2261109 C0.767391444,90.3028913 7.72239673,96.9213641 15.7991771,96.9213641 C17.2574846,96.9213641 18.8279697,96.697009 20.2862773,96.248299 C20.3984548,96.248299 20.5106323,96.3604765 20.6228098,96.472654 C30.0457202,110.046132 45.5262158,118.23509 62.016309,118.23509 C86.24665,118.23509 107.111666,100.959754 111.486589,77.0659457 C111.374411,76.7294132 111.262234,76.5050582 111.262234,76.3928807 L111.262234,76.3928807 Z M25.782975,59.117545 C25.8951525,59.2297225 26.00733,59.3419 26.231685,59.3419 L29.0361226,59.3419 C29.2604776,59.3419 29.4848326,59.117545 29.5970102,58.89319 C33.5232228,44.4222919 46.7601684,34.3263164 61.791954,34.3263164 C80.1890648,34.3263164 95.2208504,49.2459246 95.2208504,67.7552128 C95.2208504,86.2645011 80.1890648,101.184109 61.791954,101.184109 C48.3306534,101.184109 36.3276604,93.2195064 31.0553177,80.7678034 L31.0553177,80.4312709 C30.7187852,75.0467506 27.6899926,70.896183 22.0811173,68.0917453 C20.2862773,67.1943253 18.2670822,66.5212603 16.1357096,65.9603728 L16.0235321,65.8481953 C15.7991771,65.8481953 15.6869996,65.6238402 15.6869996,65.3994852 C16.0235321,58.2201249 18.1549047,51.1529421 21.6324073,44.9831794 L21.6324073,44.9831794 C21.7445848,44.8710019 21.7445848,44.7588244 21.9689398,44.7588244 C22.0811173,44.7588244 22.1932948,44.7588244 22.1932948,44.8710019 C25.2220875,47.0023745 27.0169275,50.3676996 27.129105,54.0695573 L27.129105,54.2939123 C26.5682175,55.7522198 26.1195075,57.2105274 25.6707975,58.7810125 C25.6707975,58.7810125 25.6707975,59.0053675 25.782975,59.117545 L25.782975,59.117545 Z M15.7991771,70.1109404 C15.9113546,70.1109404 15.9113546,69.9987629 16.1357096,69.9987629 L16.2478871,69.9987629 C18.7157922,70.7840055 20.7349873,71.6814255 22.4176498,72.691023 C25.6707975,74.8223956 27.2412826,77.7390108 27.2412826,81.3286909 C27.2412826,81.7774009 27.2412826,82.2261109 27.129105,82.674821 C26.7925725,85.9279686 24.9977325,88.9567612 22.3054723,90.8637788 C22.1932948,90.8637788 22.1932948,90.9759563 22.0811173,90.9759563 L21.9689398,90.9759563 C21.8567623,90.9759563 21.7445848,90.8637788 21.6324073,90.7516013 C18.0427272,84.469661 16.0235321,77.7390108 15.6869996,70.5596505 C15.6869996,70.3352954 15.6869996,70.1109404 15.7991771,70.1109404 L15.7991771,70.1109404 Z M17.9305497,43.5248718 C14.453047,49.8068121 12.4338519,56.5374624 11.8729644,63.7168227 C11.8729644,63.8290002 11.7607869,63.9411777 11.6486094,64.0533552 C11.5364319,64.1655327 11.3120769,64.1655327 11.1998994,64.0533552 C6.48844418,61.8098051 4.13271658,58.5566575 4.13271658,54.1817348 C4.13271658,47.787617 9.2928818,42.6274518 15.6869996,42.6274518 C16.3600646,42.6274518 16.9209521,42.6274518 17.5940171,42.7396293 C17.7061947,42.7396293 17.8183722,42.8518068 17.9305497,42.9639843 L17.9305497,43.5248718 L17.9305497,43.5248718 Z" id="Shape"></path>
                        <path d="M62.465019,91.7611988 C72.0001069,91.7611988 80.9743073,85.8157911 84.676165,76.9537682 C84.7883425,76.7294132 84.676165,76.6172357 84.676165,76.3928807 C84.5639875,76.2807032 84.3396324,76.1685257 84.2274549,76.1685257 L81.1986623,76.1685257 C80.9743073,76.1685257 80.7499523,76.2807032 80.6377748,76.5050582 C77.2724496,83.4600635 70.2052668,87.8349862 62.5771965,87.8349862 C51.4716236,87.8349862 42.4974232,78.8607858 42.4974232,67.7552128 C42.4974232,56.6496399 51.4716236,47.6754395 62.5771965,47.6754395 C70.2052668,47.6754395 77.2724496,52.1625397 80.6377748,59.0053675 C80.7499523,59.2297225 80.9743073,59.3419 81.1986623,59.3419 L84.2274549,59.3419 C84.4518099,59.3419 84.5639875,59.2297225 84.676165,59.117545 C84.7883425,59.0053675 84.7883425,58.7810125 84.676165,58.5566575 C80.8621298,49.6946346 72.0001069,43.7492268 62.465019,43.7492268 C49.2280735,43.7492268 38.459033,54.5182673 38.459033,67.7552128 C38.459033,80.9921584 49.115896,91.7611988 62.465019,91.7611988 L62.465019,91.7611988 Z" id="Shape"></path>
                        <path d="M17.1453071,18.9579983 C17.8183722,19.6310633 18.7157922,19.7432408 19.7253897,19.1823533 L20.1740998,18.8458208 C20.6228098,18.6214658 21.0715198,18.5092883 21.2958748,18.9579983 L21.2958748,19.1823533 C21.2958748,19.5188858 20.9593423,19.8554183 20.8471648,19.8554183 C20.5106323,20.0797733 20.1740998,20.3041283 19.7253897,20.4163059 C19.6132122,20.4163059 19.3888572,20.5284834 19.3888572,20.7528384 C19.2766797,20.8650159 19.2766797,21.0893709 19.3888572,21.2015484 L19.6132122,21.7624359 C19.6132122,21.8746134 19.7253897,21.9867909 19.9497447,22.0989684 L20.1740998,22.0989684 L20.3984548,22.0989684 C21.0715198,21.8746134 21.7445848,21.4259034 22.1932948,20.9771934 C22.7541824,20.4163059 23.3150699,19.7432408 23.4272474,19.0701758 C23.6516024,18.2849333 23.4272474,17.6118682 22.9785374,17.0509807 C22.3054723,16.2657382 21.4080523,16.1535607 20.2862773,16.7144482 L19.7253897,17.0509807 C19.3888572,17.1631582 19.0523247,17.2753357 18.7157922,16.9388032 C18.6036147,16.8266257 18.6036147,16.7144482 18.6036147,16.6022707 C18.6036147,16.2657382 18.9401472,16.0413832 18.9401472,16.0413832 C19.1645022,15.8170282 19.5010347,15.7048507 19.8375672,15.5926732 C19.9497447,15.5926732 20.0619223,15.4804956 20.1740998,15.2561406 C20.2862773,15.1439631 20.2862773,14.9196081 20.1740998,14.8074306 L20.0619223,14.3587206 C19.9497447,14.0221881 19.6132122,13.9100106 19.2766797,14.0221881 C18.7157922,14.2465431 18.2670822,14.4708981 17.8183722,14.8074306 C16.9209521,15.7048507 15.9113546,17.4996907 17.1453071,18.9579983 L17.1453071,18.9579983 L17.1453071,18.9579983 Z" id="Shape"></path>
                        <path d="M33.4110453,13.0125905 C34.0841103,13.0125905 34.7571754,12.900413 35.3180629,12.5638805 C37.4494355,11.554283 38.234678,9.42291039 37.337258,7.40371531 C36.888548,6.39411777 36.1033054,5.72105274 35.0937079,5.49669773 C34.1962878,5.16016522 33.0745128,5.27234272 32.0649153,5.83323024 C31.0553177,6.28194026 30.2700752,7.0671828 29.9335427,7.96460283 C29.4848326,8.97420038 29.5970102,9.98379792 30.0457202,10.9933955 C30.7187852,12.227348 31.9527377,13.0125905 33.4110453,13.0125905 L33.4110453,13.0125905 Z M32.9623353,7.62807032 C33.1866903,7.51589281 33.4110453,7.40371531 33.7475778,7.40371531 C33.9719328,7.40371531 34.1962878,7.40371531 34.3084653,7.51589281 C34.7571754,7.62807032 34.9815304,7.96460283 35.2058854,8.41331285 C35.6545954,9.31073289 35.3180629,10.2081529 34.4206429,10.6568629 C33.9719328,10.881218 33.5232228,10.881218 33.1866903,10.7690405 C32.7379803,10.6568629 32.4014478,10.3203304 32.1770928,9.87162041 C31.8405602,8.97420038 32.1770928,8.07678034 32.9623353,7.62807032 L32.9623353,7.62807032 L32.9623353,7.62807032 Z" id="Shape"></path>
                        <path d="M47.7697659,7.74024782 C47.9941209,7.85242533 48.2184759,7.96460283 48.5550084,7.96460283 L48.891541,7.96460283 C49.564606,7.85242533 50.013316,7.29153781 49.9011385,6.61847278 C49.788961,6.28194026 49.564606,6.05758525 49.340251,5.94540775 C49.115896,5.83323024 48.6671859,5.83323024 48.4428309,5.83323024 C48.1062984,5.94540775 47.6575884,6.16976276 47.5454109,6.39411777 C47.4332334,6.61847278 47.3210559,6.84282779 47.4332334,7.0671828 C47.4332334,7.40371531 47.5454109,7.51589281 47.7697659,7.74024782 L47.7697659,7.74024782 Z" id="Shape"></path>
                        <path d="M74.468012,7.74024782 C74.8045445,7.85242533 75.2532546,7.85242533 75.8141421,7.85242533 L75.8141421,7.85242533 C76.0384971,7.85242533 76.3750296,7.62807032 76.3750296,7.40371531 L76.5993846,6.61847278 C76.5993846,6.39411777 76.5993846,6.28194026 76.4872071,6.05758525 C76.3750296,5.94540775 76.1506746,5.83323024 76.0384971,5.83323024 L75.8141421,5.83323024 L75.3654321,5.83323024 C74.916722,5.72105274 74.468012,5.49669773 74.243657,5.16016522 C74.019302,4.8236327 73.9071245,4.26274518 73.9071245,3.81403516 C74.1314795,2.91661512 75.0288996,2.24355009 75.9263196,2.4679051 C76.1506746,2.4679051 76.3750296,2.58008261 76.4872071,2.69226011 C76.5993846,2.80443762 76.8237396,2.80443762 77.0480946,2.69226011 C77.2724496,2.58008261 77.3846271,2.4679051 77.3846271,2.24355009 L77.4968047,1.34613006 C77.4968047,1.12177505 77.3846271,0.785242533 77.1602721,0.673065028 C76.8237396,0.560887523 76.3750296,0.336532514 76.0384971,0.336532514 C73.9071245,-0.112177505 72.0001069,1.23395255 71.5513969,3.36532514 C71.3270419,4.37492268 71.5513969,5.27234272 72.1122844,6.16976276 C72.673172,7.0671828 73.570592,7.51589281 74.468012,7.74024782 L74.468012,7.74024782 Z" id="Shape"></path>
                        <path d="M85.124875,10.7690405 L86.24665,11.329928 C86.471005,11.4421055 86.8075375,11.329928 86.919715,11.2177505 L87.0318926,11.105573 C87.1440701,10.9933955 87.3684251,10.881218 87.5927801,10.9933955 L89.1632651,11.778638 C89.3876202,11.8908155 89.3876202,12.002993 89.3876202,12.227348 L89.3876202,12.451703 C89.3876202,12.676058 89.4997977,13.0125905 89.7241527,13.124768 L90.8459277,13.6856556 L91.0702827,13.6856556 C91.1824602,13.6856556 91.2946377,13.6856556 91.4068152,13.5734781 C91.5189927,13.4613006 91.6311702,13.3491231 91.7433478,13.124768 L92.3042353,6.73065028 C92.3042353,6.50629527 92.1920578,6.28194026 91.9677028,6.16976276 L90.1728627,5.38452023 C89.9485077,5.27234272 89.7241527,5.27234272 89.4997977,5.49669773 L85.0126975,10.0959754 C84.90052,10.2081529 84.7883425,10.4325079 84.90052,10.6568629 C84.90052,10.5446854 85.0126975,10.7690405 85.124875,10.7690405 L85.124875,10.7690405 Z M88.7145551,9.87162041 C88.6023776,9.75944291 88.4902001,9.75944291 88.4902001,9.5350879 C88.4902001,9.42291039 88.4902001,9.31073289 88.6023776,9.19855538 L89.3876202,8.18895784 C89.4997977,8.07678034 89.7241527,7.96460283 89.9485077,8.07678034 C90.1728627,8.18895784 90.2850402,8.41331285 90.1728627,8.52549036 L90.1728627,8.63766786 L89.9485077,9.75944291 C89.9485077,9.87162041 89.8363302,9.98379792 89.7241527,10.0959754 C89.6119752,10.2081529 89.4997977,10.2081529 89.3876202,10.0959754 L88.7145551,9.87162041 L88.7145551,9.87162041 Z" id="Shape"></path>
                        <path d="M102.063678,21.2015484 C102.175856,21.3137259 102.288033,21.3137259 102.400211,21.3137259 L102.512388,21.3137259 C102.624566,21.3137259 102.848921,21.2015484 102.848921,21.0893709 L103.409808,20.4163059 C103.521986,20.3041283 103.521986,20.1919508 103.521986,19.9675958 C103.521986,19.8554183 103.409808,19.6310633 103.297631,19.6310633 L102.288033,18.8458208 C102.175856,18.7336433 102.175856,18.6214658 102.175856,18.5092883 C102.175856,18.3971108 102.175856,18.2849333 102.288033,18.1727558 L104.980293,14.9196081 C105.204648,14.6952531 105.092471,14.2465431 104.868116,14.1343656 L103.970696,13.3491231 C103.858518,13.2369456 103.746341,13.2369456 103.521986,13.2369456 C103.409808,13.2369456 103.185453,13.3491231 103.185453,13.4613006 L99.3714181,18.1727558 C99.1470631,18.3971108 99.2592406,18.8458208 99.4835956,18.9579983 L102.063678,21.2015484 L102.063678,21.2015484 Z" id="Shape"></path>
                        <path d="M110.364814,29.5026837 C110.589169,29.5026837 110.813524,29.3905062 110.925701,29.2783287 C111.150056,29.0539737 111.262234,28.8296187 111.262234,28.4930862 C111.262234,28.1565537 111.150056,27.8200212 110.925701,27.5956662 C110.701346,27.2591336 110.364814,27.1469561 109.803926,27.0347786 C109.579571,27.0347786 109.355216,27.1469561 109.243038,27.2591336 C109.018683,27.4834887 108.906506,27.7078437 108.906506,28.0443762 C108.906506,28.3809087 109.018683,28.7174412 109.243038,28.9417962 C109.691749,29.2783287 110.028281,29.5026837 110.364814,29.5026837 L110.364814,29.5026837 Z" id="Shape"></path>
                        <path d="M121.133854,51.8260072 C121.246031,52.1625397 121.470386,52.7234272 121.582564,53.0599597 C121.694742,53.2843147 121.919097,53.3964922 122.143452,53.3964922 L122.255629,53.3964922 L123.040872,53.1721372 C123.265227,53.1721372 123.377404,52.9477822 123.489582,52.8356047 C123.601759,52.6112497 123.489582,52.4990722 123.489582,52.2747172 C123.377404,52.0503622 123.265227,51.9381847 123.265227,51.7138297 C123.153049,51.2651196 123.153049,50.8164096 123.377404,50.3676996 C123.601759,49.9189896 123.938292,49.6946346 124.387002,49.4702796 C124.723534,49.3581021 125.284422,49.3581021 125.620954,49.5824571 C126.069664,49.8068121 126.294019,50.1433446 126.406197,50.5920546 C126.518374,50.8164096 126.518374,51.0407646 126.518374,51.2651196 C126.518374,51.4894747 126.630552,51.6016522 126.742729,51.7138297 C126.854907,51.8260072 127.079262,51.8260072 127.303617,51.8260072 L128.088859,51.6016522 C128.313214,51.4894747 128.537569,51.2651196 128.537569,51.0407646 C128.537569,50.5920546 128.425392,50.2555221 128.313214,49.8068121 C127.752327,47.787617 125.620954,46.665842 123.601759,47.2267295 C122.592162,47.4510845 121.806919,48.1241495 121.358209,49.0215696 C120.909499,49.9189896 120.797321,50.8164096 121.133854,51.8260072 L121.133854,51.8260072 L121.133854,51.8260072 Z" id="Shape"></path>
                        <path d="M130.444587,62.8194026 C130.444587,62.7072251 130.332409,62.4828701 130.220232,62.3706926 C130.108054,62.2585151 129.995877,62.2585151 129.771522,62.2585151 L123.713937,62.4828701 C123.377404,62.4828701 123.153049,62.8194026 123.153049,63.0437576 L123.153049,64.1655327 C123.153049,64.2777102 123.265227,64.5020652 123.377404,64.6142427 C123.489582,64.7264202 123.601759,64.8385977 123.826114,64.7264202 L124.723534,64.7264202 C124.947889,64.7264202 125.060067,64.8385977 125.172244,65.0629527 C125.172244,65.2873077 125.172244,65.5116627 124.947889,65.5116627 L123.713937,66.1847278 C123.489582,66.2969053 123.377404,66.5212603 123.377404,66.7456153 L123.377404,67.9795678 C123.377404,68.2039229 123.489582,68.4282779 123.713937,68.4282779 C123.826114,68.4282779 123.938292,68.5404554 123.938292,68.5404554 C124.050469,68.5404554 124.162647,68.5404554 124.274824,68.4282779 L125.508777,67.5308578 L125.733132,67.3065028 C125.845309,67.1943253 125.845309,67.1943253 126.181842,67.1943253 C126.294019,67.1943253 126.406197,67.3065028 126.518374,67.4186803 C126.854907,68.0917453 127.191439,68.4282779 128.201037,68.4282779 L128.201037,68.4282779 C128.986279,68.4282779 129.547167,68.0917453 129.995877,67.6430353 C130.444587,67.0821478 130.556764,66.2969053 130.556764,65.3994852 L130.444587,62.8194026 L130.444587,62.8194026 Z M127.415794,65.9603728 C127.191439,65.7360178 127.191439,65.2873077 127.079262,65.0629527 C127.079262,64.9507752 127.079262,64.8385977 127.191439,64.7264202 C127.303617,64.6142427 127.415794,64.6142427 127.527972,64.6142427 L128.425392,64.6142427 C128.537569,64.6142427 128.649747,64.6142427 128.761924,64.7264202 C128.874102,64.8385977 128.874102,64.9507752 128.874102,65.0629527 C128.874102,65.5116627 128.761924,65.7360178 128.649747,65.9603728 C128.649747,65.9603728 128.425392,66.1847278 128.088859,66.2969053 C127.752327,66.4090828 127.415794,65.9603728 127.415794,65.9603728 L127.415794,65.9603728 Z" id="Shape"></path>
                        <path d="M123.489582,77.6268332 C123.377404,77.5146557 123.153049,77.5146557 122.928694,77.6268332 C122.704339,77.7390108 122.592162,77.8511883 122.592162,78.0755433 L122.367807,79.1973183 C122.255629,79.4216733 122.479984,79.7582058 122.704339,79.8703833 L122.816517,79.9825608 C123.040872,80.0947384 123.153049,80.3190934 123.040872,80.4312709 L122.704339,82.1139334 C122.704339,82.3382884 122.479984,82.450466 122.255629,82.450466 L122.031274,82.450466 C121.806919,82.450466 121.582564,82.674821 121.470386,82.899176 L121.246031,84.1331285 C121.246031,84.3574835 121.246031,84.469661 121.358209,84.694016 C121.470386,84.8061935 121.582564,84.9183711 121.806919,84.9183711 L121.919097,84.9183711 L128.313214,84.1331285 C128.537569,84.1331285 128.761924,83.9087735 128.761924,83.6844185 L129.210634,81.7774009 C129.210634,81.5530459 129.210634,81.3286909 128.986279,81.1043359 L123.489582,77.6268332 L123.489582,77.6268332 Z M124.274824,81.2165134 C124.274824,81.1043359 124.387002,80.9921584 124.499179,80.8799809 L124.723534,80.8799809 L124.947889,80.8799809 L126.069664,81.4408684 C126.294019,81.5530459 126.406197,81.7774009 126.294019,81.8895784 C126.294019,82.1139334 126.069664,82.2261109 125.733132,82.2261109 L124.611357,82.2261109 C124.499179,82.2261109 124.387002,82.1139334 124.274824,82.1139334 C124.162647,82.0017559 124.162647,81.8895784 124.162647,81.7774009 L124.274824,81.2165134 L124.274824,81.2165134 Z" id="Shape"></path>
                        <path d="M123.938292,96.023944 L118.441594,93.3316839 C118.329416,93.2195064 118.105061,93.2195064 117.992884,93.3316839 C117.880706,93.3316839 117.768529,93.4438614 117.656351,93.6682164 L117.095464,94.7899915 C116.983286,95.126524 117.095464,95.4630565 117.319819,95.575234 L118.778126,96.3604765 C118.890304,96.3604765 119.002481,96.472654 119.002481,96.5848315 L119.002481,96.9213641 L118.553771,97.8187841 C118.441594,98.1553166 118.553771,98.4918491 118.778126,98.6040266 L119.114659,98.8283816 C119.451191,98.9405591 119.787724,98.8283816 119.899901,98.6040266 L120.348611,97.7066066 C120.348611,97.5944291 120.460789,97.4822516 120.572966,97.4822516 L120.909499,97.4822516 L121.246031,97.5944291 C121.470386,97.7066066 121.582564,97.9309616 121.470386,98.1553166 L120.909499,99.3892692 C120.797321,99.7258017 120.909499,100.062334 121.133854,100.174512 L121.694742,100.398867 C121.806919,100.398867 121.919097,100.511044 121.919097,100.511044 L122.143452,100.511044 C122.255629,100.511044 122.367807,100.398867 122.479984,100.174512 L124.050469,97.0335416 C124.162647,96.9213641 124.162647,96.697009 124.050469,96.5848315 C124.162647,96.1361215 124.050469,96.023944 123.938292,96.023944 L123.938292,96.023944 Z" id="Shape"></path>
                        <path d="M115.749334,108.139115 C115.637156,108.026937 115.412801,108.026937 115.300624,108.026937 C115.188446,108.026937 114.964091,108.139115 114.851914,108.251292 L114.627559,108.587825 C114.515381,108.700002 114.403204,108.700002 114.291026,108.81218 C114.178849,108.81218 114.066671,108.81218 114.066671,108.700002 L110.813524,106.007742 C110.701346,105.895564 110.589169,105.895564 110.364814,105.895564 C110.252636,105.895564 110.028281,106.007742 109.916104,106.119919 L109.130861,107.017339 C108.906506,107.241694 109.018683,107.578227 109.243038,107.802582 L112.496186,110.494842 C112.608364,110.60702 112.608364,110.719197 112.608364,110.831375 C112.608364,110.943552 112.608364,111.05573 112.496186,111.167907 L112.159654,111.50444 C112.047476,111.616617 112.047476,111.728795 112.047476,111.95315 C112.047476,112.065327 112.159654,112.289682 112.271831,112.40186 L112.944896,112.962747 C113.057074,113.074925 113.169251,113.074925 113.281429,113.074925 L113.393606,113.074925 C113.505784,113.074925 113.730139,112.962747 113.842316,112.85057 L116.534576,109.485245 C116.758931,109.26089 116.646754,108.924357 116.422399,108.700002 L115.749334,108.139115 L115.749334,108.139115 Z" id="Shape"></path>
                        <path d="M91.5189927,122.72219 C90.6215727,122.385658 89.6119752,122.497835 88.7145551,122.946545 C88.3780226,123.1709 87.9293126,123.395255 87.5927801,123.61961 C87.3684251,123.731788 87.2562476,124.06832 87.3684251,124.292675 L87.7049576,125.077918 C87.8171351,125.190095 87.9293126,125.41445 88.1536676,125.41445 C88.3780226,125.41445 88.4902001,125.41445 88.7145551,125.302273 C88.8267326,125.190095 89.0510876,125.077918 89.1632651,124.96574 C89.6119752,124.741385 90.0606852,124.741385 90.5093952,124.853563 C90.9581052,124.96574 91.2946377,125.302273 91.5189927,125.638805 C91.9677028,126.536225 91.6311702,127.545823 90.7337502,127.994533 C90.5093952,128.10671 90.3972177,128.10671 90.1728627,128.218888 C89.9485077,128.218888 89.8363302,128.331065 89.7241527,128.55542 C89.6119752,128.667598 89.6119752,128.891953 89.7241527,129.116308 L90.1728627,129.90155 C90.2850402,130.125905 90.5093952,130.238083 90.7337502,130.238083 L90.8459277,130.238083 C91.2946377,130.125905 91.6311702,130.013728 91.9677028,129.789373 C92.8651228,129.340663 93.5381878,128.55542 93.8747203,127.545823 C94.2112529,126.536225 94.0990753,125.526628 93.6503653,124.629208 C93.2016553,123.731788 92.4164128,123.058723 91.5189927,122.72219 L91.5189927,122.72219 Z" id="Shape"></path>
                        <path d="M74.916722,127.658 C72.673172,128.10671 71.3270419,130.013728 71.7757519,132.145101 C72.1122844,133.939941 73.6827695,135.061716 75.4776096,135.061716 C75.8141421,135.061716 76.1506746,135.061716 76.4872071,134.949538 C77.6089822,134.725183 78.5064022,134.164296 79.0672897,133.379053 C79.6281772,132.481633 79.8525323,131.584213 79.6281772,130.462438 C79.1794672,128.443243 77.1602721,127.20929 74.916722,127.658 L74.916722,127.658 Z M74.243657,130.35026 C74.468012,130.013728 74.8045445,129.789373 75.3654321,129.677195 L75.7019646,129.677195 C76.0384971,129.677195 76.2628521,129.789373 76.4872071,129.90155 C76.8237396,130.125905 77.1602721,130.574615 77.2724496,131.023325 C77.3846271,131.472036 77.2724496,131.920746 77.0480946,132.369456 C76.8237396,132.818166 76.4872071,133.042521 76.0384971,133.042521 C75.5897871,133.154698 75.1410771,133.042521 74.692367,132.818166 C74.3558345,132.593811 74.1314795,132.145101 74.019302,131.696391 C74.019302,131.135503 74.019302,130.686793 74.243657,130.35026 L74.243657,130.35026 Z" id="Shape"></path>
                        <path d="M61.4554215,129.228485 L60.2214689,129.228485 L60.2214689,129.228485 C59.8849364,129.228485 59.6605814,129.45284 59.6605814,129.789373 L59.5484039,131.472036 C59.5484039,131.584213 59.5484039,131.696391 59.4362264,131.808568 C59.3240489,131.920746 59.2118714,131.920746 59.0996939,131.920746 L59.0996939,131.920746 L58.0900963,131.920746 C57.9779188,131.920746 57.7535638,131.920746 57.6413863,132.032923 C57.5292088,132.145101 57.4170313,132.257278 57.4170313,132.481633 L57.4170313,132.930343 C57.4170313,133.266876 57.6413863,133.491231 57.9779188,133.491231 L58.9875164,133.491231 C59.0996939,133.491231 59.2118714,133.491231 59.3240489,133.603408 C59.4362264,133.715586 59.4362264,133.827763 59.4362264,133.939941 L59.4362264,134.276473 C59.4362264,134.388651 59.4362264,134.500828 59.3240489,134.613006 C59.2118714,134.725183 59.2118714,134.725183 58.9875164,134.725183 L57.6413863,134.725183 L57.6413863,134.725183 C57.3048538,134.725183 57.0804988,134.949538 57.0804988,135.286071 L57.0804988,135.846958 C57.0804988,135.959136 57.0804988,136.183491 57.1926763,136.295668 C57.3048538,136.407846 57.4170313,136.520023 57.6413863,136.520023 L61.2310665,136.632201 L61.2310665,136.632201 C61.567599,136.632201 61.791954,136.407846 61.791954,136.071313 L62.016309,130.013728 C62.016309,129.90155 62.016309,129.677195 61.9041315,129.565018 C61.6797765,129.340663 61.567599,129.228485 61.4554215,129.228485 L61.4554215,129.228485 Z" id="Shape"></path>
                        <path d="M47.7697659,127.658 L46.6479909,127.321468 C46.3114583,127.20929 45.9749258,127.433645 45.9749258,127.770178 L45.5262158,129.340663 C45.5262158,129.565018 45.3018608,129.677195 44.9653283,129.677195 L43.9557308,129.45284 C43.6191982,129.340663 43.2826657,129.565018 43.2826657,129.90155 L43.1704882,130.238083 C43.1704882,130.35026 43.1704882,130.574615 43.2826657,130.686793 C43.3948432,130.79897 43.5070207,130.911148 43.6191982,130.911148 L44.6287958,131.135503 C44.8531508,131.24768 44.9653283,131.472036 44.9653283,131.696391 L44.8531508,132.032923 C44.8531508,132.257278 44.6287958,132.369456 44.2922633,132.369456 L43.0583107,132.032923 C42.9461332,132.032923 42.7217782,132.032923 42.6096007,132.145101 C42.4974232,132.257278 42.3852457,132.369456 42.3852457,132.481633 L42.2730682,133.042521 C42.2730682,133.154698 42.2730682,133.379053 42.3852457,133.491231 C42.4974232,133.603408 42.6096007,133.715586 42.7217782,133.715586 L46.1992808,134.613006 L46.3114583,134.613006 C46.5358134,134.613006 46.7601684,134.388651 46.8723459,134.164296 L48.4428309,128.331065 C48.4428309,128.218888 48.4428309,127.994533 48.3306534,127.882355 C48.2184759,127.770178 47.8819434,127.658 47.7697659,127.658 L47.7697659,127.658 Z" id="Shape"></path>
                        <path d="M34.8693529,122.946545 L31.6162052,121.263883 C31.2796727,121.151705 30.9431402,121.263883 30.8309627,121.488238 L30.6066077,121.936948 C30.4944302,122.049125 30.4944302,122.27348 30.6066077,122.385658 C30.6066077,122.497835 30.7187852,122.610013 30.9431402,122.72219 L32.1770928,123.395255 C32.4014478,123.507433 32.5136253,123.731788 32.4014478,123.956143 L32.2892703,124.292675 C32.2892703,124.404853 32.1770928,124.51703 31.9527377,124.51703 L31.7283827,124.51703 L30.7187852,123.956143 C30.3822527,123.843965 30.0457202,123.956143 29.9335427,124.180498 L29.7091877,124.51703 C29.5970102,124.629208 29.5970102,124.853563 29.7091877,124.96574 C29.7091877,125.077918 29.8213652,125.190095 30.0457202,125.302273 L31.0553177,125.86316 C31.1674952,125.86316 31.2796727,125.975338 31.2796727,126.087515 L31.2796727,126.424048 L31.1674952,126.648403 C31.1674952,126.76058 31.0553177,126.872758 30.8309627,126.872758 L30.6066077,126.872758 L29.3726551,126.199693 C29.2604776,126.087515 29.0361226,126.087515 28.9239451,126.199693 C28.8117676,126.199693 28.6995901,126.31187 28.5874126,126.536225 L28.3630576,126.984935 C28.2508801,127.321468 28.3630576,127.658 28.5874126,127.770178 L31.7283827,129.45284 C31.8405602,129.45284 31.9527377,129.565018 31.9527377,129.565018 L32.1770928,129.565018 C32.2892703,129.565018 32.4014478,129.45284 32.5136253,129.228485 L35.3180629,123.843965 C35.3180629,123.507433 35.2058854,123.1709 34.8693529,122.946545 L34.8693529,122.946545 Z" id="Shape"></path>
                        <path d="M20.3984548,113.074925 C20.2862773,112.962747 20.1740998,112.962747 19.9497447,112.962747 C19.8375672,112.962747 19.6132122,113.074925 19.5010347,113.187102 L19.1645022,113.523635 C19.0523247,113.635812 19.0523247,113.74799 19.0523247,113.972345 C19.0523247,114.084522 19.1645022,114.308877 19.2766797,114.421055 L20.3984548,115.318475 C20.6228098,115.430652 20.6228098,115.767185 20.3984548,115.99154 L20.1740998,116.215895 C20.0619223,116.328072 19.9497447,116.328072 19.8375672,116.328072 C19.7253897,116.328072 19.6132122,116.328072 19.5010347,116.215895 L18.6036147,115.430652 C18.4914372,115.318475 18.3792597,115.318475 18.1549047,115.318475 C18.0427272,115.318475 17.8183722,115.430652 17.7061947,115.54283 L17.4818396,115.879362 C17.3696621,115.99154 17.3696621,116.103717 17.3696621,116.328072 C17.3696621,116.44025 17.4818396,116.664605 17.5940171,116.776782 L18.4914372,117.562025 C18.6036147,117.674202 18.6036147,117.78638 18.6036147,117.898557 C18.6036147,118.010735 18.6036147,118.122912 18.4914372,118.23509 L18.2670822,118.459445 C18.1549047,118.571622 17.9305497,118.795977 17.7061947,118.459445 L16.6965971,117.562025 C16.5844196,117.449847 16.4722421,117.449847 16.2478871,117.449847 C16.1357096,117.449847 15.9113546,117.562025 15.7991771,117.674202 L15.4626446,118.010735 C15.2382895,118.23509 15.2382895,118.571622 15.5748221,118.795977 L18.2670822,121.151705 C18.3792597,121.263883 18.4914372,121.263883 18.6036147,121.263883 L18.6036147,121.263883 C18.7157922,121.263883 18.9401472,121.151705 19.0523247,121.039528 L22.9785374,116.44025 C23.2028924,116.215895 23.2028924,115.879362 22.8663599,115.655007 L20.3984548,113.074925 L20.3984548,113.074925 Z" id="Shape"></path>
                    </g>
                </g>
            </g>
        </g>
    </g>
</svg>