<svg height="137" viewBox="0 0 131 137" width="131" xmlns="http://www.w3.org/2000/svg"><g fill="#0743ff" fill-rule="evenodd" transform="translate(0 .36039)"><path d="m111.262234 76.3928807c-.112178-.1121775-.224355-.224355-.44871-.224355h-2.804438c-.224355 0-.560888.224355-.560888.44871-4.262745 21.6502584-23.3329206 37.4672863-45.431889 37.4672863-14.9196081 0-28.9417962-7.291538-37.6916416-19.406708-.1121775-.1121775-.1121775-.224355-.1121775-.3365326 0-.1121775.1121775-.224355.224355-.3365325 2.2435501-1.570485 4.1505677-3.7018576 5.2723428-6.2819402.1121775-.1121775.224355-.224355.44871-.224355.1121775 0 .3365325.1121775.3365325.224355 6.9550053 10.8812179 18.6214658 17.2753353 31.5218788 17.2753353 20.5284834 0 37.3551091-16.7144478 37.3551091-37.3551087 0-20.6406608-16.9388032-37.130754-37.4672866-37.130754-12.7882355 0-24.5668735 6.5062952-31.5218788 17.2753357-.1121775.1121775-.224355.1121775-.44871.224355-.1121775 0-.3365325-.1121775-.3365325-.224355-1.2339526-2.4679051-3.0287927-4.7114552-5.2723428-6.2819403-.1121775-.1121775-.1121775-.224355-.224355-.3365325 0-.1121775 0-.224355.1121775-.3365325 8.7498454-12.1151705 22.7720335-19.4067083 37.6916416-19.4067083 22.0989684 0 41.2813215 15.7048507 45.4318895 37.4672866 0 .224355.336532.44871.560887.44871h2.804438c.224355 0 .336533-.1121775.44871-.224355.112178-.1121775.112178-.3365325.112178-.44871-4.374923-23.8938085-25.1277615-41.1691443-49.47028-41.1691443-16.3779157 0-31.8584113 8.1889579-41.2813217 21.7624359-.1121775.1121775-.224355.2243551-.44871.2243551-1.4583076-.4487101-2.9166152-.6730651-4.3749227-.6730651-8.52549039 0-15.48049568 6.9550053-15.48049568 15.4804957 0 6.5062952 3.81403516 11.3299279 11.21775048 14.2465431.1121775.1121775.224355.224355.3365325.44871.224355 8.0767803 2.3557276 16.1535607 6.2819403 23.108566.1121775.1121775.1121775.224355 0 .44871-.1121775.1121775-.224355.224355-.3365325.224355-.6730651.1121775-1.3461301.1121775-1.9070176.1121775-6.05758528 0-11.10557299-4.7114552-11.55428301-10.7690405 0-.3365325-.22435501-.5608875-.56088752-.5608875h-2.80443762c-.11217751 0-.33653252.1121775-.44871002.224355s-.1121775.224355-.1121775.44871c.44871001 8.0767804 7.4037153 14.6952532 15.48049567 14.6952532 1.4583075 0 3.0287926-.2243551 4.4871002-.6730651.1121775 0 .224355.1121775.3365325.224355 9.4229104 13.573478 24.903406 21.762436 41.3934992 21.762436 24.230341 0 45.095357-17.275336 49.47028-41.1691443-.112178-.3365325-.224355-.5608875-.224355-.673065zm-85.479259-17.2753357c.1121775.1121775.224355.224355.44871.224355h2.8044376c.224355 0 .44871-.224355.5608876-.44871 3.9262126-14.4708981 17.1631582-24.5668736 32.1949438-24.5668736 18.3971108 0 33.4288964 14.9196082 33.4288964 33.4288964 0 18.5092883-15.0317856 33.4288962-33.4288964 33.4288962-13.4613006 0-25.4642936-7.9646026-30.7366363-20.4163056v-.3365325c-.3365325-5.3845203-3.3653251-9.5350879-8.9742004-12.3395256-1.79484-.89742-3.8140351-1.570485-5.9454077-2.1313725l-.1121775-.1121775c-.224355 0-.3365325-.2243551-.3365325-.4487101.3365325-7.1793603 2.4679051-14.2465431 5.9454077-20.4163058.1121775-.1121775.1121775-.224355.3365325-.224355.1121775 0 .224355 0 .224355.1121775 3.0287927 2.1313726 4.8236327 5.4966977 4.9358102 9.1985554v.224355c-.5608875 1.4583075-1.0095975 2.9166151-1.4583075 4.4871002 0 0 0 .224355.1121775.3365325zm-9.9837979 10.9933954c.1121775 0 .1121775-.1121775.3365325-.1121775h.1121775c2.4679051.7852426 4.4871002 1.6826626 6.1697627 2.6922601 3.2531477 2.1313726 4.8236328 5.0479878 4.8236328 8.6376679 0 .44871 0 .89742-.1121776 1.3461301-.3365325 3.2531476-2.1313725 6.2819402-4.8236327 8.1889578-.1121775 0-.1121775.1121775-.224355.1121775h-.1121775c-.1121775 0-.224355-.1121775-.3365325-.224355-3.5896801-6.2819403-5.6088752-13.0125905-5.9454077-20.1919508 0-.2243551 0-.4487101.1121775-.4487101zm2.1313726-26.5860686c-3.4775027 6.2819403-5.4966978 13.0125906-6.0575853 20.1919509 0 .1121775-.1121775.224355-.224355.3365325s-.3365325.1121775-.44871 0c-4.71145522-2.2435501-7.06718282-5.4966977-7.06718282-9.8716204 0-6.3941178 5.16016522-11.554283 11.55428302-11.554283.673065 0 1.2339525 0 1.9070175.1121775.1121776 0 .2243551.1121775.3365326.224355z"/><path d="m62.465019 91.7611988c9.5350879 0 18.5092883-5.9454077 22.211146-14.8074306.1121775-.224355 0-.3365325 0-.5608875-.1121775-.1121775-.3365326-.224355-.4487101-.224355h-3.0287926c-.224355 0-.44871.1121775-.5608875.3365325-3.3653252 6.9550053-10.432508 11.329928-18.0605783 11.329928-11.1055729 0-20.0797733-8.9742004-20.0797733-20.0797734 0-11.1055729 8.9742004-20.0797733 20.0797733-20.0797733 7.6280703 0 14.6952531 4.4871002 18.0605783 11.329928.1121775.224355.3365325.3365325.5608875.3365325h3.0287926c.224355 0 .3365326-.1121775.4487101-.224355s.1121775-.3365325 0-.5608875c-3.8140352-8.8620229-12.6760581-14.8074307-22.211146-14.8074307-13.2369455 0-24.005986 10.7690405-24.005986 24.005986 0 13.2369456 10.656863 24.005986 24.005986 24.005986z"/><path d="m17.1453071 18.9579983c.6730651.673065 1.5704851.7852425 2.5800826.224355l.4487101-.3365325c.44871-.224355.89742-.3365325 1.121775.1121775v.224355c0 .3365325-.3365325.673065-.44871.673065-.3365325.224355-.673065.44871-1.1217751.5608876-.1121775 0-.3365325.1121775-.3365325.3365325-.1121775.1121775-.1121775.3365325 0 .44871l.224355.5608875c0 .1121775.1121775.224355.3365325.3365325h.2243551.224355c.673065-.224355 1.34613-.673065 1.79484-1.121775.5608876-.5608875 1.1217751-1.2339526 1.2339526-1.9070176.224355-.7852425 0-1.4583076-.44871-2.0191951-.6730651-.7852425-1.5704851-.89742-2.6922601-.3365325l-.5608876.3365325c-.3365325.1121775-.673065.224355-1.0095975-.1121775-.1121775-.1121775-.1121775-.224355-.1121775-.3365325 0-.3365325.3365325-.5608875.3365325-.5608875.224355-.224355.5608875-.3365325.89742-.44871.1121775 0 .2243551-.1121776.3365326-.3365326.1121775-.1121775.1121775-.3365325 0-.44871l-.1121775-.44871c-.1121776-.3365325-.4487101-.44871-.7852426-.3365325-.5608875.224355-1.0095975.44871-1.4583075.7852425-.8974201.8974201-1.9070176 2.6922601-.6730651 4.1505677z"/><path d="m33.4110453 13.0125905c.673065 0 1.3461301-.1121775 1.9070176-.44871 2.1313726-1.0095975 2.9166151-3.14097011 2.0191951-5.16016519-.44871-1.00959754-1.2339526-1.68266257-2.2435501-1.90701758-.8974201-.33653251-2.0191951-.22435501-3.0287926.33653251-1.0095976.44871002-1.7948401 1.23395256-2.1313726 2.13137259-.4487101 1.00959755-.3365325 2.01919509.1121775 3.02879267.673065 1.2339525 1.9070175 2.019195 3.3653251 2.019195zm-.44871-5.38452018c.224355-.11217751.44871-.22435501.7852425-.22435501.224355 0 .44871 0 .5608875.1121775.4487101.11217751.6730651.44871002.8974201.89742004.44871.89742004.1121775 1.79484005-.7852425 2.24355005-.4487101.2243551-.8974201.2243551-1.2339526.1121776-.44871-.1121776-.7852425-.4487101-1.0095975-.89742009-.3365326-.89742003 0-1.79484007.7852425-2.24355009z"/><path d="m47.7697659 7.74024782c.224355.11217751.44871.22435501.7852425.22435501h.3365326c.673065-.1121775 1.121775-.67306502 1.0095975-1.34613005-.1121775-.33653252-.3365325-.56088753-.5608875-.67306503-.224355-.11217751-.6730651-.11217751-.8974201-.11217751-.3365325.11217751-.7852425.33653252-.89742.56088753s-.224355.44871002-.1121775.67306503c0 .33653251.1121775.44871001.3365325.67306502z"/><path d="m74.468012 7.74024782c.3365325.11217751.7852426.11217751 1.3461301.11217751.224355 0 .5608875-.22435501.5608875-.44871002l.224355-.78524253c0-.22435501 0-.33653252-.1121775-.56088753-.1121775-.1121775-.3365325-.22435501-.44871-.22435501h-.224355-.44871c-.4487101-.1121775-.8974201-.33653251-1.1217751-.67306502-.224355-.33653252-.3365325-.89742004-.3365325-1.34613006.224355-.89742004 1.1217751-1.57048507 2.0191951-1.34613006.224355 0 .44871.11217751.5608875.22435501.1121775.11217751.3365325.11217751.5608875 0 .224355-.1121775.3365325-.22435501.3365325-.44871002l.1121776-.89742003c0-.22435501-.1121776-.56088753-.3365326-.67306503-.3365325-.11217751-.7852425-.33653252-1.121775-.33653252-2.1313726-.44871002-4.0383902.89742004-4.4871002 3.02879263-.224355 1.00959754 0 1.90701758.5608875 2.80443762.5608876.89742004 1.4583076 1.34613005 2.3557276 1.57048506z"/><path d="m85.124875 10.7690405 1.121775.5608875c.224355.1121775.5608875 0 .673065-.1121775l.1121776-.1121775c.1121775-.1121775.3365325-.224355.5608875-.1121775l1.570485.7852425c.2243551.1121775.2243551.224355.2243551.44871v.224355c0 .224355.1121775.5608875.3365325.673065l1.121775.5608876h.224355c.1121775 0 .224355 0 .3365325-.1121775s.224355-.224355.3365326-.4487101l.5608875-6.39411772c0-.22435501-.1121775-.44871002-.3365325-.56088752l-1.7948401-.78524253c-.224355-.11217751-.44871-.11217751-.673065.1121775l-4.4871002 4.59927767c-.1121775.1121775-.224355.3365325-.1121775.5608875 0-.1121775.1121775.1121776.224355.1121776zm3.5896801-.89742009c-.1121775-.1121775-.224355-.1121775-.224355-.33653251 0-.11217751 0-.22435501.1121775-.33653252l.7852426-1.00959754c.1121775-.1121775.3365325-.22435501.5608875-.1121775.224355.1121775.3365325.33653251.224355.44871002v.1121775l-.224355 1.12177505c0 .1121775-.1121775.22435501-.224355.33653249-.1121775.1121775-.224355.1121775-.3365325 0z"/><path d="m102.063678 21.2015484c.112178.1121775.224355.1121775.336533.1121775h.112177c.112178 0 .336533-.1121775.336533-.224355l.560887-.673065c.112178-.1121776.112178-.2243551.112178-.4487101 0-.1121775-.112178-.3365325-.224355-.3365325l-1.009598-.7852425c-.112177-.1121775-.112177-.224355-.112177-.3365325s0-.224355.112177-.3365325l2.69226-3.2531477c.224355-.224355.112178-.673065-.112177-.7852425l-.89742-.7852425c-.112178-.1121775-.224355-.1121775-.44871-.1121775-.112178 0-.336533.1121775-.336533.224355l-3.8140349 4.7114552c-.224355.224355-.1121775.673065.1121775.7852425z"/><path d="m110.364814 29.5026837c.224355 0 .44871-.1121775.560887-.224355.224355-.224355.336533-.44871.336533-.7852425s-.112178-.673065-.336533-.89742c-.224355-.3365326-.560887-.4487101-1.121775-.5608876-.224355 0-.44871.1121775-.560888.224355-.224355.2243551-.336532.4487101-.336532.7852426s.112177.673065.336532.89742c.448711.3365325.785243.5608875 1.121776.5608875z"/><path d="m121.133854 51.8260072c.112177.3365325.336532.89742.44871 1.2339525.112178.224355.336533.3365325.560888.3365325h.112177l.785243-.224355c.224355 0 .336532-.224355.44871-.3365325.112177-.224355 0-.3365325 0-.5608875-.112178-.224355-.224355-.3365325-.224355-.5608875-.112178-.4487101-.112178-.8974201.112177-1.3461301s.560888-.673065 1.009598-.89742c.336532-.1121775.89742-.1121775 1.233952.1121775.44871.224355.673065.5608875.785243 1.0095975.112177.224355.112177.44871.112177.673065 0 .2243551.112178.3365326.224355.4487101.112178.1121775.336533.1121775.560888.1121775l.785242-.224355c.224355-.1121775.44871-.3365326.44871-.5608876 0-.44871-.112177-.7852425-.224355-1.2339525-.560887-2.0191951-2.69226-3.1409701-4.711455-2.5800826-1.009597.224355-1.79484.89742-2.24355 1.7948401-.44871.89742-.560888 1.79484-.224355 2.8044376z"/><path d="m130.444587 62.8194026c0-.1121775-.112178-.3365325-.224355-.44871-.112178-.1121775-.224355-.1121775-.44871-.1121775l-6.057585.224355c-.336533 0-.560888.3365325-.560888.5608875v1.1217751c0 .1121775.112178.3365325.224355.44871.112178.1121775.224355.224355.44871.1121775h.89742c.224355 0 .336533.1121775.44871.3365325 0 .224355 0 .44871-.224355.44871l-1.233952.6730651c-.224355.1121775-.336533.3365325-.336533.5608875v1.2339525c0 .2243551.112178.4487101.336533.4487101.112177 0 .224355.1121775.224355.1121775.112177 0 .224355 0 .336532-.1121775l1.233953-.8974201.224355-.224355c.112177-.1121775.112177-.1121775.44871-.1121775.112177 0 .224355.1121775.336532.224355.336533.673065.673065 1.0095976 1.682663 1.0095976.785242 0 1.34613-.3365326 1.79484-.7852426.44871-.5608875.560887-1.34613.560887-2.2435501zm-3.028793 3.1409702c-.224355-.224355-.224355-.6730651-.336532-.8974201 0-.1121775 0-.224355.112177-.3365325.112178-.1121775.224355-.1121775.336533-.1121775h.89742c.112177 0 .224355 0 .336532.1121775.112178.1121775.112178.224355.112178.3365325 0 .44871-.112178.6730651-.224355.8974201 0 0-.224355.224355-.560888.3365325-.336532.1121775-.673065-.3365325-.673065-.3365325z"/><path d="m123.489582 77.6268332c-.112178-.1121775-.336533-.1121775-.560888 0-.224355.1121776-.336532.2243551-.336532.4487101l-.224355 1.121775c-.112178.224355.112177.5608875.336532.673065l.112178.1121775c.224355.1121776.336532.3365326.224355.4487101l-.336533 1.6826625c0 .224355-.224355.3365326-.44871.3365326h-.224355c-.224355 0-.44871.224355-.560888.44871l-.224355 1.2339525c0 .224355 0 .3365325.112178.5608875.112177.1121775.224355.2243551.44871.2243551h.112178l6.394117-.7852426c.224355 0 .44871-.224355.44871-.44871l.44871-1.9070176c0-.224355 0-.44871-.224355-.673065zm.785242 3.5896802c0-.1121775.112178-.224355.224355-.3365325h.224355.224355l1.121775.5608875c.224355.1121775.336533.3365325.224355.44871 0 .224355-.224355.3365325-.560887.3365325h-1.121775c-.112178 0-.224355-.1121775-.336533-.1121775-.112177-.1121775-.112177-.224355-.112177-.3365325z"/><path d="m123.938292 96.023944-5.496698-2.6922601c-.112178-.1121775-.336533-.1121775-.44871 0-.112178 0-.224355.1121775-.336533.3365325l-.560887 1.1217751c-.112178.3365325 0 .673065.224355.7852425l1.458307.7852425c.112178 0 .224355.1121775.224355.224355v.3365326l-.44871.89742c-.112177.3365325 0 .673065.224355.7852425l.336533.224355c.336532.1121775.673065 0 .785242-.224355l.44871-.89742c0-.1121775.112178-.224355.224355-.224355h.336533l.336532.1121775c.224355.1121775.336533.3365325.224355.5608875l-.560887 1.2339526c-.112178.3365325 0 .6730648.224355.7852428l.560888.224355c.112177 0 .224355.112177.224355.112177h.224355c.112177 0 .224355-.112177.336532-.336532l1.570485-3.1409704c.112178-.1121775.112178-.3365326 0-.4487101.112178-.44871 0-.5608875-.112177-.5608875z"/><path d="m115.749334 108.139115c-.112178-.112178-.336533-.112178-.44871-.112178-.112178 0-.336533.112178-.44871.224355l-.224355.336533c-.112178.112177-.224355.112177-.336533.224355-.112177 0-.224355 0-.224355-.112178l-3.253147-2.69226c-.112178-.112178-.224355-.112178-.44871-.112178-.112178 0-.336533.112178-.44871.224355l-.785243.89742c-.224355.224355-.112178.560888.112177.785243l3.253148 2.69226c.112178.112178.112178.224355.112178.336533 0 .112177 0 .224355-.112178.336532l-.336532.336533c-.112178.112177-.112178.224355-.112178.44871 0 .112177.112178.336532.224355.44871l.673065.560887c.112178.112178.224355.112178.336533.112178h.112177c.112178 0 .336533-.112178.44871-.224355l2.69226-3.365325c.224355-.224355.112178-.560888-.112177-.785243z"/><path d="m91.5189927 122.72219c-.89742-.336532-1.9070175-.224355-2.8044376.224355-.3365325.224355-.7852425.44871-1.121775.673065-.224355.112178-.3365325.44871-.224355.673065l.3365325.785243c.1121775.112177.224355.336532.44871.336532s.3365325 0 .5608875-.112177c.1121775-.112178.3365325-.224355.44871-.336533.4487101-.224355.8974201-.224355 1.3461301-.112177.44871.112177.7852425.44871 1.0095975.785242.4487101.89742.1121775 1.907018-.7852425 2.355728-.224355.112177-.3365325.112177-.5608875.224355-.224355 0-.3365325.112177-.44871.336532-.1121775.112178-.1121775.336533 0 .560888l.44871.785242c.1121775.224355.3365325.336533.5608875.336533h.1121775c.44871-.112178.7852425-.224355 1.1217751-.44871.89742-.44871 1.570485-1.233953 1.9070175-2.24355.3365326-1.009598.224355-2.019195-.224355-2.916615s-1.2339525-1.570485-2.1313726-1.907018z"/><path d="m74.916722 127.658c-2.24355.44871-3.5896801 2.355728-3.1409701 4.487101.3365325 1.79484 1.9070176 2.916615 3.7018577 2.916615.3365325 0 .673065 0 1.0095975-.112178 1.1217751-.224355 2.0191951-.785242 2.5800826-1.570485.5608875-.89742.7852426-1.79484.5608875-2.916615-.44871-2.019195-2.4679051-3.253148-4.7114552-2.804438zm-.673065 2.69226c.224355-.336532.5608875-.560887 1.1217751-.673065h.3365325c.3365325 0 .5608875.112178.7852425.224355.3365325.224355.673065.673065.7852425 1.121775.1121775.448711 0 .897421-.224355 1.346131s-.5608875.673065-1.0095975.673065c-.44871.112177-.89742 0-1.3461301-.224355-.3365325-.224355-.5608875-.673065-.673065-1.121775 0-.560888 0-1.009598.224355-1.346131z"/><path d="m61.4554215 129.228485h-1.2339526c-.3365325 0-.5608875.224355-.5608875.560888l-.1121775 1.682663c0 .112177 0 .224355-.1121775.336532-.1121775.112178-.224355.112178-.3365325.112178h-1.0095976c-.1121775 0-.3365325 0-.44871.112177-.1121775.112178-.224355.224355-.224355.44871v.44871c0 .336533.224355.560888.5608875.560888h1.0095976c.1121775 0 .224355 0 .3365325.112177.1121775.112178.1121775.224355.1121775.336533v.336532c0 .112178 0 .224355-.1121775.336533-.1121775.112177-.1121775.112177-.3365325.112177h-1.3461301c-.3365325 0-.5608875.224355-.5608875.560888v.560887c0 .112178 0 .336533.1121775.44871.1121775.112178.224355.224355.44871.224355l3.5896802.112178c.3365325 0 .5608875-.224355.5608875-.560888l.224355-6.057585c0-.112178 0-.336533-.1121775-.44871-.224355-.224355-.3365325-.336533-.44871-.336533z"/><path d="m47.7697659 127.658-1.121775-.336532c-.3365326-.112178-.6730651.112177-.6730651.44871l-.44871 1.570485c0 .224355-.224355.336532-.5608875.336532l-1.0095975-.224355c-.3365326-.112177-.6730651.112178-.6730651.44871l-.1121775.336533c0 .112177 0 .336532.1121775.44871.1121775.112177.224355.224355.3365325.224355l1.0095976.224355c.224355.112177.3365325.336533.3365325.560888l-.1121775.336532c0 .224355-.224355.336533-.5608875.336533l-1.2339526-.336533c-.1121775 0-.3365325 0-.44871.112178-.1121775.112177-.224355.224355-.224355.336532l-.1121775.560888c0 .112177 0 .336532.1121775.44871.1121775.112177.224355.224355.3365325.224355l3.4775026.89742h.1121775c.2243551 0 .4487101-.224355.5608876-.44871l1.570485-5.833231c0-.112177 0-.336532-.1121775-.44871-.1121775-.112177-.44871-.224355-.5608875-.224355z"/><path d="m34.8693529 122.946545-3.2531477-1.682662c-.3365325-.112178-.673065 0-.7852425.224355l-.224355.44871c-.1121775.112177-.1121775.336532 0 .44871 0 .112177.1121775.224355.3365325.336532l1.2339526.673065c.224355.112178.3365325.336533.224355.560888l-.1121775.336532c0 .112178-.1121775.224355-.3365326.224355h-.224355l-1.0095975-.560887c-.3365325-.112178-.673065 0-.7852425.224355l-.224355.336532c-.1121775.112178-.1121775.336533 0 .44871 0 .112178.1121775.224355.3365325.336533l1.0095975.560887c.1121775 0 .224355.112178.224355.224355v.336533l-.1121775.224355c0 .112177-.1121775.224355-.3365325.224355h-.224355l-1.2339526-.673065c-.1121775-.112178-.3365325-.112178-.44871 0-.1121775 0-.224355.112177-.3365325.336532l-.224355.44871c-.1121775.336533 0 .673065.224355.785243l3.1409701 1.682662c.1121775 0 .224355.112178.224355.112178h.2243551c.1121775 0 .224355-.112178.3365325-.336533l2.8044376-5.38452c0-.336532-.1121775-.673065-.44871-.89742z"/><path d="m20.3984548 113.074925c-.1121775-.112178-.224355-.112178-.4487101-.112178-.1121775 0-.3365325.112178-.44871.224355l-.3365325.336533c-.1121775.112177-.1121775.224355-.1121775.44871 0 .112177.1121775.336532.224355.44871l1.1217751.89742c.224355.112177.224355.44871 0 .673065l-.224355.224355c-.1121775.112177-.2243551.112177-.3365326.112177s-.224355 0-.3365325-.112177l-.89742-.785243c-.1121775-.112177-.224355-.112177-.44871-.112177-.1121775 0-.3365325.112177-.44871.224355l-.2243551.336532c-.1121775.112178-.1121775.224355-.1121775.44871 0 .112178.1121775.336533.224355.44871l.8974201.785243c.1121775.112177.1121775.224355.1121775.336532 0 .112178 0 .224355-.1121775.336533l-.224355.224355c-.1121775.112177-.3365325.336532-.5608875 0l-1.0095976-.89742c-.1121775-.112178-.224355-.112178-.44871-.112178-.1121775 0-.3365325.112178-.44871.224355l-.3365325.336533c-.2243551.224355-.2243551.560887.1121775.785242l2.6922601 2.355728c.1121775.112178.224355.112178.3365325.112178.1121775 0 .3365325-.112178.44871-.224355l3.9262127-4.599278c.224355-.224355.224355-.560888-.1121775-.785243z"/></g></svg>